SplineFontDB: 3.0
FontName: Jost-BookItalic
FullName: Jost* 400 Book Italic
FamilyName: Jost*
Weight: Book
Copyright: This typeface is licensed under the SIL open font license.
UComments: "2018-6-8: Created with FontForge (http://fontforge.org)"
Version: 003.400
ItalicAngle: -10
UnderlinePosition: -100
UnderlineWidth: 50
Ascent: 800
Descent: 200
InvalidEm: 0
LayerCount: 2
Layer: 0 0 "Back" 1
Layer: 1 0 "Fore" 0
XUID: [1021 69 1495626776 760146]
FSType: 0
OS2Version: 0
OS2_WeightWidthSlopeOnly: 0
OS2_UseTypoMetrics: 0
CreationTime: 1528480336
ModificationTime: 1562964872
PfmFamily: 17
TTFWeight: 400
TTFWidth: 5
LineGap: 100
VLineGap: 0
OS2TypoAscent: 825
OS2TypoAOffset: 0
OS2TypoDescent: -225
OS2TypoDOffset: 0
OS2TypoLinegap: 100
OS2WinAscent: 900
OS2WinAOffset: 0
OS2WinDescent: 300
OS2WinDOffset: 0
HheadAscent: 1030
HheadAOffset: 0
HheadDescent: -350
HheadDOffset: 0
OS2CapHeight: 700
OS2XHeight: 460
OS2Vendor: 'PfEd'
Lookup: 1 0 0 "alt a" { "alt a"  } ['ss01' ('DFLT' <'dflt' > 'latn' <'dflt' > ) ]
Lookup: 1 0 0 "Tabular Numbers lookup" { "Tabular Numbers lookup"  } ['tnum' ('DFLT' <'dflt' > 'grek' <'dflt' > 'latn' <'dflt' > ) ]
Lookup: 258 0 0 "Lets get our kern on" { "kernin like nobodys business" [150,0,4] } ['kern' ('DFLT' <'dflt' > 'latn' <'dflt' > ) ]
MarkAttachClasses: 1
DEI: 91125
KernClass2: 16 14 "kernin like nobodys business"
 43 slash seven V W Wcircumflex uni040E uni0423
 175 quotedbl quotesingle asterisk grave dieresis ordfeminine macron degree acute ordmasculine circumflex breve dotaccent ring tilde quoteleft quoteright quotedblleft quotedblright
 25 nine question F P uni0420
 131 A L backslash Agrave Aacute Acircumflex Atilde Adieresis Aring Amacron Abreve Aogonek Lacute uni013B Lslash uni0410 uni0414 uni041C
 58 three eight B C germandbls uni0411 uni0412 uni0417 uni0421
 29 K X Z uni0416 uni041A uni0425

StartChar: H
Encoding: 72 72 0
Width: 693
VWidth: 0
Flags: HMW
LayerCount: 2
Fore
SplineSet
154.5 340.5 m 1
 167.5 420 l 1
 635 420 l 1
 621.5 340.5 l 1
 154.5 340.5 l 1
624.5 699.5 m 1
 710.5 700 l 1
 589 0 l 1
 507 0 l 1
 624.5 699.5 l 1
168.5 699.5 m 1
 254 700 l 1
 133 0 l 1
 51 0 l 1
 168.5 699.5 l 1
EndSplineSet
EndChar

StartChar: O
Encoding: 79 79 1
Width: 766
VWidth: 0
Flags: HMW
LayerCount: 2
Fore
SplineSet
159.5 350 m 0
 137.5 209 213 76.5 366 75.5 c 0
 521 74.5 647.5 201 672.5 350 c 0
 694.5 491 619 623.5 466 624.5 c 0
 311 625.5 184.5 499 159.5 350 c 0
70.5 350 m 0
 101 546 269.5 710.5 474 710 c 0
 675.5 709.5 789 537.5 761.5 350 c 0
 731 154 562 -10.5 357.5 -10 c 0
 156 -9.5 43 162.5 70.5 350 c 0
EndSplineSet
EndChar

StartChar: I
Encoding: 73 73 2
Width: 237
VWidth: 0
Flags: HMW
LayerCount: 2
Fore
SplineSet
168.5 700 m 1
 254 700 l 1
 133 0 l 1
 51 0 l 1
 168.5 700 l 1
EndSplineSet
EndChar

StartChar: C
Encoding: 67 67 3
Width: 664
VWidth: 0
Flags: HMW
LayerCount: 2
Fore
SplineSet
159.5 350 m 0
 138 208 217 77 361 75.5 c 0
 457.5 74.5 539 120 600 178 c 1
 582.5 66.5 l 1
 517.5 17.5 446.5 -10.5 352.5 -10 c 0
 157 -9 43 161.5 70.5 350 c 0
 101 548 270.5 709 469.5 710 c 0
 558.5 710.5 621.5 685.5 678 632.5 c 1
 660 521 l 1
 617 586 549.5 624.5 461 624.5 c 0
 315 624 184.5 501 159.5 350 c 0
EndSplineSet
EndChar

StartChar: E
Encoding: 69 69 4
Width: 533
VWidth: 0
Flags: HMW
LayerCount: 2
Fore
SplineSet
96.5 0 m 1
 109.5 80 l 1
 454 80 l 1
 440.5 0 l 1
 96.5 0 l 1
202.5 620 m 1
 215.5 700 l 1
 559.5 700 l 1
 546 620 l 1
 202.5 620 l 1
154.5 340.5 m 1
 168 420 l 1
 492.5 420 l 1
 479 340.5 l 1
 154.5 340.5 l 1
168.5 700 m 1
 254 700 l 1
 133 0 l 1
 51 0 l 1
 168.5 700 l 1
EndSplineSet
EndChar

StartChar: F
Encoding: 70 70 6
Width: 485
VWidth: 0
Flags: HMW
LayerCount: 2
Fore
SplineSet
202.5 620 m 1
 215.5 700 l 1
 521 700 l 1
 507.5 620 l 1
 202.5 620 l 1
154.5 340.5 m 1
 168 420 l 1
 463.5 420 l 1
 450 340 l 1
 154.5 340.5 l 1
168.5 700 m 1
 254 700 l 1
 133 0 l 1
 51 0 l 1
 168.5 700 l 1
EndSplineSet
EndChar

StartChar: G
Encoding: 71 71 7
Width: 752
VWidth: 0
Flags: HMW
LayerCount: 2
Fore
SplineSet
411.5 275 m 1
 426 354.5 l 1
 741.5 354.5 l 1
 708 166 569.5 -10 357.5 -10 c 0
 155.5 -10 42.5 160 70.5 350 c 0
 101.5 549.5 269 709.5 474.5 710 c 0
 593 710.5 685 658.5 735 560 c 1
 668.5 506.5 l 1
 632.5 583 561.5 625 466 624.5 c 0
 313.5 624 185 502.5 159.5 350 c 0
 137.5 206.5 215.5 76 366 75.5 c 0
 502 75 588.5 169.5 635 275 c 1
 411.5 275 l 1
EndSplineSet
EndChar

StartChar: T
Encoding: 84 84 8
Width: 451
VWidth: 0
Flags: HMW
LayerCount: 2
Fore
SplineSet
87 620 m 1
 101.5 700 l 1
 535 700 l 1
 521 620 l 1
 346.5 620 l 1
 240 0 l 1
 156 0 l 1
 262.5 620 l 1
 87 620 l 1
EndSplineSet
EndChar

StartChar: L
Encoding: 76 76 9
Width: 436
VWidth: 0
Flags: HMW
LayerCount: 2
Fore
SplineSet
169.5 700 m 1
 254 700 l 1
 147.5 80 l 1
 414.5 80 l 1
 400.5 0 l 1
 49.5 0 l 1
 169.5 700 l 1
EndSplineSet
EndChar

StartChar: D
Encoding: 68 68 10
Width: 659
VWidth: 0
Flags: HMW
LayerCount: 2
Fore
SplineSet
168.5 699.5 m 1
 254 700 l 1
 133 0 l 1
 51 0 l 1
 168.5 699.5 l 1
257.5 0 m 2
 95 0 l 1
 110 85 l 1
 266 85 l 2
 423.5 85 544.5 195.5 570.5 350 c 0
 594 497 516.5 615 362 615 c 2
 200 615 l 1
 215 700 l 1
 370.5 700 l 2
 570.5 700 683 542 654.5 350 c 0
 623.5 150 461.5 0 257.5 0 c 2
EndSplineSet
EndChar

StartChar: Q
Encoding: 81 81 11
Width: 766
VWidth: 0
Flags: HMW
LayerCount: 2
Fore
SplineSet
159.5 350 m 0
 137.5 209 213 76.5 366 75.5 c 0
 521 74.5 647.5 201 672.5 350 c 0
 694.5 491 619 623.5 466 624.5 c 0
 311 625.5 184.5 499 159.5 350 c 0
70.5 350 m 0
 101 546 270 710.5 474.5 710 c 0
 676 709.5 789 537.5 761.5 350 c 0
 731 154 562 -10.5 357.5 -10 c 0
 156 -9.5 43 162.5 70.5 350 c 0
393.5 300 m 1
 497 300 l 1
 737 0 l 1
 633.5 0 l 1
 393.5 300 l 1
EndSplineSet
EndChar

StartChar: A
Encoding: 65 65 12
Width: 640
VWidth: 0
Flags: HMW
LayerCount: 2
Fore
SplineSet
151.5 210 m 1
 193 289.5 l 1
 495.5 289.5 l 1
 511.5 210 l 1
 151.5 210 l 1
388 542 m 1
 225.5 264 l 1
 215 246 l 1
 71 0 l 1
 -25 0 l 1
 418.5 736.5 l 1
 608 0 l 1
 516.5 0 l 1
 458.5 240 l 1
 454.5 260 l 1
 388 542 l 1
EndSplineSet
EndChar

StartChar: R
Encoding: 82 82 13
Width: 543
VWidth: 0
Flags: HMW
LayerCount: 2
Fore
SplineSet
230.5 345 m 1
 322 345 l 1
 505.5 0 l 1
 406.5 0 l 1
 230.5 345 l 1
168.5 700 m 1
 254 700 l 1
 133 0 l 1
 51 0 l 1
 168.5 700 l 1
201.5 625 m 1
 215 700 l 1
 351.5 700 l 2
 478.5 700 569.5 614 550.5 489.5 c 0
 531 362.5 416.5 280 285.5 280 c 2
 142.5 280 l 1
 156 355 l 1
 292.5 355 l 2
 379.5 355 451.5 406.5 466.5 490 c 0
 480.5 571 428 625 344.5 625 c 2
 201.5 625 l 1
EndSplineSet
EndChar

StartChar: V
Encoding: 86 86 14
Width: 640
VWidth: 0
Flags: HMW
LayerCount: 2
Fore
SplineSet
325.5 158 m 1
 633 699.5 l 1
 728.5 699.5 l 1
 298 -36.5 l 1
 96 700 l 1
 186.5 700 l 1
 325.5 158 l 1
EndSplineSet
EndChar

StartChar: M
Encoding: 77 77 15
Width: 786
VWidth: 0
Flags: HMW
LayerCount: 2
Fore
SplineSet
227 472.5 m 1
 95 0 l 1
 10 0 l 1
 219.5 735.5 l 1
 403.5 229.5 l 1
 765.5 739 l 1
 720 0 l 1
 636.5 0 l 1
 667 468.5 l 1
 377.5 64 l 1
 227 472.5 l 1
EndSplineSet
EndChar

StartChar: W
Encoding: 87 87 16
Width: 960
VWidth: 0
Flags: HMW
LayerCount: 2
Fore
SplineSet
688.5 177.5 m 1
 948.5 699.5 l 1
 1044 699.5 l 1
 661.5 -37 l 1
 542.5 507 l 1
 254 -37 l 1
 100.5 700 l 1
 192.5 700 l 1
 290.5 177.5 l 1
 577 737 l 1
 688.5 177.5 l 1
EndSplineSet
EndChar

StartChar: N
Encoding: 78 78 17
Width: 752
VWidth: 0
Flags: HMW
LayerCount: 2
Fore
SplineSet
684 700 m 1
 768 700 l 1
 642 -34 l 1
 223.5 521.5 l 1
 133.5 0 l 1
 49 0 l 1
 175 734 l 1
 594 178.5 l 1
 684 700 l 1
EndSplineSet
EndChar

StartChar: a
Encoding: 97 97 18
Width: 553
VWidth: 0
Flags: HMW
LayerCount: 2
Fore
SplineSet
462.5 459.5 m 1
 538.5 460 l 1
 458.5 0 l 1
 385.5 0 l 1
 462.5 459.5 l 1
45 230 m 0
 64.5 365.5 175.5 471 305.5 470 c 0
 429 469 471.5 353.5 455.5 230 c 0
 437.5 99 352 -9 229.5 -9.5 c 0
 100 -10 27 100 45 230 c 0
125 230 m 0
 111.5 140.5 157.5 65.5 246 65.5 c 0
 326 65.5 405 137.5 419.5 230 c 0
 431.5 317 386.5 392.5 308 394.5 c 0
 218.5 396.5 140 324 125 230 c 0
EndSplineSet
Substitution2: "alt a" a.alt
EndChar

StartChar: X
Encoding: 88 88 19
Width: 538
VWidth: 0
Flags: HMW
LayerCount: 2
Fore
SplineSet
506.5 699.5 m 1
 607.5 699.5 l 1
 352.5 365 l 1
 511 0 l 1
 415.5 0 l 1
 301 291.5 l 1
 91 0 l 1
 -10 0 l 1
 271 369 l 1
 125.5 700 l 1
 221 700 l 1
 322 442.5 l 1
 506.5 699.5 l 1
EndSplineSet
EndChar

StartChar: K
Encoding: 75 75 20
Width: 548
VWidth: 0
Flags: HMW
LayerCount: 2
Fore
SplineSet
168.5 700 m 1
 254 700 l 1
 133 0 l 1
 51 0 l 1
 168.5 700 l 1
517 699.5 m 1
 624 699.5 l 1
 270.5 370 l 1
 515 0 l 1
 416 0 l 1
 171 372.5 l 1
 517 699.5 l 1
EndSplineSet
EndChar

StartChar: Y
Encoding: 89 89 21
Width: 544
VWidth: 0
Flags: HMW
LayerCount: 2
Fore
SplineSet
538 699.5 m 1
 634.5 699.5 l 1
 338 299.5 l 1
 286.5 0 l 1
 202.5 0 l 1
 256 304 l 1
 98 700 l 1
 189 700 l 1
 307.5 377.5 l 1
 538 699.5 l 1
EndSplineSet
EndChar

StartChar: B
Encoding: 66 66 22
Width: 541
VWidth: 0
Flags: HMW
LayerCount: 2
Fore
SplineSet
178.5 370.5 m 1
 186 416.5 l 1
 294 417 l 2
 361 417.5 421.5 455 433 520 c 0
 444 583 399 624 334.5 624.5 c 2
 240.5 625 l 1
 146.5 75 l 1
 244.5 75.5 l 2
 331.5 76 404 126.5 419 210 c 0
 433 291.5 379 342.5 295.5 343 c 2
 173.5 343.5 l 1
 181.5 389.5 l 1
 299 390 l 2
 422 388.5 520 330 501.5 204.5 c 0
 482 71.5 369 0 238 0 c 2
 49.5 0 l 1
 169.5 700 l 1
 341.5 700 l 2
 455.5 700 535.5 639 517.5 524.5 c 0
 500.5 423 404 372 290.5 370.5 c 2
 178.5 370.5 l 1
EndSplineSet
EndChar

StartChar: Z
Encoding: 90 90 23
Width: 528
VWidth: 0
Flags: HMW
LayerCount: 2
Fore
SplineSet
111.5 620 m 1
 126 700 l 1
 604 699.5 l 1
 141 80.5 l 1
 478 80 l 1
 463.5 0 l 1
 -15 0 l 1
 448.5 619.5 l 1
 111.5 620 l 1
EndSplineSet
EndChar

StartChar: o
Encoding: 111 111 24
Width: 529
VWidth: 0
Flags: HMW
LayerCount: 2
Fore
SplineSet
51.5 230 m 0
 69.5 362.5 182.5 469.5 317.5 469.5 c 0
 451 469.5 532 358 515 230 c 0
 497 97.5 384 -9.5 249 -9.5 c 0
 115.5 -9.5 34.5 102 51.5 230 c 0
131 230 m 0
 118.5 145 165 66 255 65.5 c 0
 346 65 421.5 140.5 435.5 230 c 0
 448 315 401 394 311 394.5 c 0
 220 395 145 319.5 131 230 c 0
EndSplineSet
EndChar

StartChar: J
Encoding: 74 74 25
Width: 232
VWidth: 0
Flags: HMW
LayerCount: 2
Fore
SplineSet
-112 -104.5 m 1
 -97 -126.5 -74.5 -141 -42 -140 c 0
 -3 -138 34 -103.5 41 -50 c 2
 169.5 700 l 1
 249 700 l 1
 119.5 -60.5 l 2
 103.5 -157 39.5 -220.5 -55.5 -219.5 c 0
 -103.5 -219 -143 -194.5 -164.5 -169 c 1
 -112 -104.5 l 1
EndSplineSet
EndChar

StartChar: t
Encoding: 116 116 26
Width: 232
VWidth: 0
Flags: HMW
LayerCount: 2
Fore
SplineSet
57.5 460 m 1
 282 460 l 1
 268.5 385 l 1
 43.5 385 l 1
 57.5 460 l 1
155 619.5 m 1
 235.5 620 l 1
 128 0 l 1
 51 0 l 1
 155 619.5 l 1
EndSplineSet
EndChar

StartChar: d
Encoding: 100 100 27
Width: 553
VWidth: 0
Flags: HMW
LayerCount: 2
Fore
SplineSet
512 779.5 m 1
 593 780 l 1
 458 0 l 1
 380.5 0 l 1
 512 779.5 l 1
45 230 m 0
 64.5 365.5 175.5 471 305.5 470 c 0
 429 469 471.5 353.5 455.5 230 c 0
 437.5 99 352 -9 229.5 -9.5 c 0
 100 -10 27 100 45 230 c 0
125 230 m 0
 111.5 140.5 157.5 65.5 246 65.5 c 0
 326 65.5 405 137.5 419.5 230 c 0
 431.5 317 386.5 392.5 308 394.5 c 0
 218.5 396.5 140 324 125 230 c 0
EndSplineSet
EndChar

StartChar: l
Encoding: 108 108 28
Width: 223
VWidth: 0
Flags: HMW
LayerCount: 2
Fore
SplineSet
177.5 779.5 m 1
 258 780 l 1
 123 0 l 1
 46 0 l 1
 177.5 779.5 l 1
EndSplineSet
EndChar

StartChar: i
Encoding: 105 105 29
Width: 252
VWidth: 0
Flags: HMW
LayerCount: 2
Fore
SplineSet
155.5 650 m 0
 155.5 680 180 704.5 210 704.5 c 0
 240 704.5 264.5 680 264.5 650 c 0
 264.5 620 240 595.5 210 595.5 c 0
 180 595.5 155.5 620 155.5 650 c 0
137 459.5 m 1
 218 459.5 l 1
 139.5 0 l 1
 60.5 0 l 1
 137 459.5 l 1
EndSplineSet
EndChar

StartChar: r
Encoding: 114 114 30
Width: 332
VWidth: 0
Flags: HMW
LayerCount: 2
Fore
SplineSet
203 460 m 1
 123.5 0 l 1
 44 0 l 1
 124 460 l 1
 203 460 l 1
324 372.5 m 1
 305.5 386 291 394.5 268 395 c 0
 207 396 182.5 337.5 171.5 281 c 1
 135 281 l 1
 151.5 373.5 215 468.5 295.5 469.5 c 0
 328 470 353 459 376.5 436.5 c 1
 324 372.5 l 1
EndSplineSet
EndChar

StartChar: c
Encoding: 99 99 31
Width: 463
VWidth: 0
Flags: HMW
LayerCount: 2
Fore
SplineSet
126.5 230 m 0
 114 144.5 160.5 67 250.5 65.5 c 0
 322 64.5 385.5 103.5 421 148 c 1
 407 48.5 l 1
 366 12.5 306.5 -9.5 244 -9.5 c 0
 110.5 -9 29.5 102 46.5 230 c 0
 64.5 363 177 469 312.5 469.5 c 0
 371.5 469.5 427 449.5 462 411 c 1
 447.5 311 l 1
 426.5 360.5 373.5 395 306.5 394.5 c 0
 215 394 140.5 320.5 126.5 230 c 0
EndSplineSet
EndChar

StartChar: b
Encoding: 98 98 32
Width: 553
VWidth: 0
Flags: HMW
LayerCount: 2
Fore
SplineSet
253 780 m 1
 119 0 l 1
 39.5 0 l 1
 173.5 780 l 1
 253 780 l 1
532 230 m 0
 512.5 94.5 402 -11 272 -10 c 0
 148.5 -9 106 106.5 122 230 c 0
 140 361 225.5 469 348 469.5 c 0
 477.5 470 550 360 532 230 c 0
452.5 230 m 0
 466 319.5 420 394.5 331.5 394.5 c 0
 251.5 394.5 172.5 322.5 158 230 c 0
 146 143 191 67.5 269.5 65.5 c 0
 359 63.5 437.5 136 452.5 230 c 0
EndSplineSet
EndChar

StartChar: p
Encoding: 112 112 33
Width: 553
VWidth: 0
Flags: HMW
LayerCount: 2
Fore
SplineSet
82.5 -219.5 m 1
 1.5 -220 l 1
 119.5 460 l 1
 196.5 459.5 l 1
 82.5 -219.5 l 1
532 230 m 0
 512.5 94.5 402 -11 272 -10 c 0
 148.5 -9 106 106.5 122 230 c 0
 140 361 225.5 469 348 469.5 c 0
 477.5 470 550 360 532 230 c 0
452.5 230 m 0
 466 319.5 420 394.5 331.5 394.5 c 0
 251.5 394.5 172.5 322.5 158 230 c 0
 146 143 191 67.5 269.5 65.5 c 0
 359 63.5 437.5 136 452.5 230 c 0
EndSplineSet
EndChar

StartChar: q
Encoding: 113 113 34
Width: 553
VWidth: 0
Flags: HMW
LayerCount: 2
Fore
SplineSet
341.5 -220 m 1
 458.5 460 l 1
 538 460 l 1
 421 -220 l 1
 341.5 -220 l 1
45 230 m 0
 64.5 365.5 175.5 471 305.5 470 c 0
 429 469 471.5 353.5 455.5 230 c 0
 437.5 99 352 -9 229.5 -9.5 c 0
 100 -10 27 100 45 230 c 0
125 230 m 0
 111.5 140.5 157.5 65.5 246 65.5 c 0
 326 65.5 405 137.5 419.5 230 c 0
 431.5 317 386.5 392.5 308 394.5 c 0
 218.5 396.5 140 324 125 230 c 0
EndSplineSet
EndChar

StartChar: h
Encoding: 104 104 35
Width: 509
VWidth: 0
Flags: HMW
LayerCount: 2
Fore
SplineSet
258 780 m 1
 123.5 0 l 1
 44.5 0 l 1
 178.5 780 l 1
 258 780 l 1
380 280 m 2
 387.5 342.5 373 393 307 394.5 c 0
 236.5 396 187.5 341.5 171.5 281 c 1
 145 281 l 1
 164 379.5 232.5 469.5 333.5 469.5 c 0
 433.5 469.5 471.5 390.5 459.5 290 c 1
 409.5 0 l 1
 332 0 l 1
 380 280 l 2
EndSplineSet
EndChar

StartChar: n
Encoding: 110 110 36
Width: 509
VWidth: 0
Flags: HMW
LayerCount: 2
Fore
SplineSet
203 460 m 1
 123.5 0 l 1
 44 0 l 1
 124 460 l 1
 203 460 l 1
380 280 m 2
 387.5 342.5 373 393 307 394.5 c 0
 236.5 396 187.5 341.5 171.5 281 c 1
 145 281 l 1
 164 379.5 232.5 469.5 333.5 469.5 c 0
 433.5 469.5 471.5 390.5 459.5 290 c 1
 409.5 0 l 1
 332 0 l 1
 380 280 l 2
EndSplineSet
EndChar

StartChar: m
Encoding: 109 109 37
Width: 756
VWidth: 0
Flags: HMW
LayerCount: 2
Fore
SplineSet
360.5 280 m 2
 367.5 340.5 363 392.5 297.5 394 c 0
 228 396 186.5 341 171.5 281 c 1
 145 281 l 1
 163.5 378.5 224 469 324 469.5 c 0
 424 470 451.5 388.5 440 290 c 2
 390 0 l 1
 312.5 0 l 1
 360.5 280 l 2
203 460 m 1
 123.5 0 l 1
 44 0 l 1
 124 460 l 1
 203 460 l 1
707 290 m 2
 657.5 0 l 1
 578 0 l 1
 627.5 280 l 2
 635 340.5 629.5 392.5 564 394 c 0
 494.5 396 453.5 341 438.5 281 c 1
 397.5 281 l 1
 417 379.5 489.5 469.5 591 469.5 c 0
 691 469.5 718.5 388.5 707 290 c 2
EndSplineSet
EndChar

StartChar: k
Encoding: 107 107 38
Width: 426
VWidth: 0
Flags: HMW
LayerCount: 2
Fore
SplineSet
172.5 779.5 m 1
 253.5 780 l 1
 118.5 0 l 1
 41 0 l 1
 172.5 779.5 l 1
359.5 459.5 m 1
 462 459.5 l 1
 229.5 264 l 1
 398.5 0 l 1
 304 0 l 1
 135.5 272.5 l 1
 359.5 459.5 l 1
EndSplineSet
EndChar

StartChar: u
Encoding: 117 117 39
Width: 509
VWidth: 0
Flags: HMW
LayerCount: 2
Fore
SplineSet
330.5 0 m 1
 410 460 l 1
 489.5 460 l 1
 410 0 l 1
 330.5 0 l 1
154 180 m 2
 146.5 117.5 161 67 226.5 65.5 c 0
 297 64 346 118.5 362 179 c 1
 388.5 179 l 1
 369.5 80.5 301 -9.5 200 -9.5 c 0
 100 -9.5 62 69.5 74 170 c 1
 124.5 460 l 1
 201.5 459.5 l 1
 154 180 l 2
EndSplineSet
EndChar

StartChar: e
Encoding: 101 101 40
Width: 499
VWidth: 0
Flags: HMW
LayerCount: 2
Fore
SplineSet
98.5 210 m 1
 108.5 278 l 1
 406 278 l 1
 410 344.5 379 398.5 302 399.5 c 0
 219.5 400.5 154 339 138 260 c 1
 131 230 l 1
 119 140.5 154 66 245.5 65.5 c 0
 311 65 359.5 103 398 148.5 c 1
 458.5 105.5 l 1
 403 39 336.5 -10.5 229.5 -9.5 c 0
 101.5 -8 36.5 105.5 51.5 230 c 0
 54 247 57.5 263 62.5 279 c 0
 95.5 386.5 189.5 470 307.5 469.5 c 0
 440 469 499.5 362.5 485.5 234 c 0
 484.5 226 483 218 481.5 210 c 1
 98.5 210 l 1
EndSplineSet
EndChar

StartChar: g
Encoding: 103 103 41
Width: 553
VWidth: 0
Flags: HMW
LayerCount: 2
Fore
SplineSet
9.5 -30 m 1
 88.5 -30.5 l 1
 83.5 -98 124.00545 -153.681 207.5 -154.5 c 0
 289.5 -155.5 366.9865 -88.68425 381 10 c 2
 458.5 460 l 1
 538 460 l 1
 461 10 l 2
 439.801 -131.445 339 -229 207 -229.5 c 0
 78.4995 -229.909 -2 -146 9.5 -30 c 1
45 230 m 0
 64.5 365.5 175.5 471 305.5 470 c 0
 429 469 471.5 353.5 455.5 230 c 0
 437.5 99 352 -9 229.5 -9.5 c 0
 100 -10 27 100 45 230 c 0
125 230 m 0
 111.5 140.5 157.5 65.5 246 65.5 c 0
 326 65.5 405 137.5 419.5 230 c 0
 431.5 317 386.5 392.5 308 394.5 c 0
 218.5 396.5 140 324 125 230 c 0
EndSplineSet
EndChar

StartChar: f
Encoding: 102 102 42
Width: 277
VWidth: 0
Flags: HMW
LayerCount: 2
Fore
SplineSet
89.5 460 m 1
 314.5 460 l 1
 301 385 l 1
 76 385 l 1
 89.5 460 l 1
346 684.5 m 1
 334.5 702 320.5 710.5 303.5 710.5 c 0
 267 710 246.5 669.5 240 620 c 2
 133.5 0 l 1
 54 0 l 1
 161.5 630.5 l 2
 175.5 723 229 791.5 317 789.5 c 0
 355.5 789 380.5 770.5 398.5 748.5 c 1
 346 684.5 l 1
EndSplineSet
EndChar

StartChar: s
Encoding: 115 115 43
Width: 391
VWidth: 0
Flags: HMW
LayerCount: 2
Fore
SplineSet
91.5 161.5 m 1
 115 112 151 66.5 199.5 65.5 c 0
 238.5 65 277.5 84.5 283 121.5 c 0
 290.5 169.5 241.5 191.5 197.5 211 c 0
 137.5 238 77.9835 269.1475 87.5 348.5 c 0
 97.5265 429.272 171 469.5 250 469.5 c 0
 318.5 469.5 373 432.5 400 379 c 1
 333 339.5 l 1
 313 369.5 281 396 244 396.5 c 0
 208.5 397 169.5 383 164.5 348.5 c 0
 157.5 303.5 221 288 261.5 270 c 0
 322 242.5 374 198.5 365.5 127 c 0
 355 36 284 -10.5 192.5 -10 c 0
 108.9995 -9.563965 52.5 50.5 25.5 124 c 1
 91.5 161.5 l 1
EndSplineSet
EndChar

StartChar: y
Encoding: 121 121 44
Width: 426
VWidth: 0
Flags: HMW
LayerCount: 2
Fore
SplineSet
481 459.5 m 1
 72.5 -219.5 l 1
 -18.5 -219.5 l 1
 155.5 67.5 l 1
 52 460 l 1
 139.5 460 l 1
 224 100 l 1
 191.5 104.5 l 1
 390 459.5 l 1
 481 459.5 l 1
EndSplineSet
EndChar

StartChar: w
Encoding: 119 119 45
Width: 659
VWidth: 0
Flags: HMW
LayerCount: 2
Fore
SplineSet
57 460 m 1
 143.5 460 l 1
 203 163.5 l 1
 383 497 l 1
 454 161.5 l 1
 618 459.5 l 1
 709 459.5 l 1
 427.5 -37 l 1
 351.5 298 l 1
 165.5 -37 l 1
 57 460 l 1
EndSplineSet
EndChar

StartChar: v
Encoding: 118 118 46
Width: 426
VWidth: 0
Flags: HMW
LayerCount: 2
Fore
SplineSet
54 460 m 1
 141 460 l 1
 217 138 l 1
 392 459.5 l 1
 483 459.5 l 1
 191 -36.5 l 1
 54 460 l 1
EndSplineSet
EndChar

StartChar: x
Encoding: 120 120 47
Width: 407
VWidth: 0
Flags: HMW
LayerCount: 2
Fore
SplineSet
362.5 459.5 m 1
 454.5 459.5 l 1
 266.5 233 l 1
 389.5 0 l 1
 304 0 l 1
 215 175.5 l 1
 72 0 l 1
 -20 0 l 1
 182 242 l 1
 64 460 l 1
 149.5 460 l 1
 233 299.5 l 1
 362.5 459.5 l 1
EndSplineSet
EndChar

StartChar: z
Encoding: 122 122 48
Width: 446
VWidth: 0
Flags: HMW
LayerCount: 2
Fore
SplineSet
327.5 385 m 1
 81 385 l 1
 94.5 460 l 1
 486 460 l 1
 143 75 l 1
 399.5 75 l 1
 386 0 l 1
 -15 0 l 1
 327.5 385 l 1
EndSplineSet
EndChar

StartChar: j
Encoding: 106 106 49
Width: 242
VWidth: 0
Flags: HMW
LayerCount: 2
Fore
SplineSet
145.5 650 m 0
 145.5 680 170 704.5 200 704.5 c 0
 230 704.5 254.5 680 254.5 650 c 0
 254.5 620 230 595.5 200 595.5 c 0
 170 595.5 145.5 620 145.5 650 c 0
-65 -114.5 m 1
 -54 -132.5 -36.5 -140 -22.5 -140.5 c 0
 13.5 -142.5 35.5 -98 41 -50 c 2
 128.5 460 l 1
 208 460 l 1
 119.5 -60.5 l 2
 105.5 -153 57.5 -221.5 -30.5 -219.5 c 0
 -69 -219 -99 -200.5 -117.5 -178.5 c 1
 -65 -114.5 l 1
EndSplineSet
EndChar

StartChar: P
Encoding: 80 80 50
Width: 531
VWidth: 0
Flags: HMW
LayerCount: 2
Fore
SplineSet
168.5 699.5 m 1
 254 700 l 1
 133 0 l 1
 51 0 l 1
 168.5 699.5 l 1
200.5 620 m 1
 215 700 l 1
 351.5 700 l 2
 478.5 700 569.5 614 550.5 489.5 c 0
 531 362.5 416.5 280 285.5 280 c 2
 142.5 280 l 1
 157 360 l 1
 293.5 360 l 1
 380 362 451.5 406.5 466.5 490 c 0
 480.5 571.5 426.5 619 343.5 619.5 c 2
 200.5 620 l 1
EndSplineSet
EndChar

StartChar: U
Encoding: 85 85 51
Width: 607
VWidth: 0
Flags: HMW
LayerCount: 2
Fore
SplineSet
165 700 m 1
 249 700 l 1
 167.5 230 l 2
 156 144.5 188.9895 70.5 286 70.5 c 0
 394 70.5 448.9625 139.8235 463.5 230 c 2
 544.5 700 l 1
 628.5 700 l 1
 548 230 l 2
 526.27 97.065 437.5 -9.5 279 -9.5 c 0
 138 -9.5 64.5 102 84.5 230 c 2
 165 700 l 1
EndSplineSet
EndChar

StartChar: S
Encoding: 83 83 52
Width: 531
VWidth: 0
Flags: HMW
LayerCount: 2
Fore
SplineSet
119 226 m 1
 144 142.5 180.5 71 268 70.5 c 0
 342.5 70 394.5 116 406.5 183 c 0
 421.5 268.5 348.5 308 276.5 338 c 0
 201 370 120.5 418 135.5 530.5 c 0
 152 635.5 244.5 709.5 361 709.5 c 0
 465 709.5 521 642 548.5 559 c 1
 475 514.5 l 1
 453.5 572 416 628 344 628.5 c 0
 279.5 629 232 587.5 222.5 529 c 0
 210 458 285.5 425.5 354.5 396 c 0
 432.5 361.5 509 300.5 494.5 189.5 c 0
 477.5 74 379 -9.5 255.5 -9.5 c 0
 141 -9.5 71 76 42.5 184 c 1
 119 226 l 1
EndSplineSet
EndChar

StartChar: at
Encoding: 64 64 53
Width: 747
VWidth: 0
Flags: HMW
LayerCount: 2
Fore
SplineSet
285.5 320 m 0
 278.5 272 294.5 232.5 347 230.5 c 0
 408.5 227.5 477.5 285.5 487.5 370 c 0
 494 418.5 471 458.5 421 459.5 c 0
 358 461 295.5 393 285.5 320 c 0
210.5 317.5 m 0
 225 436 329 532.5 427.5 529.5 c 0
 513 527.5 533 441 523 369.5 c 0
 508 251.5 425 159 321 160.5 c 0
 241.5 162 200 233 210.5 317.5 c 0
60.5 320 m 0
 93.5 530.5 270.5 711 493.5 710 c 0
 690 709 780 548 754 390 c 0
 737.5 252.5 639 145.5 540.5 150 c 0
 474.5 152.5 459 212 471.5 270.5 c 1
 464.5 270.5 l 1
 541.5 519.5 l 1
 617 519.5 l 1
 535.5 289 l 2
 533 281 529.5 270.5 528.5 262 c 0
 526 240.5 528.5 219.5 556.5 216.5 c 0
 606.5 207 675.5 302.5 684.5 390 c 0
 707 517 644.5 643 488.5 644.5 c 0
 302 646 159 494 130 320 c 0
 107.5 174.5 178.5 57.5 333.5 55.5 c 0
 405.5 54.5 473 71.5 539 107 c 1
 565 48.5 l 1
 497.5 13 427 -10 328.5 -9.5 c 0
 125.5 -8 33 136 60.5 320 c 0
EndSplineSet
EndChar

StartChar: period
Encoding: 46 46 54
Width: 291
VWidth: 0
Flags: HMW
LayerCount: 2
Fore
SplineSet
70.5 40 m 0
 70.5 70 95 94.5 125 94.5 c 0
 155 94.5 179.5 70 179.5 40 c 0
 179.5 10 155 -14.5 125 -14.5 c 0
 95 -14.5 70.5 10 70.5 40 c 0
EndSplineSet
EndChar

StartChar: comma
Encoding: 44 44 55
Width: 298
VWidth: 0
Flags: HMW
LayerCount: 2
Fore
SplineSet
133.5 109 m 5
 209.5 78 l 5
 60 -169 l 5
 4.5 -148 l 5
 133.5 109 l 5
EndSplineSet
EndChar

StartChar: colon
Encoding: 58 58 56
Width: 291
VWidth: 0
Flags: HMW
LayerCount: 2
Fore
SplineSet
70.5 40 m 0
 70.5 70 95 94.5 125 94.5 c 0
 155 94.5 179.5 70 179.5 40 c 0
 179.5 10 155 -14.5 125 -14.5 c 0
 95 -14.5 70.5 10 70.5 40 c 0
135.5 420 m 0
 135.5 450 160 474.5 190 474.5 c 0
 220 474.5 244.5 450 244.5 420 c 0
 244.5 390 220 365.5 190 365.5 c 0
 160 365.5 135.5 390 135.5 420 c 0
EndSplineSet
EndChar

StartChar: semicolon
Encoding: 59 59 57
Width: 320
VWidth: 0
Flags: HMW
LayerCount: 2
Fore
SplineSet
165 420 m 0
 165 450 189.5 474.5 219.5 474.5 c 0
 249.5 474.5 274 450 274 420 c 0
 274 390 249.5 365.5 219.5 365.5 c 0
 189.5 365.5 165 390 165 420 c 0
133.5 109 m 1
 209.5 78 l 1
 60 -169 l 1
 4.5 -148 l 1
 133.5 109 l 1
EndSplineSet
EndChar

StartChar: quotedbl
Encoding: 34 34 58
Width: 451
VWidth: 0
Flags: HMW
LayerCount: 2
Fore
SplineSet
215.5 699.5 m 1
 311.5 699.5 l 1
 176.5 401 l 1
 121.5 400.5 l 1
 215.5 699.5 l 1
390 699.5 m 1
 486 699.5 l 1
 351 401 l 1
 296 400.5 l 1
 390 699.5 l 1
EndSplineSet
EndChar

StartChar: exclam
Encoding: 33 33 59
Width: 291
VWidth: 0
Flags: HMW
LayerCount: 2
Fore
SplineSet
188 700 m 1
 288 700 l 1
 183.5 200.5 l 1
 123.5 200.5 l 1
 188 700 l 1
70.5 40 m 0
 70.5 70 95.5 95 125.5 95 c 0
 155.5 95 180.5 70 180.5 40 c 0
 180.5 10 155.5 -15 125.5 -15 c 0
 95.5 -15 70.5 10 70.5 40 c 0
EndSplineSet
EndChar

StartChar: quotesingle
Encoding: 39 39 60
Width: 276
VWidth: 0
Flags: HMW
LayerCount: 2
Fore
SplineSet
215.5 699.5 m 1
 311.5 699.5 l 1
 176.5 401 l 1
 121.5 400.5 l 1
 215.5 699.5 l 1
EndSplineSet
EndChar

StartChar: numbersign
Encoding: 35 35 61
Width: 587
VWidth: 0
Flags: HMW
LayerCount: 2
Fore
SplineSet
120.5 440.5 m 1
 131 504.5 l 1
 612.5 504.5 l 1
 602 440.5 l 1
 468 440 l 1
 454.5 440 l 1
 268 440 l 1
 254.5 440 l 1
 120.5 440.5 l 1
41 200.5 m 1
 51 264.5 l 1
 176.5 265 l 1
 192 265 l 1
 386 265 l 1
 405.5 265 l 1
 532.5 264.5 l 1
 522.5 200.5 l 1
 41 200.5 l 1
532 699.5 m 1
 609 699.5 l 1
 323 0 l 1
 247.5 0 l 1
 340.5 228 l 1
 348.5 246 l 1
 435.5 462 l 1
 442 478 l 1
 532 699.5 l 1
328 699.5 m 1
 405 699.5 l 1
 315.5 482 l 1
 309 466 l 1
 219 244 l 1
 212 226 l 1
 119 0 l 1
 45.5 0 l 1
 328 699.5 l 1
EndSplineSet
EndChar

StartChar: hyphen
Encoding: 45 45 62
Width: 203
VWidth: 0
Flags: HMW
LayerCount: 2
Fore
SplineSet
12 200.5 m 1
 24.5 275 l 1
 220.5 275 l 1
 207.5 200.5 l 1
 12 200.5 l 1
EndSplineSet
EndChar

StartChar: dollar
Encoding: 36 36 63
Width: 562
VWidth: 0
Flags: HMW
LayerCount: 2
Fore
SplineSet
359.5 817.5 m 1
 432.5 817.5 l 1
 409 668.5 l 1
 336.5 668.5 l 1
 359.5 817.5 l 1
241.5 47.5 m 1
 314 47.5 l 1
 289 -111.5 l 1
 216.5 -111.5 l 1
 241.5 47.5 l 1
490.5 514 m 1
 469 571 439 627.5 367.5 628.5 c 0
 297.5 629.5 248.5 594 239 534 c 0
 226.5 457.5 302 426 372.5 396 c 0
 450.5 362 528.5 301 515.5 189.5 c 0
 500 73 409 -10 280 -9.5 c 0
 165.5 -9 94 75.5 64 183.5 c 1
 139.5 226 l 1
 166 142 204.5 71 292 70.5 c 0
 366 70.5 417.5 116 428 183 c 0
 441.5 269 367 307.5 295 338 c 0
 219 370.5 138.5 429.5 152.5 540.5 c 0
 167 638 266.5 710 374 709.5 c 0
 477 709 540.5 637 563.5 559 c 1
 490.5 514 l 1
EndSplineSet
EndChar

StartChar: bar
Encoding: 124 124 64
Width: 265
VWidth: 0
Flags: HMW
LayerCount: 2
Fore
SplineSet
200 784.5 m 1
 273 784.5 l 1
 119.5 -214.5 l 1
 46.5 -214.5 l 1
 200 784.5 l 1
EndSplineSet
EndChar

StartChar: zero
Encoding: 48 48 65
Width: 582
VWidth: 0
Flags: HMW
LayerCount: 2
Fore
SplineSet
154.5 350 m 0
 140.5 228.5 150 72 273 70.5 c 0
 396 69 473.5 213.5 493 350 c 0
 507 471.5 497.5 628 374.5 629.5 c 0
 251.5 631 174 486.5 154.5 350 c 0
70.5 350 m 0
 96 531.5 212.5 710 382 709.5 c 0
 553.5 709 597.5 517.5 577 350 c 0
 551.5 168.5 435 -10 265.5 -9.5 c 0
 94 -9 50 182.5 70.5 350 c 0
EndSplineSet
Substitution2: "Tabular Numbers lookup" uniFF10
EndChar

StartChar: one
Encoding: 49 49 66
Width: 436
VWidth: 0
Flags: HMW
LayerCount: 2
Fore
SplineSet
144.5 561.5 m 1
 161 651 l 1
 406 710.5 l 1
 283.5 0 l 1
 199.5 0 l 1
 303.5 606.5 l 1
 144.5 561.5 l 1
EndSplineSet
Substitution2: "Tabular Numbers lookup" uniFF11
EndChar

StartChar: two
Encoding: 50 50 67
Width: 552
VWidth: 0
Flags: HMW
LayerCount: 2
Fore
SplineSet
2 0 m 1
 375.5 353 l 2
 422.5 398 462.5 446.5 472 506 c 0
 481.5 568 440 629.5 363 630.5 c 0
 269 632 212 553 195 460.5 c 1
 111.5 460.5 l 1
 134.5 597.5 224 711 370 710.5 c 0
 502.5 710 573 605 558 509 c 0
 547 432.5 497 361.5 438 307 c 2
 186.5 80.5 l 1
 495.5 80 l 1
 483 0 l 1
 2 0 l 1
EndSplineSet
Substitution2: "Tabular Numbers lookup" uniFF12
EndChar

StartChar: four
Encoding: 52 52 68
Width: 565
VWidth: 0
Flags: HMW
LayerCount: 2
Fore
SplineSet
16.5 141 m 1
 486.5 699 l 1
 522.5 699.5 l 1
 403 0 l 1
 319 0 l 1
 349.5 176 l 1
 351.5 187 l 1
 406 505.5 l 1
 167 215.5 l 1
 388 215 l 1
 404.5 215 l 1
 547.5 215 l 1
 535 140 l 1
 16.5 141 l 1
EndSplineSet
Substitution2: "Tabular Numbers lookup" uniFF14
EndChar

StartChar: slash
Encoding: 47 47 69
Width: 499
VWidth: 0
Flags: HMW
LayerCount: 2
Fore
SplineSet
497.5 699.5 m 1
 580 699.5 l 1
 40.5 -149.5 l 1
 -38.5 -149 l 1
 497.5 699.5 l 1
EndSplineSet
EndChar

StartChar: backslash
Encoding: 92 92 70
Width: 499
VWidth: 0
Flags: HMW
LayerCount: 2
Fore
SplineSet
106 700.5 m 1
 189 700 l 1
 457 0 l 1
 377.5 0 l 1
 106 700.5 l 1
EndSplineSet
EndChar

StartChar: eight
Encoding: 56 56 71
Width: 529
VWidth: 0
Flags: HMW
LayerCount: 2
Fore
SplineSet
140.5 531.5 m 0
 156 629.5 249.5 710 356 709.5 c 0
 460.5 709 530.5 626.5 516.5 530.5 c 0
 501 425.5 411.5 355.5 301.5 355.5 c 0
 193 355.5 125 428.5 140.5 531.5 c 0
218 521 m 0
 209 462.5 245 411.5 305 410.5 c 0
 366 409.5 425 460 435.5 521 c 0
 445 579.5 412.5 633.5 349 634.5 c 0
 284.5 635.5 228.5 583 218 521 c 0
58 190.5 m 0
 75.5 311 185 390 301.5 389.5 c 0
 415.5 389.5 499.5 308 482.5 189.5 c 0
 465 80 359.5 -10 239 -9.5 c 0
 121.5 -9 42 84 58 190.5 c 0
139 200 m 0
 127.5 125 174 66.5 246 65.5 c 0
 319 64.5 392.5 122 405 200 c 0
 415.5 268.5 369 333.5 298 334.5 c 0
 225.5 335.5 151.5 271.5 139 200 c 0
EndSplineSet
Substitution2: "Tabular Numbers lookup" uniFF18
EndChar

StartChar: nine
Encoding: 57 57 72
Width: 558
VWidth: 0
Flags: HMW
LayerCount: 2
Fore
SplineSet
487 470 m 0
 499.5 555 452 632 362.5 632.5 c 0
 271.5 633 196.5 559.5 182.5 470 c 0
 170 385 216.5 306 306.5 305.5 c 0
 397.5 305 473 380.5 487 470 c 0
223.5 0 m 1
 115 0 l 1
 373.5 288.5 l 1
 380.5 282 l 1
 350 255 315 243 272 243.5 c 0
 154.5 245 88.5 355 103 470 c 0
 121 605.5 233.5 709.5 369 709.5 c 0
 503.5 709.5 583.5 601 566.5 470 c 0
 559 414.5 535 364 502.5 325 c 2
 223.5 0 l 1
EndSplineSet
Substitution2: "Tabular Numbers lookup" uniFF19
EndChar

StartChar: three
Encoding: 51 51 73
Width: 529
VWidth: 0
Flags: HMW
LayerCount: 2
Fore
SplineSet
281.5 345.5 m 1
 289 400 l 1
 371 406 432.5 450 445.5 521 c 0
 454.5 580 428.5 631.5 362.5 632.5 c 0
 296 633.5 246.5 583.5 231 526.5 c 1
 150.5 527 l 1
 171 630.5 253.5 710 368 709.5 c 0
 479.5 709 545 621 531 523.5 c 0
 513.5 414.5 405.5 350 281.5 345.5 c 1
258.5 -9.5 m 0
 132 -9.5 60 75 68.5 185 c 1
 152.5 184.5 l 1
 149 119 189.5 71 265.5 70.5 c 0
 342.5 70 403.5 122.5 414.5 195 c 0
 428.5 281.5 360 320 278 325 c 1
 286 379.5 l 1
 410.5 375.5 517 319 498.5 184.5 c 0
 482.5 69 379 -9.5 258.5 -9.5 c 0
EndSplineSet
Substitution2: "Tabular Numbers lookup" uniFF13
EndChar

StartChar: five
Encoding: 53 53 74
Width: 547
VWidth: 0
Flags: HMW
LayerCount: 2
Fore
SplineSet
527.5 230 m 0
 508.5 84.5 393 -9.5 255 -9.5 c 0
 140.5 -9.5 72 53 32.5 138 c 1
 109 185.5 l 1
 134.5 124.5 188 71 262 70.5 c 0
 358.5 70 427 139.5 441 230 c 0
 453.5 316.5 405 387 316 389.5 c 0
 248.5 391.5 195.5 368 130.5 328 c 1
 276 700 l 1
 598.5 700 l 1
 586 625 l 1
 331.5 625 l 1
 254 440 l 1
 287 455 322 465.5 357.5 465.5 c 0
 481.5 465 542.5 351.5 527.5 230 c 0
EndSplineSet
Substitution2: "Tabular Numbers lookup" uniFF15
EndChar

StartChar: six
Encoding: 54 54 75
Width: 558
VWidth: 0
Flags: HMW
LayerCount: 2
Fore
SplineSet
145.5 230 m 0
 133 145 180.5 68 270 67.5 c 0
 361 67 436 140.5 450 230 c 0
 462.5 315 416 394 326 394.5 c 0
 235 395 159.5 319.5 145.5 230 c 0
409 699.5 m 1
 517.5 699.5 l 1
 259 411.5 l 1
 252 418 l 1
 282.5 445 317.5 457 360.5 456.5 c 0
 478 455 544 345 529.5 230 c 0
 511.5 94.5 399 -9.5 263.5 -9.5 c 0
 129 -9.5 49 99 66 230 c 0
 73.5 285.5 97.5 336 130 375 c 2
 409 699.5 l 1
EndSplineSet
Substitution2: "Tabular Numbers lookup" uniFF16
EndChar

StartChar: seven
Encoding: 55 55 76
Width: 509
VWidth: 0
Flags: HMW
LayerCount: 2
Fore
SplineSet
106 620 m 1
 119 700 l 1
 597.5 699.5 l 1
 163.5 0 l 1
 73.5 0 l 1
 458 619.5 l 1
 106 620 l 1
EndSplineSet
Substitution2: "Tabular Numbers lookup" uniFF17
EndChar

StartChar: plus
Encoding: 43 43 77
Width: 596
VWidth: 0
Flags: HMW
LayerCount: 2
Fore
SplineSet
73 215.5 m 1
 86 295 l 1
 558.5 295 l 1
 545 215 l 1
 73 215.5 l 1
314 499.5 m 1
 399.5 500 l 1
 314 10 l 1
 232 10.5 l 1
 314 499.5 l 1
EndSplineSet
EndChar

StartChar: equal
Encoding: 61 61 78
Width: 596
VWidth: 0
Flags: HMW
LayerCount: 2
Fore
SplineSet
60.5 140.5 m 1
 72.5 215 l 1
 545 215 l 1
 532 140 l 1
 60.5 140.5 l 1
86 290.5 m 1
 98 365 l 1
 570.5 365 l 1
 558 290 l 1
 86 290.5 l 1
EndSplineSet
EndChar

StartChar: percent
Encoding: 37 37 79
Width: 728
VWidth: 0
Flags: HMW
LayerCount: 2
Fore
SplineSet
100 550.5 m 0
 113 636.5 186 709.5 278.5 709.5 c 0
 370.5 709.5 420.5 633 408.5 549.5 c 0
 395.5 463.5 322 390.5 229.5 390.5 c 0
 137.5 390.5 88 467 100 550.5 c 0
169.5 550 m 0
 162.5 504.5 183 457 235.5 455.5 c 0
 288.5 454 330.5 502 338.5 550 c 0
 345.5 595.5 325.5 643 273 644.5 c 0
 220 646 177.5 598 169.5 550 c 0
386 150.5 m 0
 399 236.5 472 309.5 564.5 309.5 c 0
 656.5 309.5 706 233 694 149.5 c 0
 681 63.5 608 -9.5 515.5 -9.5 c 0
 423.5 -9.5 374 67 386 150.5 c 0
455.5 150 m 0
 448.5 104.5 469 57 521.5 55.5 c 0
 574.5 54 616.5 102 624.5 150 c 0
 631.5 195.5 611 243 558.5 244.5 c 0
 505.5 246 463.5 198 455.5 150 c 0
636.5 699.5 m 1
 714.5 699.5 l 1
 157 0 l 1
 82 0 l 1
 636.5 699.5 l 1
EndSplineSet
EndChar

StartChar: ampersand
Encoding: 38 38 80
Width: 655
VWidth: 0
Flags: HMW
LayerCount: 2
Fore
SplineSet
259.5 384 m 2
 228 430.5 172.5 485 181 556.5 c 0
 192.5 647.5 274.5 711 369.5 710.5 c 0
 465.5 710 523.5 637.5 511.5 553.5 c 0
 499 476 426 417.5 342 370 c 0
 264 326.5 149 288 133.5 188 c 0
 122.5 115 177.5 66 252.5 64.5 c 0
 393.5 61 515.5 201.5 614 315 c 1
 671 275.5 l 1
 556.5 146 424.5 -11.5 241.5 -9.5 c 0
 130.5 -8.5 34 68.5 49 183 c 0
 66.5 320 204 371 291 417 c 0
 357.5 453 421.5 497.5 432 554 c 0
 438.5 600.5 414 638.5 363 639.5 c 0
 311.5 640.5 270.5 603.5 263.5 556 c 0
 255.5 509 293.5 468 324 425 c 2
 617.5 0 l 1
 527.5 0 l 1
 259.5 384 l 2
EndSplineSet
EndChar

StartChar: question
Encoding: 63 63 81
Width: 540
VWidth: 0
Flags: HMW
LayerCount: 2
Fore
SplineSet
461.5 500 m 0
 475 578.5 429.5 634 345 634.5 c 0
 279 635 229 598 190.5 552.5 c 1
 131.5 594.5 l 1
 188 661 254.5 710.5 362 709.5 c 0
 482.5 708.5 558.5 612.5 541.5 499.5 c 0
 522.5 383 415.5 303.5 301.5 290 c 1
 272.5 170.5 l 1
 213.5 170.5 l 1
 222.5 345 l 1
 247 345 l 1
 355 347.5 444 415 461.5 500 c 0
168 40 m 0
 168 69.86915 192.41 94.5 222.5 94.5 c 0
 253.5 94.5 277 68.3418 277 40 c 0
 277 10 252.5 -14.5 222.5 -14.5 c 0
 191.417 -14.5 168 11 168 40 c 0
EndSplineSet
EndChar

StartChar: parenleft
Encoding: 40 40 82
Width: 300
VWidth: 0
Flags: HMW
LayerCount: 2
Fore
SplineSet
300.5 779 m 1
 375 779 l 1
 286.5 629.5 230.5 462.5 203 290 c 0
 178.5 125.5 179.5 -42.5 224.5 -200.5 c 1
 152 -200.5 l 1
 98 -43 90 125.5 114 290 c 0
 141 464 202 632 300.5 779 c 1
EndSplineSet
EndChar

StartChar: parenright
Encoding: 41 41 83
Width: 300
VWidth: 0
Flags: HMW
LayerCount: 2
Fore
SplineSet
55.5 -199 m 1
 -19 -199 l 1
 69.5 -49.5 125.5 117.5 153 290 c 0
 177.5 454.5 176 622.5 131 780.5 c 1
 204 780.5 l 1
 258 623 266 454.5 242 290 c 0
 215 116 154 -52 55.5 -199 c 1
EndSplineSet
EndChar

StartChar: asterisk
Encoding: 42 42 84
Width: 574
VWidth: 0
Flags: HMW
LayerCount: 2
Fore
SplineSet
532 598.5 m 1
 541.5 531.5 l 1
 350.5 481.5 l 1
 342.5 530 l 1
 532 598.5 l 1
462 366.5 m 1
 400.5 327 l 1
 324 491 l 1
 366.5 520 l 1
 462 366.5 l 1
234 328 m 1
 183 370 l 1
 328 519 l 1
 364 488 l 1
 234 328 l 1
160 533 m 1
 191 598 l 1
 359 528.5 l 1
 336 482 l 1
 160 533 l 1
345.5 699.5 m 1
 414.5 699.5 l 1
 371 505.5 l 1
 321.5 505.5 l 1
 345.5 699.5 l 1
EndSplineSet
EndChar

StartChar: less
Encoding: 60 60 85
Width: 621
VWidth: 0
Flags: HMW
LayerCount: 2
Fore
SplineSet
209 258.5 m 1
 548 91 l 1
 534.5 16 l 1
 75.5 235.5 l 1
 83 280 l 1
 618.5 501 l 1
 604 417.5 l 1
 209 258.5 l 1
EndSplineSet
EndChar

StartChar: greater
Encoding: 62 62 86
Width: 621
VWidth: 0
Flags: HMW
LayerCount: 2
Fore
SplineSet
445.5 256.5 m 1
 107 424 l 1
 120.5 499 l 1
 579 279.5 l 1
 572 235 l 1
 36.5 14 l 1
 50.5 97.5 l 1
 445.5 256.5 l 1
EndSplineSet
EndChar

StartChar: bracketleft
Encoding: 91 91 87
Width: 291
VWidth: 0
Flags: HMW
LayerCount: 2
Fore
SplineSet
267 705 m 1
 135 -145 l 1
 233.5 -145 l 1
 221.5 -220 l 1
 45 -220 l 1
 199.5 780 l 1
 376 780 l 1
 364.5 705.5 l 1
 267 705 l 1
EndSplineSet
EndChar

StartChar: bracketright
Encoding: 93 93 88
Width: 291
VWidth: 0
Flags: HMW
LayerCount: 2
Fore
SplineSet
76.5 -145 m 1
 208 705 l 1
 110 705 l 1
 122 780 l 1
 298 780 l 1
 143.5 -220 l 1
 -33 -220 l 1
 -21.5 -145.5 l 1
 76.5 -145 l 1
EndSplineSet
EndChar

StartChar: asciicircum
Encoding: 94 94 89
Width: 494
VWidth: 0
Flags: HMW
LayerCount: 2
Fore
SplineSet
329 620.5 m 1
 194 460.5 l 1
 111.5 460.5 l 1
 320 709.5 l 1
 359.5 710 l 1
 483 459.5 l 1
 407 459.5 l 1
 329 620.5 l 1
EndSplineSet
EndChar

StartChar: underscore
Encoding: 95 95 90
Width: 485
VWidth: 0
Flags: HMW
LayerCount: 2
Fore
SplineSet
-50 -132.5 m 1
 -41.5 -78.5 l 1
 445 -78.5 l 1
 436.5 -132.5 l 1
 -50 -132.5 l 1
EndSplineSet
EndChar

StartChar: grave
Encoding: 96 96 91
Width: 363
VWidth: 0
Flags: HMW
LayerCount: 2
Fore
SplineSet
156.5 661 m 1
 234.5 700 l 1
 358 539 l 1
 311 510.5 l 1
 156.5 661 l 1
EndSplineSet
EndChar

StartChar: braceleft
Encoding: 123 123 92
Width: 301
VWidth: 0
Flags: HMW
LayerCount: 2
Fore
SplineSet
258 660 m 2
 232 490 l 2
 217 397 197.5 292.5 89 280.5 c 1
 91.5 300 l 1
 196.5 284.5 182 174 170 90 c 2
 143 -80.5 l 2
 138.5 -107.5 152 -129 181.5 -129.5 c 2
 217 -129.5 l 1
 206.5 -200 l 1
 149 -200 l 2
 91 -200.5 60 -136.5 68.5 -60 c 2
 101 150 l 2
 107.5 210 101.5 237.5 70.5 260 c 1
 79.5 320 l 1
 116 338.5 135 368 143 430 c 2
 175 640.5 l 2
 186 721.5 238.5 779.5 296.5 779.5 c 2
 356.5 779.5 l 1
 346.5 710 l 1
 313 710 l 2
 281.5 710 263 689 258 660 c 2
EndSplineSet
EndChar

StartChar: braceright
Encoding: 125 125 93
Width: 301
VWidth: 0
Flags: HMW
LayerCount: 2
Fore
SplineSet
107.5 -80 m 2
 133.5 90 l 2
 148.5 183 168.5 287.5 277 299.5 c 1
 274 280 l 1
 169 295.5 183.5 406 195.5 490 c 2
 222.5 660.5 l 2
 227 687.5 213.5 709 184 709.5 c 2
 149 710 l 1
 159 780 l 1
 216.5 780 l 2
 274.5 780 305.5 716.5 297 640 c 2
 264.5 430 l 2
 258 370 264 342.5 295 320 c 1
 286 260 l 1
 249.5 241.5 230.5 212 222.5 150 c 2
 190.5 -60.5 l 2
 179.5 -141.5 127.5 -199.5 69.5 -199.5 c 2
 9 -199.5 l 1
 19.5 -130 l 1
 52.5 -130 l 2
 84 -130 102.5 -109 107.5 -80 c 2
EndSplineSet
EndChar

StartChar: asciitilde
Encoding: 126 126 94
Width: 558
VWidth: 0
Flags: HMW
LayerCount: 2
Fore
SplineSet
148.5 176 m 1
 76.5 181 l 1
 76 188.5 75.5 197 76.5 205.5 c 0
 80.5 228.5 92 253.5 110 275 c 0
 137.5 307 177 326.5 219 326.5 c 0
 259 326.5 295.5 307.5 331.5 279 c 0
 354 261 376.5 247 396.5 247.5 c 0
 424 248 441.5 269 446.5 296 c 0
 448.5 304 448 313.5 446 323 c 1
 523 318 l 1
 523.5 309.5 524.5 299 523 289.5 c 0
 519.5 267 509 240 491.5 219 c 0
 466 189 431 172 394.5 172.5 c 0
 358.5 173 325 192.5 289.5 220 c 0
 264.5 239.5 238 253 212 252.5 c 0
 178 252 154.5 230 148.5 198 c 0
 147 191 147.5 183.5 148.5 176 c 1
EndSplineSet
EndChar

StartChar: exclamdown
Encoding: 161 161 95
Width: 291
VWidth: 0
Flags: HMW
LayerCount: 2
Fore
SplineSet
126.5 -245 m 1
 26.5 -245 l 1
 132 254.5 l 1
 191.5 254.5 l 1
 126.5 -245 l 1
243 414 m 0
 240 387 208.5 359 181 360.5 c 0
 152.5 362 132.5 388 135.5 416 c 0
 138.5 443 170 471 197.5 469.5 c 0
 226 468 246 442 243 414 c 0
EndSplineSet
EndChar

StartChar: cent
Encoding: 162 162 96
Width: 562
VWidth: 0
Flags: HMW
LayerCount: 2
Fore
SplineSet
250.5 37.5 m 1
 314 37.5 l 1
 288 -111.5 l 1
 225 -111.5 l 1
 250.5 37.5 l 1
169.5 230 m 0
 156 145 201 67 291 65.5 c 0
 363 64.5 427 103.5 463 148 c 1
 447.5 48.5 l 1
 406.5 12.5 346 -9.5 283.5 -9.5 c 0
 149.5 -9 71.5 102.5 90 230 c 0
 110 363 224 469 360 469.5 c 0
 419 469.5 473.5 449 508 410.5 c 1
 492 311 l 1
 472 361 419.5 395 353 394.5 c 0
 261.5 394 185 320 169.5 230 c 0
343 577.5 m 1
 406 577.5 l 1
 380 428.5 l 1
 317 428.5 l 1
 343 577.5 l 1
EndSplineSet
EndChar

StartChar: sterling
Encoding: 163 163 97
Width: 562
VWidth: 0
Flags: HMW
LayerCount: 2
Fore
SplineSet
100.5 370 m 1
 451.5 370 l 1
 438 295 l 1
 87 295 l 1
 100.5 370 l 1
492 479.5 m 1
 496 546.5 478 624 394 625.5 c 0
 331 627 271 587.5 259 520 c 0
 242 419.5 321 362.5 308 263.5 c 0
 293 160 214 78.5 128.5 51 c 1
 135 80 l 1
 489.5 80 l 1
 475 0 l 1
 35 0 l 1
 125 87.5 207 150 225.5 249 c 0
 240.5 341 159 405 173 518.5 c 0
 189.5 631 286.5 710.5 402.5 709.5 c 0
 526 708.5 571 595.5 566 508 c 1
 492 479.5 l 1
EndSplineSet
EndChar

StartChar: currency
Encoding: 164 164 98
Width: 562
VWidth: 0
Flags: HMW
LayerCount: 2
Fore
SplineSet
94 504.5 m 1
 150 552.5 l 1
 226.5 457.5 l 1
 171.5 410.5 l 1
 94 504.5 l 1
66.5 47.5 m 1
 24.5 99 l 1
 131 189.5 l 1
 172.5 139 l 1
 66.5 47.5 l 1
480 410.5 m 1
 437.5 461 l 1
 544.5 552.5 l 1
 585.5 501 l 1
 480 410.5 l 1
383.5 142.5 m 1
 439.5 189.5 l 1
 516 95.5 l 1
 461 47.5 l 1
 383.5 142.5 l 1
73.5 300 m 0
 93.5 432 208 539.5 343.5 539.5 c 0
 477.5 539.5 556 427.5 537.5 300 c 0
 517.5 168 403 60.5 267.5 60.5 c 0
 133.5 60.5 55 172.5 73.5 300 c 0
153.5 300 m 0
 140 215.5 184 136 274.5 135.5 c 0
 366 135 442.5 210.5 457.5 300 c 0
 471 384.5 427 464 336.5 464.5 c 0
 245 465 168.5 389.5 153.5 300 c 0
EndSplineSet
EndChar

StartChar: yen
Encoding: 165 165 99
Width: 562
VWidth: 0
Flags: HMW
LayerCount: 2
Fore
SplineSet
66.5 290.5 m 1
 79 365 l 1
 551 365 l 1
 538.5 290 l 1
 66.5 290.5 l 1
41 140.5 m 1
 53 215 l 1
 525.5 215 l 1
 513 140 l 1
 41 140.5 l 1
548 699.5 m 1
 643.5 699.5 l 1
 349.5 303.5 l 1
 297.5 0 l 1
 212 0 l 1
 266 306 l 1
 108 700 l 1
 198.5 700 l 1
 317 377.5 l 1
 548 699.5 l 1
EndSplineSet
EndChar

StartChar: brokenbar
Encoding: 166 166 100
Width: 265
VWidth: 0
Flags: HMW
LayerCount: 2
Fore
SplineSet
188 694.5 m 1
 261 694.5 l 1
 220 455.5 l 1
 147 455.5 l 1
 188 694.5 l 1
184 244.5 m 1
 143 5.5 l 1
 70 5.5 l 1
 111 244.5 l 1
 184 244.5 l 1
EndSplineSet
EndChar

StartChar: section
Encoding: 167 167 101
Width: 395
VWidth: 0
Flags: HMW
LayerCount: 2
Fore
SplineSet
374.5 579.5 m 1
 356 614.5 324.5 633.5 286.5 633.5 c 0
 252 633.5 214 619.5 208.5 588.5 c 0
 201 549 261.5 524.5 301 506 c 0
 359.5 478 412.5 435 403.5 369.5 c 0
 390.5 273 310 244 217.5 241 c 1
 223 275 l 1
 270 282 314.5 318.5 321.5 363 c 0
 328.5 412.5 282.5 434 237.5 454.5 c 0
 179.5 481.5 119.5 517 130 589.5 c 0
 141 663.5 220 709 293 709.5 c 0
 362 710 423 675 442 619 c 1
 374.5 579.5 l 1
92 160.5 m 1
 99.5 107.5 133 66 190 65.5 c 0
 234 65 273 84.5 280 123.5 c 0
 289 173 240.5 194.5 196.5 215 c 0
 137.5 243 80 287 90.5 359.5 c 0
 104.5 442.5 178 476 276.5 479 c 1
 272 453.5 l 1
 220 435 179.5 413.5 170.5 369 c 0
 160 308 214 288 260 266 c 0
 318.5 238 371 195 362.5 129.5 c 0
 351 36.5 270 -10.5 177.5 -9.5 c 0
 94 -8.5 31.5 47 22.5 123.5 c 1
 92 160.5 l 1
EndSplineSet
EndChar

StartChar: dieresis
Encoding: 168 168 102
Width: 456
VWidth: 0
Flags: HMW
LayerCount: 2
Fore
SplineSet
355.5 661 m 0
 358 688 389.5 716 417 714.5 c 0
 445.5 713 466 687 463.5 659 c 0
 461 632 429.5 604 402 605.5 c 0
 373.5 607 353 633 355.5 661 c 0
161.5 661 m 0
 164 688 195.5 716 223 714.5 c 0
 251.5 713 272 687 269.5 659 c 0
 267 632 235.5 604 208 605.5 c 0
 179.5 607 159 633 161.5 661 c 0
EndSplineSet
EndChar

StartChar: copyright
Encoding: 169 169 103
Width: 776
VWidth: 0
Flags: HMW
LayerCount: 2
Fore
SplineSet
269 350 m 0
 256.5 263.5 303 186.5 392.5 185.5 c 0
 450 184.5 498.5 212 535 246 c 1
 525.5 179.5 l 1
 486.5 151 445.5 134 389.5 134.5 c 0
 273 135 200.5 236 215.5 350 c 0
 231.5 468.5 333 564.5 451 565.5 c 0
 505 566 543 550 578 519.5 c 1
 568 453 l 1
 540.5 490.5 501.5 514.5 448 514.5 c 0
 357.5 514.5 283 441 269 350 c 0
129.5 350 m 0
 106 188.5 203 41 374.5 40.5 c 0
 549 40 694.5 180.5 720.5 350 c 0
 744 511.5 647 659 475.5 659.5 c 0
 301 660 155.5 519.5 129.5 350 c 0
74.5 350 m 0
 102.5 550 273 710.5 477.5 710 c 0
 678.5 709.5 800.5 542.5 775 350 c 0
 747 150 577 -10.5 372.5 -10 c 0
 171.5 -9.5 49 157.5 74.5 350 c 0
EndSplineSet
EndChar

StartChar: registered
Encoding: 174 174 104
Width: 776
VWidth: 0
Flags: HMW
LayerCount: 2
Fore
SplineSet
375.5 357.5 m 1
 430.5 357.5 l 1
 546.5 149.5 l 1
 485.5 149.5 l 1
 375.5 357.5 l 1
336 569.5 m 1
 386.5 569.5 l 1
 322 150.5 l 1
 271.5 150.5 l 1
 336 569.5 l 1
356 525 m 1
 363 569.5 l 1
 445.5 570 l 1
 521 568 577.5 518.5 567.5 443.5 c 0
 557 367.5 487.5 320.5 410 318.5 c 1
 324.5 318.5 l 1
 331 362.5 l 1
 413.5 363 l 1
 464.5 365 509.5 393.5 517 444 c 0
 524 493 490.5 522 441.5 524.5 c 1
 356 525 l 1
129.5 350 m 0
 106 188.5 203 41 374.5 40.5 c 0
 549 40 694.5 180.5 720.5 350 c 0
 744 511.5 647 659 475.5 659.5 c 0
 301 660 155.5 519.5 129.5 350 c 0
74.5 350 m 0
 102.5 549.5 273 710.5 477.5 710 c 0
 678.5 709.5 800.5 542.5 775 350 c 0
 747 150.5 577 -10.5 372.5 -10 c 0
 171.5 -9.5 49 157.5 74.5 350 c 0
EndSplineSet
EndChar

StartChar: ordfeminine
Encoding: 170 170 105
Width: 230
VWidth: 0
Flags: HMW
LayerCount: 2
Fore
SplineSet
122.5 531.5 m 0
 120 510 133.5 492.5 162 491.5 c 0
 199 489.5 228.5 514.5 239.5 549.5 c 1
 243.5 524 l 1
 231.5 484 197 454.5 149 455.5 c 0
 107 456.5 76 488.5 82.5 533 c 0
 90 580 142 612.5 190 612.5 c 0
 226 612.5 248 595.5 261.5 582.5 c 1
 257.5 559 l 1
 237 573 217 583.5 190.5 583 c 0
 159 582.5 126 560 122.5 531.5 c 0
143 646 m 1
 129 678 l 1
 151.5 690.5 181 705.5 217.5 705 c 0
 264.5 704.5 297 678.5 293 634.5 c 1
 263.5 460.5 l 1
 223.5 460.5 l 1
 254.5 635 l 1
 251.5 656 239 667.5 215 669 c 0
 186 670.5 159.5 655 143 646 c 1
EndSplineSet
EndChar

StartChar: ordmasculine
Encoding: 186 186 106
Width: 269
VWidth: 0
Flags: HMW
LayerCount: 2
Fore
SplineSet
90.5 580.5 m 0
 100 646 158 700 225 699.5 c 0
 292 699 332 644 323 579.5 c 0
 313.5 514 255.5 460 188.5 460.5 c 0
 121.5 461 81.5 516 90.5 580.5 c 0
130 580 m 0
 123.5 538.5 146.5 499 190.5 498.5 c 0
 235.5 498 276 536 283.5 580 c 0
 290 621.5 267 661 223 661.5 c 0
 178 662 137.5 624 130 580 c 0
EndSplineSet
EndChar

StartChar: guillemotleft
Encoding: 171 171 107
Width: 494
VWidth: 0
Flags: HMW
LayerCount: 2
Fore
SplineSet
298.5 258.5 m 1
 411.5 64 l 1
 356.5 20 l 1
 210.5 258 l 1
 433.5 489.5 l 1
 476.5 443.5 l 1
 298.5 258.5 l 1
143 258.5 m 1
 256.5 64 l 1
 201 20 l 1
 55 258 l 1
 278 489.5 l 1
 321.5 443.5 l 1
 143 258.5 l 1
EndSplineSet
EndChar

StartChar: guillemotright
Encoding: 187 187 108
Width: 494
VWidth: 0
Flags: HMW
LayerCount: 2
Fore
SplineSet
229 251.5 m 1
 116 446 l 1
 171 490 l 1
 317.5 252 l 1
 94.5 20.5 l 1
 51 66.5 l 1
 229 251.5 l 1
384.5 251.5 m 1
 271.5 446 l 1
 326.5 490 l 1
 472.5 252 l 1
 249.5 20.5 l 1
 206.5 66.5 l 1
 384.5 251.5 l 1
EndSplineSet
EndChar

StartChar: uni00AD
Encoding: 173 173 109
Width: 203
VWidth: 0
Flags: HMW
LayerCount: 2
Fore
SplineSet
12 200.5 m 1
 24.5 275 l 1
 220.5 275 l 1
 207.5 200.5 l 1
 12 200.5 l 1
EndSplineSet
EndChar

StartChar: logicalnot
Encoding: 172 172 110
Width: 601
VWidth: 0
Flags: HMW
LayerCount: 2
Fore
SplineSet
86 300 m 1
 99.5 375 l 1
 577 375 l 1
 541.5 175.5 l 1
 467.5 175.5 l 1
 489.5 300 l 1
 86 300 l 1
EndSplineSet
EndChar

StartChar: macron
Encoding: 175 175 111
Width: 494
VWidth: 0
Flags: HMW
LayerCount: 2
Fore
SplineSet
153 600 m 1
 164.5 675 l 1
 505.5 675 l 1
 494 600 l 1
 153 600 l 1
EndSplineSet
EndChar

StartChar: degree
Encoding: 176 176 112
Width: 269
VWidth: 0
Flags: HMW
LayerCount: 2
Fore
SplineSet
94 600.5 m 0
 103.5 666 161.5 720 228.5 719.5 c 0
 295.5 719 335.5 664 326.5 599.5 c 0
 317 534 259 480 192 480.5 c 0
 125 481 85 536 94 600.5 c 0
133.5 600 m 0
 127 558.5 150 519 194 518.5 c 0
 239 518 279.5 556 287 600 c 0
 293.5 641.5 270.5 681 226.5 681.5 c 0
 181.5 682 141 644 133.5 600 c 0
EndSplineSet
EndChar

StartChar: plusminus
Encoding: 177 177 113
Width: 596
VWidth: 0
Flags: HMW
LayerCount: 2
Fore
SplineSet
46.5 0 m 1
 58 80 l 1
 530.5 80 l 1
 518 0 l 1
 46.5 0 l 1
99.5 345 m 1
 111.5 425 l 1
 583.5 425 l 1
 571 345 l 1
 99.5 345 l 1
334 620 m 1
 419.5 620 l 1
 345.5 150 l 1
 263.5 150.5 l 1
 334 620 l 1
EndSplineSet
EndChar

StartChar: uni00B2
Encoding: 178 178 114
Width: 335
VWidth: 0
Flags: HMW
LayerCount: 2
Fore
SplineSet
45 283 m 1
 271.5 494 l 2
 300 520.5 326 550 332 586 c 0
 337.5 622 319 658.5 273.5 660.5 c 0
 216.5 663.5 178.5 613 166 559 c 1
 115 559 l 1
 132 640 188.5 709.5 277 708.5 c 0
 358.5 708 392.5 641.5 382.5 581.5 c 0
 375 536.5 345 498.5 310 466 c 2
 158 330.5 l 1
 341 329.5 l 1
 333 282.5 l 1
 45 283 l 1
EndSplineSet
EndChar

StartChar: uni00B3
Encoding: 179 179 115
Width: 302
VWidth: 0
Flags: HMW
LayerCount: 2
Fore
SplineSet
192.5 488 m 1
 198 520 l 1
 247 525 285.5 549.5 294 593 c 0
 299.5 628 283.5 658 245 659.5 c 0
 205.5 661.5 175.5 629.5 165 597 c 1
 115.5 597.5 l 1
 130.5 657.5 179.5 706.5 248.5 705.5 c 0
 315.5 704.5 354 651.5 344.5 593.5 c 0
 333 528 266.5 492.5 192.5 488 c 1
176.5 274.5 m 0
 99 274.5 59.5 325.5 63 391 c 1
 113.5 391 l 1
 113.5 352.5 133.5 323.5 179.5 322.5 c 0
 225 321.5 264.5 354.5 271 397.5 c 0
 279.5 450 238.5 470.5 190 475 c 1
 195.5 507.5 l 1
 270 503.5 334 471.5 322 390.5 c 0
 312 322 248 274.5 176.5 274.5 c 0
EndSplineSet
EndChar

StartChar: acute
Encoding: 180 180 116
Width: 363
VWidth: 0
Flags: HMW
LayerCount: 2
Fore
SplineSet
376.5 658 m 1
 179.5 511 l 1
 138 541.5 l 1
 307 699.5 l 1
 376.5 658 l 1
EndSplineSet
EndChar

StartChar: mu
Encoding: 181 181 117
Width: 509
VWidth: 0
Flags: HMW
LayerCount: 2
Fore
SplineSet
330.5 0 m 1
 410 460 l 1
 489.5 460 l 1
 410 0 l 1
 330.5 0 l 1
154 180 m 2
 146.5 117.5 161 67 226.5 65.5 c 0
 297 64 346 118.5 362 179 c 1
 398.5 179 l 1
 378.5 80 301.5 -9.5 200 -9.5 c 0
 100 -9.5 62 69.5 74 170 c 1
 124.5 460 l 1
 201.5 459.5 l 1
 154 180 l 2
122.5 459.5 m 1
 203.5 460 l 1
 68.5 -320 l 1
 -8.5 -319.5 l 1
 122.5 459.5 l 1
EndSplineSet
EndChar

StartChar: paragraph
Encoding: 182 182 118
Width: 560
VWidth: 0
Flags: HMW
LayerCount: 2
Fore
SplineSet
360.5 635.5 m 1
 371 699.5 l 1
 566 699.5 l 1
 555.5 635.5 l 1
 360.5 635.5 l 1
526.5 699.5 m 1
 595.5 699.5 l 1
 439 -219.5 l 1
 370 -219.5 l 1
 526.5 699.5 l 1
371 699.5 m 1
 440 699.5 l 1
 283.5 -219.5 l 1
 214.5 -219.5 l 1
 371 699.5 l 1
300 270.5 m 1
 177.5 277 93.6515 356.1115 113 485.5 c 0
 134 620 243 699.5 371 699.5 c 1
 300 270.5 l 1
EndSplineSet
EndChar

StartChar: periodcentered
Encoding: 183 183 119
Width: 291
VWidth: 0
Flags: HMW
LayerCount: 2
Fore
SplineSet
105.5 241 m 0
 108.5 268 140 296 167.5 294.5 c 0
 196 293 216.5 267 213.5 239 c 0
 210.5 212 178.5 184 151 185.5 c 0
 122.5 187 102.5 213 105.5 241 c 0
EndSplineSet
EndChar

StartChar: uni00B9
Encoding: 185 185 120
Width: 456
VWidth: 0
Flags: HMW
LayerCount: 2
Fore
SplineSet
225 612 m 1
 233 664 l 1
 381.5 700.5 l 1
 307.5 274.5 l 1
 257 274.5 l 1
 318 637.5 l 1
 225 612 l 1
EndSplineSet
EndChar

StartChar: cedilla
Encoding: 184 184 121
Width: 339
VWidth: 0
Flags: HMW
LayerCount: 2
Fore
SplineSet
172 59 m 1
 233 59 l 1
 151 -52 l 1
 153.5 -52 155.5 -52 158 -52 c 0
 194 -55.5 223.5 -83 219 -127 c 0
 212.5 -184 154 -220 100.5 -219.5 c 0
 65 -219.5 43 -206 18 -180.5 c 1
 55.5 -142.5 l 1
 71.5 -156 83 -166 105.5 -166 c 0
 133 -166 160 -148.5 163 -125.5 c 0
 166 -103 148 -90.5 122 -90 c 0
 106.5 -89 82 -96.5 62 -107 c 1
 172 59 l 1
EndSplineSet
EndChar

StartChar: questiondown
Encoding: 191 191 122
Width: 540
VWidth: 0
Flags: HMW
LayerCount: 2
Fore
SplineSet
144 200 m 0
 130.5 121.5 176 66 260.5 65.5 c 0
 326.5 65 377 102 415.5 147.5 c 1
 474.5 105.5 l 1
 418 39 351.5 -10.5 244 -9.5 c 0
 123.5 -8.5 47.5 87.5 64.5 200.5 c 0
 83.5 317 190.5 396.5 304.5 410 c 1
 333 529.5 l 1
 392.5 530 l 1
 383.5 355 l 1
 359 355 l 1
 251 352.5 161.5 285 144 200 c 0
437.5 659 m 0
 434.5 632 402.5 604 375 605.5 c 0
 346.5 607 326.5 633 329.5 661 c 0
 332.5 688 364 716 391.5 714.5 c 0
 420 713 440.5 687 437.5 659 c 0
EndSplineSet
EndChar

StartChar: multiply
Encoding: 215 215 123
Width: 578
VWidth: 0
Flags: HMW
LayerCount: 2
Fore
SplineSet
95.5 22 m 1
 49 81 l 1
 256.5 257 l 1
 109.5 434.5 l 1
 171.5 488 l 1
 312 307 l 1
 515.5 488 l 1
 562 429 l 1
 354.5 253 l 1
 501.5 75.5 l 1
 439.5 22 l 1
 299 203 l 1
 95.5 22 l 1
EndSplineSet
EndChar

StartChar: Oslash
Encoding: 216 216 124
Width: 766
VWidth: 0
Flags: HMW
LayerCount: 2
Fore
SplineSet
159.5 350 m 0
 137.5 209 213 76.5 366 75.5 c 0
 521 74.5 647.5 201 672.5 350 c 0
 694.5 491 619 623.5 466 624.5 c 0
 311 625.5 184.5 499 159.5 350 c 0
70.5 350 m 0
 101 546 270 710.5 474.5 710 c 0
 676 709.5 789 537.5 761.5 350 c 0
 731 154 562 -10.5 357.5 -10 c 0
 156 -9.5 43 162.5 70.5 350 c 0
766.5 749.5 m 1
 820 708.5 l 1
 61.5 -49.5 l 1
 9 -8.5 l 1
 766.5 749.5 l 1
EndSplineSet
EndChar

StartChar: Thorn
Encoding: 222 222 125
Width: 533
VWidth: 0
Flags: HMW
LayerCount: 2
Fore
SplineSet
168.5 699.5 m 1
 254 700 l 1
 133 0 l 1
 51 0 l 1
 168.5 699.5 l 1
176.5 480 m 1
 191 560 l 1
 327.5 560 l 1
 454.5 557.5 545.5 474 526.5 349.5 c 0
 507 222.5 392.5 142.5 261.5 140 c 1
 118.5 140 l 1
 133 220 l 1
 269.5 220 l 1
 356 222 428 266.5 443 350 c 0
 457 431.5 402.5 477 319.5 479.5 c 1
 176.5 480 l 1
EndSplineSet
EndChar

StartChar: divide
Encoding: 247 247 126
Width: 604
VWidth: 0
Flags: HMW
LayerCount: 2
Fore
SplineSet
296.5 451 m 0
 299.5 478 331 506 358.5 504.5 c 0
 387 503 407.5 477 404.5 449 c 0
 401.5 422 370 394 342.5 395.5 c 0
 314 397 293.5 423 296.5 451 c 0
232 71 m 0
 235 98 266.5 126 294 124.5 c 0
 322.5 123 342.5 97 339.5 69 c 0
 336.5 42 305 14 277.5 15.5 c 0
 249 17 229 43 232 71 c 0
70 225.5 m 1
 83 305 l 1
 570 305 l 1
 556.5 225 l 1
 70 225.5 l 1
EndSplineSet
EndChar

StartChar: oslash
Encoding: 248 248 127
Width: 529
VWidth: 0
Flags: HMW
LayerCount: 2
Fore
SplineSet
45 230 m 0
 65 362 179.5 469.5 315 469.5 c 0
 449 469.5 527.5 357.5 509 230 c 0
 489 98 374.5 -9.5 239 -9.5 c 0
 105 -9.5 26.5 102.5 45 230 c 0
125 230 m 0
 111.5 145.5 155.5 66 246 65.5 c 0
 337.5 65 414 140.5 429 230 c 0
 442.5 314.5 398.5 394 308 394.5 c 0
 216.5 395 140 319.5 125 230 c 0
483.5 499 m 1
 526.5 478.5 l 1
 59.5 -43 l 1
 16.5 -22.5 l 1
 483.5 499 l 1
EndSplineSet
EndChar

StartChar: circumflex
Encoding: 710 710 128
Width: 465
VWidth: 0
Flags: HMW
LayerCount: 2
Fore
SplineSet
318.5 644.5 m 1
 194.5 550.5 l 1
 150.5 591.5 l 1
 328.5 730 l 1
 462.5 589 l 1
 409 550.5 l 1
 318.5 644.5 l 1
EndSplineSet
EndChar

StartChar: ogonek
Encoding: 731 731 129
Width: 252
VWidth: 0
Flags: HMW
LayerCount: 2
Fore
SplineSet
150.5 -130 m 1
 176 -181 l 1
 154.5 -200.5 125 -219 86 -219.5 c 0
 14 -220.5 -29.5 -180 -21 -119.5 c 0
 -11 -53.5 62.5 -8.5 128.5 24.5 c 1
 167 0 l 1
 121 -22.5 66.5 -56 60.5 -100 c 0
 58 -129 70.5 -147.5 98 -149.5 c 0
 120 -151 136 -140.5 150.5 -130 c 1
EndSplineSet
EndChar

StartChar: tilde
Encoding: 732 732 130
Width: 514
VWidth: 0
Flags: HMW
LayerCount: 2
Fore
SplineSet
175 626.5 m 1
 194 669.5 239 708 287 706.5 c 0
 339 705.5 353.5 659 400.5 660.5 c 0
 423.5 661.5 443.5 683 463 707.5 c 1
 503.5 663.5 l 1
 481 629 440 590.5 391 592.5 c 0
 344.5 594 322.5 639.5 280.5 638.5 c 0
 245 637.5 231.5 607 223.5 588.5 c 1
 175 626.5 l 1
EndSplineSet
EndChar

StartChar: ring
Encoding: 730 730 131
Width: 269
VWidth: 0
Flags: HMW
LayerCount: 2
Fore
SplineSet
142 786 m 0
 149.5 841 204 885 257 884.5 c 0
 310 884 349 838.5 341.5 784 c 0
 334 729 279.5 685 226.5 685.5 c 0
 173.5 686 134.5 731.5 142 786 c 0
192 784.5 m 0
 189 758 207 734 231 732.5 c 0
 255.5 730.5 288.5 758 291.5 785.5 c 0
 294.5 812 276.5 836 252.5 837.5 c 0
 228 839.5 195 812 192 784.5 c 0
EndSplineSet
EndChar

StartChar: dotaccent
Encoding: 729 729 132
Width: 291
VWidth: 0
Flags: HMW
LayerCount: 2
Fore
SplineSet
199.5 791 m 0
 202.5 818 234 846 261.5 844.5 c 0
 290 843 310 817 307 789 c 0
 304 762 272.5 734 245 735.5 c 0
 216.5 737 196.5 763 199.5 791 c 0
EndSplineSet
EndChar

StartChar: uni2010
Encoding: 8208 8208 133
Width: 203
VWidth: 0
Flags: HMW
LayerCount: 2
Fore
SplineSet
12 200.5 m 1
 24.5 275 l 1
 220.5 275 l 1
 207.5 200.5 l 1
 12 200.5 l 1
EndSplineSet
EndChar

StartChar: endash
Encoding: 8211 8211 134
Width: 718
VWidth: 0
Flags: HMW
LayerCount: 2
Fore
SplineSet
75.5 200.5 m 1
 87.5 275 l 1
 671.5 275 l 1
 659 200 l 1
 75.5 200.5 l 1
EndSplineSet
EndChar

StartChar: figuredash
Encoding: 8210 8210 135
Width: 572
VWidth: 0
Flags: HMW
LayerCount: 2
Fore
SplineSet
75.5 200.5 m 1
 87.5 275 l 1
 526 275 l 1
 513.5 200 l 1
 75.5 200.5 l 1
EndSplineSet
EndChar

StartChar: emdash
Encoding: 8212 8212 136
Width: 863
VWidth: 0
Flags: HMW
LayerCount: 2
Fore
SplineSet
75.5 200.5 m 1
 87.5 275 l 1
 817 275 l 1
 804.5 200 l 1
 75.5 200.5 l 1
EndSplineSet
EndChar

StartChar: minus
Encoding: 8722 8722 137
Width: 572
VWidth: 0
Flags: HMW
LayerCount: 2
Fore
SplineSet
75.5 200.5 m 1
 87.5 275 l 1
 526 275 l 1
 513.5 200 l 1
 75.5 200.5 l 1
EndSplineSet
EndChar

StartChar: quoteright
Encoding: 8217 8217 138
Width: 266
VWidth: 0
Flags: HMW
LayerCount: 2
Fore
SplineSet
197.5 699.5 m 1
 294 699.5 l 1
 156 471 l 1
 101 471 l 1
 197.5 699.5 l 1
EndSplineSet
EndChar

StartChar: quoteleft
Encoding: 8216 8216 139
Width: 266
VWidth: 0
Flags: HMW
LayerCount: 2
Fore
SplineSet
215 470.5 m 1
 118 470.5 l 1
 256 699 l 1
 311.5 699 l 1
 215 470.5 l 1
EndSplineSet
EndChar

StartChar: quotesinglbase
Encoding: 8218 8218 140
Width: 266
VWidth: 0
Flags: HMW
LayerCount: 2
Fore
SplineSet
101.5 79.5 m 1
 198 79.5 l 1
 60 -149 l 1
 5 -149 l 1
 101.5 79.5 l 1
EndSplineSet
EndChar

StartChar: quotedblleft
Encoding: 8220 8220 141
Width: 460
VWidth: 0
Flags: HMW
LayerCount: 2
Fore
SplineSet
215 470.5 m 1
 118 470.5 l 1
 256 699 l 1
 311.5 699 l 1
 215 470.5 l 1
409 470.5 m 1
 312 470.5 l 1
 450 699 l 1
 505.5 699 l 1
 409 470.5 l 1
EndSplineSet
EndChar

StartChar: quotedblright
Encoding: 8221 8221 142
Width: 460
VWidth: 0
Flags: HMW
LayerCount: 2
Fore
SplineSet
197.5 699.5 m 1
 294 699.5 l 1
 156 471 l 1
 101 471 l 1
 197.5 699.5 l 1
391.5 699.5 m 1
 488.5 699.5 l 1
 350.5 471 l 1
 295 471 l 1
 391.5 699.5 l 1
EndSplineSet
EndChar

StartChar: perthousand
Encoding: 8240 8240 143
Width: 1097
VWidth: 0
Flags: HMW
LayerCount: 2
Fore
SplineSet
754.5 150.5 m 0
 767.5 236.5 841 309.5 933.5 309.5 c 0
 1025.5 309.5 1075 233 1063 149.5 c 0
 1050 63.5 976.5 -9.5 884 -9.5 c 0
 792 -9.5 742.5 67 754.5 150.5 c 0
824.5 150 m 0
 817.5 104.5 837.5 57 890 55.5 c 0
 943 54 985 102 993 150 c 0
 1000 195.5 980 243 927.5 244.5 c 0
 874.5 246 832.5 198 824.5 150 c 0
100 550.5 m 0
 113 636.5 186 709.5 278.5 709.5 c 0
 370.5 709.5 420.5 633 408.5 549.5 c 0
 395.5 463.5 322 390.5 229.5 390.5 c 0
 137.5 390.5 88 467 100 550.5 c 0
169.5 550 m 0
 162.5 504.5 183 457 235.5 455.5 c 0
 288.5 454 330.5 502 338.5 550 c 0
 345.5 595.5 325.5 643 273 644.5 c 0
 220 646 177.5 598 169.5 550 c 0
386 150.5 m 0
 399 236.5 472 309.5 564.5 309.5 c 0
 656.5 309.5 706 233 694 149.5 c 0
 681 63.5 608 -9.5 515.5 -9.5 c 0
 423.5 -9.5 374 67 386 150.5 c 0
455.5 150 m 0
 448.5 104.5 469 57 521.5 55.5 c 0
 574.5 54 616.5 102 624.5 150 c 0
 631.5 195.5 611 243 558.5 244.5 c 0
 505.5 246 463.5 198 455.5 150 c 0
636.5 699.5 m 1
 714.5 699.5 l 1
 157 0 l 1
 82 0 l 1
 636.5 699.5 l 1
EndSplineSet
EndChar

StartChar: guilsinglleft
Encoding: 8249 8249 144
Width: 339
VWidth: 0
Flags: HMW
LayerCount: 2
Fore
SplineSet
143 258.5 m 1
 256.5 64 l 1
 201 20 l 1
 55 258 l 1
 278 489.5 l 1
 321.5 443.5 l 1
 143 258.5 l 1
EndSplineSet
EndChar

StartChar: guilsinglright
Encoding: 8250 8250 145
Width: 339
VWidth: 0
Flags: HMW
LayerCount: 2
Fore
SplineSet
229 251.5 m 1
 116 446 l 1
 171 490 l 1
 317.5 252 l 1
 94.5 20.5 l 1
 51 66.5 l 1
 229 251.5 l 1
EndSplineSet
EndChar

StartChar: uni2031
Encoding: 8241 8241 146
Width: 1466
VWidth: 0
Flags: HMW
LayerCount: 2
Fore
SplineSet
1123.5 150.5 m 0
 1136.5 236.5 1209.5 309.5 1302 309.5 c 0
 1394 309.5 1444 233 1432 149.5 c 0
 1419 63.5 1345.5 -9.5 1253 -9.5 c 0
 1161 -9.5 1111.5 67 1123.5 150.5 c 0
1193 150 m 0
 1186 104.5 1206.5 57 1259 55.5 c 0
 1312 54 1354 102 1362 150 c 0
 1369 195.5 1348.5 243 1296 244.5 c 0
 1243 246 1201 198 1193 150 c 0
754.5 150.5 m 0
 767.5 236.5 841 309.5 933.5 309.5 c 0
 1025.5 309.5 1075 233 1063 149.5 c 0
 1050 63.5 976.5 -9.5 884 -9.5 c 0
 792 -9.5 742.5 67 754.5 150.5 c 0
824.5 150 m 0
 817.5 104.5 837.5 57 890 55.5 c 0
 943 54 985 102 993 150 c 0
 1000 195.5 980 243 927.5 244.5 c 0
 874.5 246 832.5 198 824.5 150 c 0
100 550.5 m 0
 113 636.5 186 709.5 278.5 709.5 c 0
 370.5 709.5 420.5 633 408.5 549.5 c 0
 395.5 463.5 322 390.5 229.5 390.5 c 0
 137.5 390.5 88 467 100 550.5 c 0
169.5 550 m 0
 162.5 504.5 183 457 235.5 455.5 c 0
 288.5 454 330.5 502 338.5 550 c 0
 345.5 595.5 325.5 643 273 644.5 c 0
 220 646 177.5 598 169.5 550 c 0
386 150.5 m 0
 399 236.5 472 309.5 564.5 309.5 c 0
 656.5 309.5 706 233 694 149.5 c 0
 681 63.5 608 -9.5 515.5 -9.5 c 0
 423.5 -9.5 374 67 386 150.5 c 0
455.5 150 m 0
 448.5 104.5 469 57 521.5 55.5 c 0
 574.5 54 616.5 102 624.5 150 c 0
 631.5 195.5 611 243 558.5 244.5 c 0
 505.5 246 463.5 198 455.5 150 c 0
636.5 699.5 m 1
 714.5 699.5 l 1
 157 0 l 1
 82 0 l 1
 636.5 699.5 l 1
EndSplineSet
EndChar

StartChar: uni203D
Encoding: 8253 8253 147
Width: 540
VWidth: 0
Flags: HMW
LayerCount: 2
Fore
SplineSet
461.5 500 m 0
 475 578.5 429.5 634 345 634.5 c 0
 279 635 229 598 190.5 552.5 c 1
 131.5 594.5 l 1
 188 661 254.5 710.5 362 709.5 c 0
 482.5 708.5 558.5 612.5 541.5 499.5 c 0
 522 379 408.5 297 290 289.5 c 1
 248.5 346 l 1
 356.5 351 443.5 413.5 461.5 500 c 0
252.5 510 m 1
 353 509.5 l 1
 274.5 170.5 l 1
 215 170.5 l 1
 252.5 510 l 1
168.5 41 m 0
 171.5 68 203 96 230.5 94.5 c 0
 259 93 279 67 276 39 c 0
 273 12 241.5 -16 214 -14.5 c 0
 185.5 -13 165.5 13 168.5 41 c 0
EndSplineSet
EndChar

StartChar: Euro
Encoding: 8364 8364 148
Width: 562
VWidth: 0
Flags: HMW
LayerCount: 2
Fore
SplineSet
56.5 407.5 m 1
 64.5 454.5 l 1
 551.5 454.5 l 1
 544 407.5 l 1
 56.5 407.5 l 1
36 287.5 m 1
 44 334.5 l 1
 506 334.5 l 1
 498 287.5 l 1
 36 287.5 l 1
183.5 350 m 0
 165.5 218.5 202.5 71.5 341 70.5 c 0
 400 70 453.5 96 499.5 131 c 1
 484 31 l 1
 437.5 7 386.5 -9.5 333 -9.5 c 0
 148.5 -9 76 173 99.5 350 c 0
 127 539 266 710 450.5 709.5 c 0
 502 709.5 548.5 694 592 669 c 1
 576 568 l 1
 539.5 606.5 496.5 630 442.5 630 c 0
 304.5 630.5 205.5 494 183.5 350 c 0
EndSplineSet
EndChar

StartChar: fraction
Encoding: 8260 8260 149
Width: 684
VWidth: 0
Flags: HMW
LayerCount: 2
Fore
SplineSet
653 699 m 1
 718.5 698.5 l 1
 96 0 l 1
 30.5 0 l 1
 653 699 l 1
EndSplineSet
EndChar

StartChar: onequarter
Encoding: 188 188 150
Width: 731
VWidth: 0
Flags: HMW
LayerCount: 2
Fore
SplineSet
690 699 m 1
 755.5 698.5 l 1
 133 0 l 1
 67.5 0 l 1
 690 699 l 1
106.5 612 m 1
 114.5 664 l 1
 263 700.5 l 1
 189.5 274.5 l 1
 138.5 274.5 l 1
 199.5 637.5 l 1
 106.5 612 l 1
373.5 85 m 1
 419.5 128 l 1
 596 129 l 1
 606 129 l 1
 692 128.5 l 1
 684.5 84.5 l 1
 373.5 85 l 1
427.5 85 m 1
 373 85.5 l 1
 655.5 419 l 1
 677.5 419.5 l 1
 606.5 0 l 1
 555.5 0 l 1
 573.5 106 l 1
 574.5 112 l 1
 607 301.5 l 1
 427.5 85 l 1
EndSplineSet
EndChar

StartChar: onehalf
Encoding: 189 189 151
Width: 794
VWidth: 0
Flags: HMW
LayerCount: 2
Fore
SplineSet
690 699 m 1
 755.5 698.5 l 1
 133 0 l 1
 67.5 0 l 1
 690 699 l 1
106.5 612 m 1
 114.5 664 l 1
 263 700.5 l 1
 189.5 274.5 l 1
 138.5 274.5 l 1
 199.5 637.5 l 1
 106.5 612 l 1
451.5 3 m 1
 678 214 l 2
 706.5 240.5 732.5 270 738.5 306 c 0
 744 342 725.5 378 680 380 c 0
 623 383 585 333 572.5 279 c 1
 521.5 279 l 1
 538.5 360 594.5 429.5 683 428.5 c 0
 764.5 428 799 361.5 789 301.5 c 0
 781.5 256.5 751.5 218.5 716.5 186 c 2
 564.5 50.5 l 1
 747.5 49.5 l 1
 739.5 2.5 l 1
 451.5 3 l 1
EndSplineSet
EndChar

StartChar: threequarters
Encoding: 190 190 152
Width: 795
VWidth: 0
Flags: HMW
LayerCount: 2
Fore
SplineSet
755 699 m 1
 820.5 698.5 l 1
 198 0 l 1
 132.5 0 l 1
 755 699 l 1
197.5 488 m 1
 202.5 520 l 1
 251.5 525 290 549.5 298.5 593 c 0
 304 628 288.5 658 250 659.5 c 0
 210.5 661.5 180 629.5 169.5 597 c 1
 120.5 597.5 l 1
 135.5 657.5 184 706.5 253 705.5 c 0
 320 704.5 359 651.5 349.5 593.5 c 0
 338 528 271.5 492.5 197.5 488 c 1
181.5 274.5 m 0
 104 274.5 64.5 325.5 68 391 c 1
 118.5 391 l 1
 118.5 352.5 138.5 323.5 184.5 322.5 c 0
 230 321.5 269.5 354.5 276 397.5 c 0
 284.5 450 243.5 470.5 195 475 c 1
 200.5 507.5 l 1
 275 503.5 339 471.5 327 390.5 c 0
 317 322 253 274.5 181.5 274.5 c 0
438.5 85 m 1
 484.5 128 l 1
 661 129 l 1
 671 129 l 1
 757 128.5 l 1
 749.5 84.5 l 1
 438.5 85 l 1
492.5 85 m 1
 438 85.5 l 1
 720.5 419 l 1
 742.5 419.5 l 1
 671.5 0 l 1
 620.5 0 l 1
 638.5 106 l 1
 639.5 112 l 1
 672 301.5 l 1
 492.5 85 l 1
EndSplineSet
EndChar

StartChar: uni2150
Encoding: 8528 8528 153
Width: 817
VWidth: 0
Flags: HMW
LayerCount: 2
Fore
SplineSet
641.5 699 m 1
 707 698.5 l 1
 84.5 0 l 1
 19 0 l 1
 641.5 699 l 1
106.5 612 m 1
 114.5 664 l 1
 263 700.5 l 1
 189.5 274.5 l 1
 138.5 274.5 l 1
 199.5 637.5 l 1
 106.5 612 l 1
539 372.5 m 1
 546.5 419.5 l 1
 835 419.5 l 1
 567.5 0 l 1
 514 0 l 1
 748.5 371.5 l 1
 539 372.5 l 1
EndSplineSet
EndChar

StartChar: uni2151
Encoding: 8529 8529 154
Width: 760
VWidth: 0
Flags: HMW
LayerCount: 2
Fore
SplineSet
641.5 699 m 1
 707 698.5 l 1
 84.5 0 l 1
 19 0 l 1
 641.5 699 l 1
106.5 612 m 1
 114.5 664 l 1
 263 700.5 l 1
 189.5 274.5 l 1
 138.5 274.5 l 1
 199.5 637.5 l 1
 106.5 612 l 1
717 284 m 0
 724.5 334.5 698.5 380.5 645 381.5 c 0
 591 383 543 337 534.5 284 c 0
 527 233.5 553 187 606.5 185.5 c 0
 660.5 184 708.5 231 717 284 c 0
555.5 3 m 1
 490 3.5 l 1
 646.5 174.5 l 1
 651 169.5 l 1
 632.5 155 611.5 147.5 586 148 c 0
 516 149 477.5 216.5 486.5 284.5 c 0
 498 365 567.5 427.5 648 427.5 c 0
 728.5 427.5 777 362 765.5 283.5 c 0
 760.5 250.5 745 220.5 725.5 197 c 1
 555.5 3 l 1
EndSplineSet
EndChar

StartChar: uni2152
Encoding: 8530 8530 155
Width: 1048
VWidth: 0
Flags: HMW
LayerCount: 2
Fore
SplineSet
641.5 699 m 1
 707 698.5 l 1
 84.5 0 l 1
 19 0 l 1
 641.5 699 l 1
106.5 612 m 1
 114.5 664 l 1
 263 700.5 l 1
 189.5 274.5 l 1
 138.5 274.5 l 1
 199.5 637.5 l 1
 106.5 612 l 1
504.5 339 m 1
 512.5 391 l 1
 661 427.5 l 1
 587 1.5 l 1
 536.5 1.5 l 1
 597.5 364.5 l 1
 504.5 339 l 1
775 210 m 0
 766.5 137 771.5 44 845 42.5 c 0
 918.5 41 966 129 978 210 c 0
 986.5 283 981.5 376 908 377.5 c 0
 834.5 379 787 291 775 210 c 0
724 210 m 0
 738.5 318 810 426 910.5 425.5 c 0
 1013 425 1041 311 1028.5 210 c 0
 1014 102 942.5 -6 842 -5.5 c 0
 739.5 -5 711.5 109 724 210 c 0
EndSplineSet
EndChar

StartChar: onethird
Encoding: 8531 8531 156
Width: 732
VWidth: 0
Flags: HMW
LayerCount: 2
Fore
SplineSet
641.5 699 m 1
 707 698.5 l 1
 84.5 0 l 1
 19 0 l 1
 641.5 699 l 1
106.5 612 m 1
 114.5 664 l 1
 263 700.5 l 1
 189.5 274.5 l 1
 138.5 274.5 l 1
 199.5 637.5 l 1
 106.5 612 l 1
569.5 208 m 1
 575 240 l 1
 624 245 662.5 269.5 671 313 c 0
 676.5 348 661 378 622.5 379.5 c 0
 583 381.5 552.5 349.5 542 317 c 1
 493 317.5 l 1
 508 377.5 556.5 426.5 625.5 425.5 c 0
 692.5 424.5 731.5 371.5 722 313.5 c 0
 710.5 248 643.5 212.5 569.5 208 c 1
553.5 -5.5 m 0
 476 -5.5 437 45.5 440.5 111 c 1
 491 111 l 1
 491 72.5 511 43.5 557 42.5 c 0
 602.5 41.5 642 74.5 648.5 117.5 c 0
 657 170 615.5 190.5 567 195 c 1
 573 227.5 l 1
 647.5 223.5 711 191.5 699 110.5 c 0
 689 42 625 -5.5 553.5 -5.5 c 0
EndSplineSet
EndChar

StartChar: twothirds
Encoding: 8532 8532 157
Width: 855
VWidth: 0
Flags: HMW
LayerCount: 2
Fore
SplineSet
765 699 m 1
 830.5 698.5 l 1
 207.5 0 l 1
 142 0 l 1
 765 699 l 1
50 283 m 1
 276.5 494 l 2
 305 520.5 331 550 337 586 c 0
 342.5 622 324 658 278.5 660 c 0
 221.5 663 183.5 613 171 559 c 1
 120 559 l 1
 137 640 193 709.5 281.5 708.5 c 0
 363 708 397.5 641.5 387.5 581.5 c 0
 380 536.5 349.5 498.5 314.5 466 c 2
 163 330.5 l 1
 346 329.5 l 1
 338 282.5 l 1
 50 283 l 1
693 208 m 1
 698.5 240 l 1
 747.5 245 786 269.5 794.5 313 c 0
 800 348 784 378 745.5 379.5 c 0
 706 381.5 676 349.5 665.5 317 c 1
 616 317.5 l 1
 631 377.5 680 426.5 749 425.5 c 0
 816 424.5 854.5 371.5 845 313.5 c 0
 833.5 248 767 212.5 693 208 c 1
677 -5.5 m 0
 599.5 -5.5 560 45.5 563.5 111 c 1
 614 111 l 1
 614 72.5 634 43.5 680 42.5 c 0
 725.5 41.5 765 74.5 771.5 117.5 c 0
 780 170 739 190.5 690.5 195 c 1
 696 227.5 l 1
 770.5 223.5 834.5 191.5 822.5 110.5 c 0
 812.5 42 748.5 -5.5 677 -5.5 c 0
EndSplineSet
EndChar

StartChar: uni2155
Encoding: 8533 8533 158
Width: 722
VWidth: 0
Flags: HMW
LayerCount: 2
Fore
SplineSet
641.5 699 m 1
 707 698.5 l 1
 84.5 0 l 1
 19 0 l 1
 641.5 699 l 1
106.5 612 m 1
 114.5 664 l 1
 263 700.5 l 1
 189.5 274.5 l 1
 138.5 274.5 l 1
 199.5 637.5 l 1
 106.5 612 l 1
690 135.5 m 0
 678 49 606.5 -7.5 524.5 -7.5 c 0
 455.5 -7.5 416 30 391.5 81 c 1
 437 110 l 1
 453 74 483 41 527.5 40.5 c 0
 585 40 629 82 637.5 136 c 0
 645.5 187.5 617.5 228.5 565 231.5 c 0
 524.5 233.5 491.5 218.5 452.5 195.5 c 1
 486.5 233.5 l 1
 514.5 260.5 553 278 589.5 277.5 c 0
 664 276.5 700 208.5 690 135.5 c 0
577 373 m 1
 523 246.5 l 1
 447 190 l 1
 543.5 417.5 l 1
 736.5 417.5 l 1
 729.5 373.5 l 1
 577 373 l 1
EndSplineSet
EndChar

StartChar: uni2156
Encoding: 8534 8534 159
Width: 845
VWidth: 0
Flags: HMW
LayerCount: 2
Fore
SplineSet
765 699 m 1
 830.5 698.5 l 1
 207.5 0 l 1
 142 0 l 1
 765 699 l 1
50 283 m 1
 276.5 494 l 2
 305 520.5 331 550 337 586 c 0
 342.5 622 324 658 278.5 660 c 0
 221.5 663 183.5 613 171 559 c 1
 120 559 l 1
 137 640 193 709.5 281.5 708.5 c 0
 363 708 397.5 641.5 387.5 581.5 c 0
 380 536.5 349.5 498.5 314.5 466 c 2
 163 330.5 l 1
 346 329.5 l 1
 338 282.5 l 1
 50 283 l 1
813 135.5 m 0
 801 49 729.5 -7.5 647.5 -7.5 c 0
 578.5 -7.5 539.5 30 515 81 c 1
 560.5 110 l 1
 576.5 74 606 41 650.5 40.5 c 0
 708 40 752 82 760.5 136 c 0
 768.5 187.5 741 228.5 688.5 231.5 c 0
 648 233.5 615 218.5 576 195.5 c 1
 609.5 233.5 l 1
 637.5 260.5 676 278 712.5 277.5 c 0
 787 276.5 823 208.5 813 135.5 c 0
700 373 m 1
 646.5 246.5 l 1
 570 190 l 1
 666.5 417.5 l 1
 860 417.5 l 1
 852.5 373.5 l 1
 700 373 l 1
EndSplineSet
EndChar

StartChar: uni2157
Encoding: 8535 8535 160
Width: 806
VWidth: 0
Flags: HMW
LayerCount: 2
Fore
SplineSet
726 699 m 1
 791.5 698.5 l 1
 169 0 l 1
 103.5 0 l 1
 726 699 l 1
197.5 488 m 1
 202.5 520 l 1
 251.5 525 290 549.5 298.5 593 c 0
 304 628 288.5 658 250 659.5 c 0
 210.5 661.5 180 629.5 169.5 597 c 1
 120.5 597.5 l 1
 135.5 657.5 184 706.5 253 705.5 c 0
 320 704.5 359 651.5 349.5 593.5 c 0
 338 528 271.5 492.5 197.5 488 c 1
181.5 274.5 m 0
 104 274.5 64.5 325.5 68 391 c 1
 118.5 391 l 1
 118.5 352.5 138.5 323.5 184.5 322.5 c 0
 230 321.5 269.5 354.5 276 397.5 c 0
 284.5 450 243.5 470.5 195 475 c 1
 200.5 507.5 l 1
 275 503.5 339 471.5 327 390.5 c 0
 317 322 253 274.5 181.5 274.5 c 0
774.5 135.5 m 0
 762.5 49 691 -7.5 609 -7.5 c 0
 540 -7.5 500.5 30 476 81 c 1
 521.5 110 l 1
 537.5 74 567 41 611.5 40.5 c 0
 669 40 713.5 82 722 136 c 0
 730 187.5 702 228.5 649.5 231.5 c 0
 609 233.5 576 218.5 537 195.5 c 1
 571 233.5 l 1
 599 260.5 637.5 278 674 277.5 c 0
 748.5 276.5 784.5 208.5 774.5 135.5 c 0
661 373 m 1
 607.5 246.5 l 1
 531.5 190 l 1
 627.5 417.5 l 1
 821 417.5 l 1
 813.5 373.5 l 1
 661 373 l 1
EndSplineSet
EndChar

StartChar: uni2158
Encoding: 8536 8536 161
Width: 840
VWidth: 0
Flags: HMW
LayerCount: 2
Fore
SplineSet
760 699 m 1
 825.5 698.5 l 1
 203 0 l 1
 137.5 0 l 1
 760 699 l 1
64 365 m 1
 110 408 l 1
 286.5 409 l 1
 296.5 409 l 1
 382.5 408.5 l 1
 375.5 364.5 l 1
 64 365 l 1
118.5 365 m 1
 63.5 365.5 l 1
 346 699 l 1
 368 699.5 l 1
 297 280.5 l 1
 246.5 280.5 l 1
 264.5 386 l 1
 265 392 l 1
 297.5 581.5 l 1
 118.5 365 l 1
808.5 135.5 m 0
 796.5 49 725 -7.5 643 -7.5 c 0
 574 -7.5 534.5 30 510 81 c 1
 555.5 110 l 1
 571.5 74 601 41 645.5 40.5 c 0
 703 40 747.5 82 756 136 c 0
 764 187.5 736 228.5 683.5 231.5 c 0
 643 233.5 610 218.5 571 195.5 c 1
 605 233.5 l 1
 633 260.5 671.5 278 708 277.5 c 0
 782.5 276.5 818.5 208.5 808.5 135.5 c 0
695 373 m 1
 641.5 246.5 l 1
 565.5 190 l 1
 661.5 417.5 l 1
 855 417.5 l 1
 847.5 373.5 l 1
 695 373 l 1
EndSplineSet
EndChar

StartChar: uni2159
Encoding: 8537 8537 162
Width: 712
VWidth: 0
Flags: HMW
LayerCount: 2
Fore
SplineSet
641.5 699 m 1
 707 698.5 l 1
 84.5 0 l 1
 19 0 l 1
 641.5 699 l 1
106.5 612 m 1
 114.5 664 l 1
 263 700.5 l 1
 189.5 274.5 l 1
 138.5 274.5 l 1
 199.5 637.5 l 1
 106.5 612 l 1
455 136 m 0
 447.5 85.5 473.5 39.5 527 38.5 c 0
 581 37 629 83 637.5 136 c 0
 645 186.5 619 233 565.5 234.5 c 0
 511.5 236 463.5 189 455 136 c 0
617 417 m 1
 682.5 416.5 l 1
 526 245.5 l 1
 521.5 250.5 l 1
 540 265 560.5 272.5 586 272 c 0
 656 271 695 203.5 686 135.5 c 0
 674.5 55 605 -7.5 524.5 -7.5 c 0
 444 -7.5 395 58 406.5 136.5 c 0
 411.5 169.5 427.5 199.5 447 223 c 1
 617 417 l 1
EndSplineSet
EndChar

StartChar: uni215A
Encoding: 8538 8538 163
Width: 830
VWidth: 0
Flags: HMW
LayerCount: 2
Fore
SplineSet
760 699 m 1
 825.5 698.5 l 1
 203 0 l 1
 137.5 0 l 1
 760 699 l 1
361 415.5 m 0
 349 329 277.5 272.5 195.5 272.5 c 0
 126.5 272.5 87.5 310 63 361 c 1
 108.5 390 l 1
 124.5 354 154 321 198.5 320.5 c 0
 256 320 300 362 308.5 416 c 0
 316.5 467.5 289 508.5 236.5 511.5 c 0
 196 513.5 163 498.5 124 475.5 c 1
 157.5 513.5 l 1
 185.5 540.5 224 558 260.5 557.5 c 0
 335 556.5 371 488.5 361 415.5 c 0
248 653 m 1
 194.5 526.5 l 1
 118 470 l 1
 214.5 697.5 l 1
 408 697.5 l 1
 400.5 653.5 l 1
 248 653 l 1
573.5 136 m 0
 566 85.5 592 39.5 645.5 38.5 c 0
 699.5 37 747.5 83 756 136 c 0
 763.5 186.5 737.5 233 684 234.5 c 0
 630 236 582 189 573.5 136 c 0
735 417 m 1
 800.5 416.5 l 1
 644.5 245.5 l 1
 640 250.5 l 1
 658.5 265 679 272.5 704.5 272 c 0
 774.5 271 813 203.5 804 135.5 c 0
 792.5 55 723.5 -7.5 643 -7.5 c 0
 562.5 -7.5 513.5 58 525 136.5 c 0
 530 169.5 545.5 199.5 565 223 c 1
 735 417 l 1
EndSplineSet
EndChar

StartChar: oneeighth
Encoding: 8539 8539 164
Width: 737
VWidth: 0
Flags: HMW
LayerCount: 2
Fore
SplineSet
641.5 699 m 1
 707 698.5 l 1
 84.5 0 l 1
 19 0 l 1
 641.5 699 l 1
106.5 612 m 1
 114.5 664 l 1
 263 700.5 l 1
 189.5 274.5 l 1
 138.5 274.5 l 1
 199.5 637.5 l 1
 106.5 612 l 1
495.5 319.5 m 0
 504.5 377.5 561.5 426 624.5 425.5 c 0
 687 425 730 376 722 318.5 c 0
 713.5 256.5 657.5 213 592.5 213.5 c 0
 527.5 214 486.5 257.5 495.5 319.5 c 0
542.5 312.5 m 0
 537.5 278 559 248 594 246.5 c 0
 629.5 245 667 277.5 672.5 313.5 c 0
 677.5 348.5 658.5 379 621.5 380.5 c 0
 584 382 548 349 542.5 312.5 c 0
445.5 114.5 m 0
 455.5 186 522.5 234 591.5 233.5 c 0
 660 233.5 711.5 184.5 701.5 113.5 c 0
 691.5 48.5 627 -6 555.5 -5.5 c 0
 485 -5 436 50.5 445.5 114.5 c 0
495 120 m 0
 488 75.5 516 40.5 558.5 39.5 c 0
 602 38.5 647.5 73.5 654.5 120 c 0
 660.5 161 633 199.5 591 200.5 c 0
 548 201.5 502 162.5 495 120 c 0
EndSplineSet
EndChar

StartChar: threeeighths
Encoding: 8540 8540 165
Width: 821
VWidth: 0
Flags: HMW
LayerCount: 2
Fore
SplineSet
726 699 m 1
 791.5 698.5 l 1
 169 0 l 1
 103.5 0 l 1
 726 699 l 1
197.5 488 m 1
 202.5 520 l 1
 251.5 525 290 549.5 298.5 593 c 0
 304 628 288.5 658 250 659.5 c 0
 210.5 661.5 180 629.5 169.5 597 c 1
 120.5 597.5 l 1
 135.5 657.5 184 706.5 253 705.5 c 0
 320 704.5 359 651.5 349.5 593.5 c 0
 338 528 271.5 492.5 197.5 488 c 1
181.5 274.5 m 0
 104 274.5 64.5 325.5 68 391 c 1
 118.5 391 l 1
 118.5 352.5 138.5 323.5 184.5 322.5 c 0
 230 321.5 269.5 354.5 276 397.5 c 0
 284.5 450 243.5 470.5 195 475 c 1
 200.5 507.5 l 1
 275 503.5 339 471.5 327 390.5 c 0
 317 322 253 274.5 181.5 274.5 c 0
579.5 319.5 m 0
 588.5 377.5 646 426 709 425.5 c 0
 771.5 425 814.5 376 806.5 318.5 c 0
 798 256.5 742 213 677 213.5 c 0
 612 214 570.5 257.5 579.5 319.5 c 0
627 312.5 m 0
 622 278 643.5 248 678.5 246.5 c 0
 714 245 751.5 277.5 757 313.5 c 0
 762 348.5 742.5 379 705.5 380.5 c 0
 668 382 632.5 349 627 312.5 c 0
530 114.5 m 0
 540 186 607 234 676 233.5 c 0
 744.5 233.5 796 184.5 786 113.5 c 0
 776 48.5 711.5 -6 640 -5.5 c 0
 569.5 -5 520.5 50.5 530 114.5 c 0
579.5 120 m 0
 572.5 75.5 600.5 40.5 643 39.5 c 0
 686.5 38.5 731.5 73.5 738.5 120 c 0
 744.5 161 717.5 199.5 675.5 200.5 c 0
 632.5 201.5 586.5 162.5 579.5 120 c 0
EndSplineSet
EndChar

StartChar: fiveeighths
Encoding: 8541 8541 166
Width: 855
VWidth: 0
Flags: HMW
LayerCount: 2
Fore
SplineSet
760 699 m 1
 825.5 698.5 l 1
 203 0 l 1
 137.5 0 l 1
 760 699 l 1
361 415.5 m 0
 349 329 277.5 272.5 195.5 272.5 c 0
 126.5 272.5 87.5 310 63 361 c 1
 108.5 390 l 1
 124.5 354 154 321 198.5 320.5 c 0
 256 320 300 362 308.5 416 c 0
 316.5 467.5 289 508.5 236.5 511.5 c 0
 196 513.5 163 498.5 124 475.5 c 1
 157.5 513.5 l 1
 185.5 540.5 224 558 260.5 557.5 c 0
 335 556.5 371 488.5 361 415.5 c 0
248 653 m 1
 194.5 526.5 l 1
 118 470 l 1
 214.5 697.5 l 1
 408 697.5 l 1
 400.5 653.5 l 1
 248 653 l 1
613.5 319.5 m 0
 622.5 377.5 680 426 743 425.5 c 0
 805.5 425 848.5 376 840.5 318.5 c 0
 832 256.5 776 213 711 213.5 c 0
 646 214 604.5 257.5 613.5 319.5 c 0
661 312.5 m 0
 656 278 677.5 248 712.5 246.5 c 0
 748 245 785.5 277.5 791 313.5 c 0
 796 348.5 776.5 379 739.5 380.5 c 0
 702 382 666.5 349 661 312.5 c 0
564 114.5 m 0
 574 186 641 234 710 233.5 c 0
 778.5 233.5 830 184.5 820 113.5 c 0
 810 48.5 745.5 -6 674 -5.5 c 0
 603.5 -5 554.5 50.5 564 114.5 c 0
613.5 120 m 0
 606.5 75.5 634.5 40.5 677 39.5 c 0
 720.5 38.5 765.5 73.5 772.5 120 c 0
 778.5 161 751 199.5 709 200.5 c 0
 666 201.5 620.5 162.5 613.5 120 c 0
EndSplineSet
EndChar

StartChar: seveneighths
Encoding: 8542 8542 167
Width: 749
VWidth: 0
Flags: HMW
LayerCount: 2
Fore
SplineSet
653 699 m 1
 718.5 698.5 l 1
 96 0 l 1
 30.5 0 l 1
 653 699 l 1
113 652.5 m 1
 120.5 699.5 l 1
 409 699.5 l 1
 141.5 281 l 1
 88 281 l 1
 323 651.5 l 1
 113 652.5 l 1
507 319.5 m 0
 516 377.5 573.5 426 636.5 425.5 c 0
 699 425 741.5 376 733.5 318.5 c 0
 725 256.5 669.5 213 604.5 213.5 c 0
 539.5 214 498 257.5 507 319.5 c 0
554 312.5 m 0
 549 278 570.5 248 605.5 246.5 c 0
 641 245 679 277.5 684.5 313.5 c 0
 689.5 348.5 670 379 633 380.5 c 0
 595.5 382 559.5 349 554 312.5 c 0
457.5 114.5 m 0
 467.5 186 534.5 234 603.5 233.5 c 0
 672 233.5 723 184.5 713 113.5 c 0
 703 48.5 638.5 -6 567 -5.5 c 0
 496.5 -5 448 50.5 457.5 114.5 c 0
506.5 120 m 0
 499.5 75.5 527.5 40.5 570 39.5 c 0
 613.5 38.5 659 73.5 666 120 c 0
 672 161 644.5 199.5 602.5 200.5 c 0
 559.5 201.5 513.5 162.5 506.5 120 c 0
EndSplineSet
EndChar

StartChar: uni2074
Encoding: 8308 8308 168
Width: 374
VWidth: 0
Flags: HMW
LayerCount: 2
Fore
SplineSet
64 365 m 1
 110 408 l 1
 286.5 409 l 1
 296.5 409 l 1
 382.5 408.5 l 1
 375.5 364.5 l 1
 64 365 l 1
118.5 365 m 1
 63.5 365.5 l 1
 346 699 l 1
 368 699.5 l 1
 297 280.5 l 1
 246.5 280.5 l 1
 264.5 386 l 1
 265 392 l 1
 297.5 581.5 l 1
 118.5 365 l 1
EndSplineSet
EndChar

StartChar: uni2075
Encoding: 8309 8309 169
Width: 345
VWidth: 0
Flags: HMW
LayerCount: 2
Fore
SplineSet
361 415.5 m 0
 349 329 277.5 272.5 195.5 272.5 c 0
 126.5 272.5 87.5 310 63 361 c 1
 108.5 390 l 1
 124.5 354 154 321 198.5 320.5 c 0
 256 320 300 362 308.5 416 c 0
 316.5 467.5 289 508.5 236.5 511.5 c 0
 196 513.5 163 498.5 124 475.5 c 1
 157.5 513.5 l 1
 185.5 540.5 224 558 260.5 557.5 c 0
 335 556.5 371 488.5 361 415.5 c 0
248 653 m 1
 194.5 526.5 l 1
 118 470 l 1
 214.5 697.5 l 1
 408 697.5 l 1
 400.5 653.5 l 1
 248 653 l 1
EndSplineSet
EndChar

StartChar: uni2076
Encoding: 8310 8310 170
Width: 335
VWidth: 0
Flags: HMW
LayerCount: 2
Fore
SplineSet
126.5 416 m 0
 119 365.5 145 319.5 198.5 318.5 c 0
 252.5 317 300.5 363 309 416 c 0
 316.5 466.5 290.5 513 237 514.5 c 0
 183 516 135 469 126.5 416 c 0
288 697 m 1
 353.5 696.5 l 1
 197 525.5 l 1
 192.5 530.5 l 1
 211 545 232 552.5 257.5 552 c 0
 327.5 551 366 483.5 357 415.5 c 0
 345.5 335 276 272.5 195.5 272.5 c 0
 115 272.5 66.5 338 78 416.5 c 0
 83 449.5 98.5 479.5 118 503 c 1
 288 697 l 1
EndSplineSet
EndChar

StartChar: uni2077
Encoding: 8311 8311 171
Width: 343
VWidth: 0
Flags: HMW
LayerCount: 2
Fore
SplineSet
113 652.5 m 1
 120.5 699.5 l 1
 409 699.5 l 1
 141.5 281 l 1
 88 281 l 1
 323 651.5 l 1
 113 652.5 l 1
EndSplineSet
EndChar

StartChar: uni2078
Encoding: 8312 8312 172
Width: 312
VWidth: 0
Flags: HMW
LayerCount: 2
Fore
SplineSet
118 599.5 m 0
 127 657.5 184.5 706 247.5 705.5 c 0
 310 705 352.5 656 344.5 598.5 c 0
 336 536.5 280.5 493 215.5 493.5 c 0
 150.5 494 109 537.5 118 599.5 c 0
165 592.5 m 0
 160 558 182 528 217 526.5 c 0
 252.5 525 290 557.5 295.5 593.5 c 0
 300.5 628.5 281 659 244 660.5 c 0
 206.5 662 170.5 629 165 592.5 c 0
68.5 394.5 m 0
 78.5 466 145.5 514 214.5 513.5 c 0
 283 513.5 334.5 464.5 324.5 393.5 c 0
 314.5 328.5 250 274 178.5 274.5 c 0
 108 275 59 330.5 68.5 394.5 c 0
118 400 m 0
 111 355.5 138.5 320.5 181 319.5 c 0
 224.5 318.5 270 353.5 277 400 c 0
 283 441 255.5 479.5 213.5 480.5 c 0
 170.5 481.5 125 442.5 118 400 c 0
EndSplineSet
EndChar

StartChar: uni2079
Encoding: 8313 8313 173
Width: 335
VWidth: 0
Flags: HMW
LayerCount: 2
Fore
SplineSet
340 564 m 0
 347.5 614.5 321.5 660.5 268 661.5 c 0
 214 663 166 617 157.5 564 c 0
 150 513.5 176 467 229.5 465.5 c 0
 283.5 464 331.5 511 340 564 c 0
178 283 m 1
 113 283.5 l 1
 269 454.5 l 1
 273.5 449.5 l 1
 255 435 234.5 427.5 209 428 c 0
 139 429 100.5 496.5 109.5 564.5 c 0
 121 645 190 707.5 270.5 707.5 c 0
 351 707.5 400 642 388.5 563.5 c 0
 383.5 530.5 367.5 500.5 348 477 c 1
 178 283 l 1
EndSplineSet
EndChar

StartChar: uni2070
Encoding: 8304 8304 174
Width: 361
VWidth: 0
Flags: HMW
LayerCount: 2
Fore
SplineSet
135.5 490 m 0
 127 417 132 324 205.5 322.5 c 0
 279 321 326.5 409 338.5 490 c 0
 347 563 342 656 268.5 657.5 c 0
 195 659 147.5 571 135.5 490 c 0
84.5 490 m 0
 99 598 170.5 706 271 705.5 c 0
 373.5 705 402 591 389.5 490 c 0
 375 382 303.5 274 203 274.5 c 0
 100.5 275 72 389 84.5 490 c 0
EndSplineSet
EndChar

StartChar: uni2080
Encoding: 8320 8320 175
Width: 361
VWidth: 0
Flags: HMW
LayerCount: 2
Fore
SplineSet
87.5 210 m 0
 79 137 84 44 157.5 42.5 c 0
 231 41 278.5 129 290.5 210 c 0
 299 283 294.5 376 221 377.5 c 0
 147.5 379 99.5 291 87.5 210 c 0
37 210 m 0
 51.5 318 123 426 223.5 425.5 c 0
 326 425 354 311 341.5 210 c 0
 327 102 255.5 -6 155 -5.5 c 0
 52.5 -5 24.5 109 37 210 c 0
EndSplineSet
EndChar

StartChar: uni2084
Encoding: 8324 8324 176
Width: 374
VWidth: 0
Flags: HMW
LayerCount: 2
Fore
SplineSet
16 85 m 1
 62.5 128 l 1
 239 129 l 1
 249 129 l 1
 335 128.5 l 1
 327.5 84.5 l 1
 16 85 l 1
70.5 85 m 1
 16 85.5 l 1
 298.5 419 l 1
 320.5 419.5 l 1
 249 0 l 1
 198.5 0 l 1
 216.5 106 l 1
 217.5 112 l 1
 250 301.5 l 1
 70.5 85 l 1
EndSplineSet
EndChar

StartChar: uni2085
Encoding: 8325 8325 177
Width: 345
VWidth: 0
Flags: HMW
LayerCount: 2
Fore
SplineSet
313.5 135.5 m 0
 301.5 49 230 -7.5 148 -7.5 c 0
 79 -7.5 39.5 30 15 81 c 1
 60.5 110 l 1
 76.5 74 106 41 150.5 40.5 c 0
 208 40 252.5 82 261 136 c 0
 269 187.5 241 228.5 188.5 231.5 c 0
 148 233.5 115 218.5 76 195.5 c 1
 110 233.5 l 1
 138 260.5 176.5 278 213 277.5 c 0
 287.5 276.5 323.5 208.5 313.5 135.5 c 0
200.5 373 m 1
 146.5 246.5 l 1
 70.5 190 l 1
 166.5 417.5 l 1
 360 417.5 l 1
 352.5 373.5 l 1
 200.5 373 l 1
EndSplineSet
EndChar

StartChar: uni2086
Encoding: 8326 8326 178
Width: 335
VWidth: 0
Flags: HMW
LayerCount: 2
Fore
SplineSet
77.5 136 m 0
 70 85.5 96 39.5 149.5 38.5 c 0
 203.5 37 251.5 83 260 136 c 0
 267.5 186.5 241.5 233 188 234.5 c 0
 134 236 86 189 77.5 136 c 0
239.5 417 m 1
 305 416.5 l 1
 148.5 245.5 l 1
 144 250.5 l 1
 162.5 265 183 272.5 208.5 272 c 0
 278.5 271 317 203.5 308 135.5 c 0
 296.5 55 227.5 -7.5 147 -7.5 c 0
 66.5 -7.5 17.5 58 29 136.5 c 0
 34 169.5 50 199.5 69.5 223 c 1
 239.5 417 l 1
EndSplineSet
EndChar

StartChar: uni2087
Encoding: 8327 8327 179
Width: 343
VWidth: 0
Flags: HMW
LayerCount: 2
Fore
SplineSet
65 372.5 m 1
 73 419.5 l 1
 361.5 419.5 l 1
 93.5 0 l 1
 40 0 l 1
 275 371.5 l 1
 65 372.5 l 1
EndSplineSet
EndChar

StartChar: uni2088
Encoding: 8328 8328 180
Width: 312
VWidth: 0
Flags: HMW
LayerCount: 2
Fore
SplineSet
70 319.5 m 0
 79 377.5 136.5 426 199.5 425.5 c 0
 262 425 305 376 297 318.5 c 0
 288.5 256.5 232.5 213 167.5 213.5 c 0
 102.5 214 61 257.5 70 319.5 c 0
117.5 312.5 m 0
 112.5 278 134 248 169 246.5 c 0
 204.5 245 242 277.5 247.5 313.5 c 0
 252.5 348.5 233 379 196 380.5 c 0
 158.5 382 123 349 117.5 312.5 c 0
20.5 114.5 m 0
 30.5 186 97.5 234 166.5 233.5 c 0
 235 233.5 286.5 184.5 276.5 113.5 c 0
 266.5 48.5 202 -6 130.5 -5.5 c 0
 60 -5 11 50.5 20.5 114.5 c 0
70 120 m 0
 63 75.5 91 40.5 133.5 39.5 c 0
 177 38.5 222.5 73.5 229.5 120 c 0
 235.5 161 208 199.5 166 200.5 c 0
 123 201.5 77 162.5 70 120 c 0
EndSplineSet
EndChar

StartChar: uni2089
Encoding: 8329 8329 181
Width: 335
VWidth: 0
Flags: HMW
LayerCount: 2
Fore
SplineSet
275.5 284 m 0
 283 334.5 257 380.5 203.5 381.5 c 0
 149.5 383 101.5 337 93 284 c 0
 85.5 233.5 111.5 187 165 185.5 c 0
 219 184 267 231 275.5 284 c 0
114 3 m 1
 48.5 3.5 l 1
 205 174.5 l 1
 209.5 169.5 l 1
 191 155 170 147.5 144.5 148 c 0
 74.5 149 36 216.5 45 284.5 c 0
 56.5 365 126 427.5 206.5 427.5 c 0
 287 427.5 335.5 362 324 283.5 c 0
 319 250.5 303.5 220.5 284 197 c 1
 114 3 l 1
EndSplineSet
EndChar

StartChar: uni2081
Encoding: 8321 8321 182
Width: 304
VWidth: 0
Flags: HMW
LayerCount: 2
Fore
SplineSet
118 339 m 1
 126 391 l 1
 275 427.5 l 1
 201 1.5 l 1
 150.5 1.5 l 1
 211 364.5 l 1
 118 339 l 1
EndSplineSet
EndChar

StartChar: uni2082
Encoding: 8322 8322 183
Width: 335
VWidth: 0
Flags: HMW
LayerCount: 2
Fore
SplineSet
-2.5 3 m 1
 223.5 214 l 2
 252 240.5 278.5 270 284.5 306 c 0
 290 342 271.5 378.5 226 380.5 c 0
 169 383.5 130.5 333 118 279 c 1
 67 279 l 1
 84 360 140.5 429.5 229 428.5 c 0
 310.5 428 345 361.5 335 301.5 c 0
 327.5 256.5 297 218.5 262 186 c 2
 110.5 50.5 l 1
 293 49.5 l 1
 285.5 2.5 l 1
 -2.5 3 l 1
EndSplineSet
EndChar

StartChar: uni2083
Encoding: 8323 8323 184
Width: 302
VWidth: 0
Flags: HMW
LayerCount: 2
Fore
SplineSet
144.5 208 m 1
 150 240 l 1
 199 245 237.5 269.5 246 313 c 0
 251.5 348 236 378 197.5 379.5 c 0
 158 381.5 127.5 349.5 117 317 c 1
 68 317.5 l 1
 83 377.5 131.5 426.5 200.5 425.5 c 0
 267.5 424.5 306.5 371.5 297 313.5 c 0
 285.5 248 218.5 212.5 144.5 208 c 1
128.5 -5.5 m 0
 51 -5.5 12 45.5 15.5 111 c 1
 65.5 111 l 1
 65.5 72.5 85.5 43.5 131.5 42.5 c 0
 177 41.5 217 74.5 223.5 117.5 c 0
 232 170 190.5 190.5 142 195 c 1
 147.5 227.5 l 1
 222 223.5 286 191.5 274 110.5 c 0
 264 42 200 -5.5 128.5 -5.5 c 0
EndSplineSet
EndChar

StartChar: Agrave
Encoding: 192 192 185
Width: 640
VWidth: 0
Flags: HMW
LayerCount: 2
Fore
SplineSet
151.5 211 m 1
 193 289.5 l 1
 495.5 290 l 1
 511.5 210 l 1
 151.5 211 l 1
388 542 m 1
 225.5 264 l 1
 215 246 l 1
 71 0 l 1
 -25 0 l 1
 418.5 736.5 l 1
 608 0 l 1
 516.5 0 l 1
 458.5 240 l 1
 454.5 260 l 1
 388 542 l 1
327.5 946 m 1
 406.5 985 l 1
 527 824 l 1
 479.5 795 l 1
 327.5 946 l 1
EndSplineSet
EndChar

StartChar: Aacute
Encoding: 193 193 186
Width: 640
VWidth: 0
Flags: HMW
LayerCount: 2
Fore
SplineSet
151.5 211 m 1
 193 289.5 l 1
 495.5 290 l 1
 511.5 210 l 1
 151.5 211 l 1
388 542 m 1
 225.5 264 l 1
 215 246 l 1
 71 0 l 1
 -25 0 l 1
 418.5 736.5 l 1
 608 0 l 1
 516.5 0 l 1
 458.5 240 l 1
 454.5 260 l 1
 388 542 l 1
581.5 942.5 m 1
 382.5 796 l 1
 341 826.5 l 1
 512.5 984.5 l 1
 581.5 942.5 l 1
EndSplineSet
EndChar

StartChar: Acircumflex
Encoding: 194 194 187
Width: 640
VWidth: 0
Flags: HMW
LayerCount: 2
Fore
SplineSet
151.5 211 m 1
 193 289.5 l 1
 495.5 290 l 1
 511.5 210 l 1
 151.5 211 l 1
388 542 m 1
 225.5 264 l 1
 215 246 l 1
 71 0 l 1
 -25 0 l 1
 418.5 736.5 l 1
 608 0 l 1
 516.5 0 l 1
 458.5 240 l 1
 454.5 260 l 1
 388 542 l 1
441 849.5 m 1
 317 755.5 l 1
 272.5 796.5 l 1
 451 935 l 1
 585 794 l 1
 531 755.5 l 1
 441 849.5 l 1
EndSplineSet
EndChar

StartChar: Atilde
Encoding: 195 195 188
Width: 640
VWidth: 0
Flags: HMW
LayerCount: 2
Fore
SplineSet
151.5 211 m 1
 193 289.5 l 1
 495.5 290 l 1
 511.5 210 l 1
 151.5 211 l 1
388 542 m 1
 225.5 264 l 1
 215 246 l 1
 71 0 l 1
 -25 0 l 1
 418.5 736.5 l 1
 608 0 l 1
 516.5 0 l 1
 458.5 240 l 1
 454.5 260 l 1
 388 542 l 1
270.5 813.5 m 1
 290 856 335.5 895 384 893.5 c 0
 436 892.5 449.5 846 496 847.5 c 0
 519.5 848.5 540.5 870 560 894.5 c 1
 599.5 850.5 l 1
 576.5 816.5 535 777.5 486 779.5 c 0
 439.5 781 418.5 826.5 376.5 825.5 c 0
 341 824.5 327 793.5 318.5 775.5 c 1
 270.5 813.5 l 1
EndSplineSet
EndChar

StartChar: Adieresis
Encoding: 196 196 189
Width: 640
VWidth: 0
Flags: HMW
LayerCount: 2
Fore
SplineSet
151.5 211 m 1
 193 289.5 l 1
 495.5 290 l 1
 511.5 210 l 1
 151.5 211 l 1
388 542 m 1
 225.5 264 l 1
 215 246 l 1
 71 0 l 1
 -25 0 l 1
 418.5 736.5 l 1
 608 0 l 1
 516.5 0 l 1
 458.5 240 l 1
 454.5 260 l 1
 388 542 l 1
481.5 851 m 0
 484.5 878 516 906 543.5 904.5 c 0
 572 903 592 877 589 849 c 0
 586 822 554.5 794 527 795.5 c 0
 498.5 797 478.5 823 481.5 851 c 0
287 851 m 0
 290 878 322 906 349.5 904.5 c 0
 378 903 398 877 395 849 c 0
 392 822 360.5 794 333 795.5 c 0
 304.5 797 284 823 287 851 c 0
EndSplineSet
EndChar

StartChar: Aring
Encoding: 197 197 190
Width: 640
VWidth: 0
Flags: HMW
LayerCount: 2
Fore
SplineSet
151.5 211 m 1
 193 289.5 l 1
 495.5 290 l 1
 511.5 210 l 1
 151.5 211 l 1
388 542 m 1
 225.5 264 l 1
 215 246 l 1
 71 0 l 1
 -25 0 l 1
 418.5 736.5 l 1
 608 0 l 1
 516.5 0 l 1
 458.5 240 l 1
 454.5 260 l 1
 388 542 l 1
329.5 799 m 0
 337 854 391.5 898 444.5 897.5 c 0
 497.5 897 536.5 851.5 529 797 c 0
 521.5 742 467 698 414 698.5 c 0
 361 699 322 744.5 329.5 799 c 0
379.5 797.5 m 0
 376.5 771 394.5 747 418.5 745.5 c 0
 443 743.5 476 771 479 798.5 c 0
 482 825 464 849 440 850.5 c 0
 415.5 852.5 382.5 825 379.5 797.5 c 0
EndSplineSet
EndChar

StartChar: AE
Encoding: 198 198 191
Width: 931
VWidth: 0
Flags: HMW
LayerCount: 2
Fore
SplineSet
219.5 210.5 m 1
 233 290 l 1
 525.5 290 l 1
 512 210 l 1
 219.5 210.5 l 1
516.5 700 m 1
 575.5 657.5 l 1
 71.5 0 l 1
 -22.5 0 l 1
 516.5 700 l 1
494.5 0 m 1
 507.5 80 l 1
 852 80 l 1
 838 0 l 1
 494.5 0 l 1
610.5 620 m 1
 516.5 700 l 1
 957.5 700 l 1
 944 620 l 1
 610.5 620 l 1
552.5 340.5 m 1
 565.5 420 l 1
 890.5 420 l 1
 877 340 l 1
 552.5 340.5 l 1
566.5 699.5 m 1
 652 700 l 1
 531 0 l 1
 448.5 0 l 1
 566.5 699.5 l 1
EndSplineSet
EndChar

StartChar: Ccedilla
Encoding: 199 199 192
Width: 664
VWidth: 0
Flags: HMW
LayerCount: 2
Fore
SplineSet
159.5 350 m 0
 138 208 217 77 361 75.5 c 0
 457.5 74.5 539 120 600 178 c 1
 582.5 66.5 l 1
 517.5 17.5 446.5 -10.5 352.5 -10 c 0
 157 -9 43 161.5 70.5 350 c 0
 101 548 270.5 709 469.5 710 c 0
 558.5 710.5 621.5 685.5 678 632.5 c 1
 660 521 l 1
 617 586 549.5 624.5 461 624.5 c 0
 315 624 184.5 501 159.5 350 c 0
350 58 m 1
 410.5 58 l 1
 329 -53 l 1
 331.5 -53 334 -53 336.5 -53 c 0
 372 -56.5 401.5 -84.5 396.5 -128 c 0
 389.5 -184.5 332.5 -220.5 279 -220.5 c 0
 243.5 -220.5 221 -206.5 195.5 -181.5 c 1
 233.5 -143.5 l 1
 249.5 -157 261.5 -167 284 -167 c 0
 311.5 -167 338 -149.5 341 -126.5 c 0
 344 -104 326.5 -91.5 300.5 -91 c 0
 285 -90 259.5 -97.5 239.5 -108 c 1
 350 58 l 1
EndSplineSet
EndChar

StartChar: Egrave
Encoding: 200 200 193
Width: 533
VWidth: 0
Flags: HMW
LayerCount: 2
Fore
SplineSet
96.5 0 m 1
 109.5 80 l 1
 454 80 l 1
 440.5 0 l 1
 96.5 0 l 1
202.5 620.5 m 1
 215.5 700 l 1
 559.5 700 l 1
 546 620 l 1
 202.5 620.5 l 1
154.5 340.5 m 1
 168 420 l 1
 492.5 420 l 1
 479 340 l 1
 154.5 340.5 l 1
168.5 699.5 m 1
 254 700 l 1
 133 0 l 1
 51 0 l 1
 168.5 699.5 l 1
274.5 921 m 1
 353.5 960 l 1
 474 799 l 1
 427 770 l 1
 274.5 921 l 1
EndSplineSet
EndChar

StartChar: Eacute
Encoding: 201 201 194
Width: 533
VWidth: 0
Flags: HMW
LayerCount: 2
Fore
SplineSet
96.5 0 m 1
 109.5 80 l 1
 454 80 l 1
 440.5 0 l 1
 96.5 0 l 1
202.5 620.5 m 1
 215.5 700 l 1
 559.5 700 l 1
 546 620 l 1
 202.5 620.5 l 1
154.5 340.5 m 1
 168 420 l 1
 492.5 420 l 1
 479 340 l 1
 154.5 340.5 l 1
168.5 699.5 m 1
 254 700 l 1
 133 0 l 1
 51 0 l 1
 168.5 699.5 l 1
528.5 917.5 m 1
 329.5 771 l 1
 288 801.5 l 1
 460 959.5 l 1
 528.5 917.5 l 1
EndSplineSet
EndChar

StartChar: Ecircumflex
Encoding: 202 202 195
Width: 533
VWidth: 0
Flags: HMW
LayerCount: 2
Fore
SplineSet
96.5 0 m 1
 109.5 80 l 1
 454 80 l 1
 440.5 0 l 1
 96.5 0 l 1
202.5 620.5 m 1
 215.5 700 l 1
 559.5 700 l 1
 546 620 l 1
 202.5 620.5 l 1
154.5 340.5 m 1
 168 420 l 1
 492.5 420 l 1
 479 340 l 1
 154.5 340.5 l 1
168.5 699.5 m 1
 254 700 l 1
 133 0 l 1
 51 0 l 1
 168.5 699.5 l 1
404.5 864.5 m 1
 281 770.5 l 1
 236.5 811.5 l 1
 414.5 950 l 1
 548.5 809 l 1
 495 770.5 l 1
 404.5 864.5 l 1
EndSplineSet
EndChar

StartChar: Edieresis
Encoding: 203 203 196
Width: 533
VWidth: 0
Flags: HMW
LayerCount: 2
Fore
SplineSet
96.5 0 m 1
 109.5 80 l 1
 454 80 l 1
 440.5 0 l 1
 96.5 0 l 1
202.5 620.5 m 1
 215.5 700 l 1
 559.5 700 l 1
 546 620 l 1
 202.5 620.5 l 1
154.5 340.5 m 1
 168 420 l 1
 492.5 420 l 1
 479 340 l 1
 154.5 340.5 l 1
168.5 699.5 m 1
 254 700 l 1
 133 0 l 1
 51 0 l 1
 168.5 699.5 l 1
441.5 846 m 0
 444.5 873 476.5 901 504 899.5 c 0
 532.5 898 552.5 872 549.5 844 c 0
 546.5 817 515 789 487.5 790.5 c 0
 459 792 438.5 818 441.5 846 c 0
247.5 846 m 0
 250.5 873 282 901 309.5 899.5 c 0
 338 898 358.5 872 355.5 844 c 0
 352.5 817 321 789 293.5 790.5 c 0
 265 792 244.5 818 247.5 846 c 0
EndSplineSet
EndChar

StartChar: Igrave
Encoding: 204 204 197
Width: 237
VWidth: 0
Flags: HMW
LayerCount: 2
Fore
SplineSet
168.5 699.5 m 1
 254 700 l 1
 133 0 l 1
 51 0 l 1
 168.5 699.5 l 1
121.5 921 m 1
 201 960 l 1
 321.5 799 l 1
 273.5 770 l 1
 121.5 921 l 1
EndSplineSet
EndChar

StartChar: Iacute
Encoding: 205 205 198
Width: 237
VWidth: 0
Flags: HMW
LayerCount: 2
Fore
SplineSet
168.5 699.5 m 1
 254 700 l 1
 133 0 l 1
 51 0 l 1
 168.5 699.5 l 1
375 917.5 m 1
 176 770.5 l 1
 135.5 801.5 l 1
 307.5 959.5 l 1
 375 917.5 l 1
EndSplineSet
EndChar

StartChar: Icircumflex
Encoding: 206 206 199
Width: 237
VWidth: 0
Flags: HMW
LayerCount: 2
Fore
SplineSet
168.5 699.5 m 1
 254 700 l 1
 133 0 l 1
 51 0 l 1
 168.5 699.5 l 1
241.5 864.5 m 1
 117.5 770.5 l 1
 73.5 811.5 l 1
 251.5 950 l 1
 385.5 809 l 1
 332 770.5 l 1
 241.5 864.5 l 1
EndSplineSet
EndChar

StartChar: Idieresis
Encoding: 207 207 200
Width: 237
VWidth: 0
Flags: HMW
LayerCount: 2
Fore
SplineSet
168.5 699.5 m 1
 254 700 l 1
 133 0 l 1
 51 0 l 1
 168.5 699.5 l 1
276 826 m 0
 279 852.5 310 881 337.5 879.5 c 0
 366 878 387 852 384 824 c 0
 381 797 348.5 769 321 770.5 c 0
 292 772 273 798.5 276 826 c 0
82 826 m 0
 85 852.5 115.5 881 143 879.5 c 0
 171.5 878 193 852 190 824 c 0
 187 797 154.5 769 127 770.5 c 0
 98 772 79 798.5 82 826 c 0
EndSplineSet
EndChar

StartChar: Ntilde
Encoding: 209 209 201
Width: 752
VWidth: 0
Flags: HMW
LayerCount: 2
Fore
SplineSet
684 700 m 1
 768 700 l 1
 642 -34 l 1
 223.5 521.5 l 1
 133.5 0 l 1
 49 0 l 1
 175 734 l 1
 594 178.5 l 1
 684 700 l 1
316 793.5 m 1
 335.5 836 380.5 875 429 873.5 c 0
 481 872.5 495 826 541.5 827.5 c 0
 565 828.5 585.5 850 605 874.5 c 1
 644.5 830.5 l 1
 621.5 796.5 580 757.5 531 759.5 c 0
 484.5 761 464 806.5 422 805.5 c 0
 386.5 804.5 372 773.5 363.5 755.5 c 1
 316 793.5 l 1
EndSplineSet
EndChar

StartChar: Eth
Encoding: 208 208 202
Width: 659
VWidth: 0
Flags: HMW
LayerCount: 2
Fore
SplineSet
31 310.5 m 1
 43.5 385 l 1
 336 385 l 1
 323.5 310 l 1
 31 310.5 l 1
168.5 699.5 m 1
 254 700 l 1
 133 0 l 1
 51 0 l 1
 168.5 699.5 l 1
257.5 0 m 1
 95 0 l 1
 110 85 l 1
 266 85 l 1
 423.5 88 544.5 195.5 570.5 350 c 0
 594 497 516.5 611.5 362 615 c 1
 200 615 l 1
 215 700 l 1
 370.5 700 l 1
 570.5 696.5 683 542 654.5 350 c 0
 623.5 150 461.5 3 257.5 0 c 1
EndSplineSet
EndChar

StartChar: Ograve
Encoding: 210 210 203
Width: 766
VWidth: 0
Flags: HMW
LayerCount: 2
Fore
SplineSet
159.5 350 m 0
 137.5 209 213 76.5 366 75.5 c 0
 521 74.5 647.5 201 672.5 350 c 0
 694.5 491 619 623.5 466 624.5 c 0
 311 625.5 184.5 499 159.5 350 c 0
70.5 350 m 0
 101 546 269.5 710.5 474 710 c 0
 675.5 709.5 789 537.5 761.5 350 c 0
 731 154 562 -10.5 357.5 -10 c 0
 156 -9.5 43 162.5 70.5 350 c 0
396 921 m 1
 475 960 l 1
 595.5 799 l 1
 548 770 l 1
 396 921 l 1
EndSplineSet
EndChar

StartChar: Oacute
Encoding: 211 211 204
Width: 766
VWidth: 0
Flags: HMW
LayerCount: 2
Fore
SplineSet
159.5 350 m 0
 137.5 209 213 76.5 366 75.5 c 0
 521 74.5 647.5 201 672.5 350 c 0
 694.5 491 619 623.5 466 624.5 c 0
 311 625.5 184.5 499 159.5 350 c 0
70.5 350 m 0
 101 546 269.5 710.5 474 710 c 0
 675.5 709.5 789 537.5 761.5 350 c 0
 731 154 562 -10.5 357.5 -10 c 0
 156 -9.5 43 162.5 70.5 350 c 0
630.5 917.5 m 1
 431.5 771 l 1
 390 801.5 l 1
 561.5 959.5 l 1
 630.5 917.5 l 1
EndSplineSet
EndChar

StartChar: Ocircumflex
Encoding: 212 212 205
Width: 766
VWidth: 0
Flags: HMW
LayerCount: 2
Fore
SplineSet
159.5 350 m 0
 137.5 209 213 76.5 366 75.5 c 0
 521 74.5 647.5 201 672.5 350 c 0
 694.5 491 619 623.5 466 624.5 c 0
 311 625.5 184.5 499 159.5 350 c 0
70.5 350 m 0
 101 546 270 710.5 474.5 710 c 0
 676 709.5 789 537.5 761.5 350 c 0
 731 154 562 -10.5 357.5 -10 c 0
 156 -9.5 43 162.5 70.5 350 c 0
506.5 864.5 m 1
 382.5 770.5 l 1
 338.5 811.5 l 1
 516.5 950 l 1
 650.5 809 l 1
 597 770.5 l 1
 506.5 864.5 l 1
EndSplineSet
EndChar

StartChar: Otilde
Encoding: 213 213 206
Width: 766
VWidth: 0
Flags: HMW
LayerCount: 2
Fore
SplineSet
159.5 350 m 0
 137.5 209 213 76.5 366 75.5 c 0
 521 74.5 647.5 201 672.5 350 c 0
 694.5 491 619 623.5 466 624.5 c 0
 311 625.5 184.5 499 159.5 350 c 0
70.5 350 m 0
 101 546 270 710.5 474.5 710 c 0
 676 709.5 789 537.5 761.5 350 c 0
 731 154 562 -10.5 357.5 -10 c 0
 156 -9.5 43 162.5 70.5 350 c 0
333 808.5 m 1
 333.5 853 409.5 889 446 888.5 c 0
 498 887.5 511.5 841 558.5 842.5 c 0
 582 843.5 602.5 865 622 889.5 c 1
 661.5 845.5 l 1
 638.5 811.5 597.5 772.5 548.5 774.5 c 0
 502 776 481 821.5 439 820.5 c 0
 403.5 819.5 389 788.5 380.5 770.5 c 1
 333 808.5 l 1
EndSplineSet
EndChar

StartChar: Odieresis
Encoding: 214 214 207
Width: 766
VWidth: 0
Flags: HMW
LayerCount: 2
Fore
SplineSet
159.5 350 m 0
 137.5 209 213 76.5 366 75.5 c 0
 521 74.5 647.5 201 672.5 350 c 0
 694.5 491 619 623.5 466 624.5 c 0
 311 625.5 184.5 499 159.5 350 c 0
70.5 350 m 0
 101 546 269.5 710.5 474 710 c 0
 675.5 709.5 789 537.5 761.5 350 c 0
 731 154 562 -10.5 357.5 -10 c 0
 156 -9.5 43 162.5 70.5 350 c 0
540 826 m 0
 543 853 574.5 881 602 879.5 c 0
 630.5 878 651 852 648 824 c 0
 645 797 613.5 769 586 770.5 c 0
 557.5 772 537 798 540 826 c 0
346 826 m 0
 349 853 380.5 881 408 879.5 c 0
 436.5 878 457 852 454 824 c 0
 451 797 419.5 769 392 770.5 c 0
 363.5 772 343 798 346 826 c 0
EndSplineSet
EndChar

StartChar: Ugrave
Encoding: 217 217 208
Width: 607
VWidth: 0
Flags: HMW
LayerCount: 2
Fore
SplineSet
165 700 m 1
 249 700 l 1
 167.5 230 l 2
 156 144.5 189 71.5 286 70.5 c 0
 384 69.5 447 140.5 463.5 230 c 1
 544.5 700 l 1
 628.5 700 l 1
 548 230 l 2
 525 97.5 421.5 -9.5 278 -9.5 c 0
 137 -9.5 67 101 84.5 230 c 1
 165 700 l 1
306.5 921 m 1
 385.5 960 l 1
 506 799 l 1
 459 770 l 1
 306.5 921 l 1
EndSplineSet
EndChar

StartChar: Uacute
Encoding: 218 218 209
Width: 607
VWidth: 0
Flags: HMW
LayerCount: 2
Fore
SplineSet
165 700 m 1
 249 700 l 1
 167.5 230 l 2
 156 144.5 189 71.5 286 70.5 c 0
 384 69.5 447 140.5 463.5 230 c 1
 544.5 700 l 1
 628.5 700 l 1
 548 230 l 2
 525 97.5 421.5 -9.5 278 -9.5 c 0
 137 -9.5 67 101 84.5 230 c 1
 165 700 l 1
560.5 917.5 m 1
 361.5 771 l 1
 320 801.5 l 1
 492 959.5 l 1
 560.5 917.5 l 1
EndSplineSet
EndChar

StartChar: Ucircumflex
Encoding: 219 219 210
Width: 607
VWidth: 0
Flags: HMW
LayerCount: 2
Fore
SplineSet
165 700 m 1
 249 700 l 1
 167.5 230 l 2
 156 144.5 189 71.5 286 70.5 c 0
 384 69.5 447 140.5 463.5 230 c 1
 544.5 700 l 1
 628.5 700 l 1
 548 230 l 2
 525 97.5 421.5 -9.5 278 -9.5 c 0
 137 -9.5 67 101 84.5 230 c 1
 165 700 l 1
427 864.5 m 1
 303 770.5 l 1
 259 811.5 l 1
 437 950 l 1
 571 809 l 1
 517 770.5 l 1
 427 864.5 l 1
EndSplineSet
EndChar

StartChar: Udieresis
Encoding: 220 220 211
Width: 607
VWidth: 0
Flags: HMW
LayerCount: 2
Fore
SplineSet
165 700 m 1
 249 700 l 1
 167.5 230 l 2
 156 144.5 189 71.5 286 70.5 c 0
 384 69.5 447 140.5 463.5 230 c 1
 544.5 700 l 1
 628.5 700 l 1
 548 230 l 2
 525 97.5 421.5 -9.5 278 -9.5 c 0
 137 -9.5 67 101 84.5 230 c 1
 165 700 l 1
460.5 826 m 0
 463.5 853 495 881 522.5 879.5 c 0
 551 878 571.5 852 568.5 824 c 0
 565.5 797 534 769 506.5 770.5 c 0
 478 772 457.5 798 460.5 826 c 0
266.5 826 m 0
 269.5 853 301 881 328.5 879.5 c 0
 357 878 377.5 852 374.5 824 c 0
 371.5 797 339.5 769 312 770.5 c 0
 283.5 772 263.5 798 266.5 826 c 0
EndSplineSet
EndChar

StartChar: Yacute
Encoding: 221 221 212
Width: 544
VWidth: 0
Flags: HMW
LayerCount: 2
Fore
SplineSet
528.5 917.5 m 1
 329.5 770.5 l 1
 289 801.5 l 1
 460.5 959.5 l 1
 528.5 917.5 l 1
538 699.5 m 1
 634.5 699.5 l 1
 338 299.5 l 1
 286.5 0 l 1
 202.5 0 l 1
 256 304 l 1
 98 700 l 1
 189 700 l 1
 307.5 377.5 l 1
 538 699.5 l 1
EndSplineSet
EndChar

StartChar: agrave
Encoding: 224 224 213
Width: 553
VWidth: 0
Flags: HMW
LayerCount: 2
Fore
SplineSet
462.5 459.5 m 1
 538.5 460 l 1
 458.5 0 l 1
 385.5 0 l 1
 462.5 459.5 l 1
45 230 m 0
 64.5 365.5 175.5 471 305.5 470 c 0
 429 469 471.5 353.5 455.5 230 c 0
 437.5 99 352 -9 229.5 -9.5 c 0
 100 -10 27 100 45 230 c 0
125 230 m 0
 111.5 140.5 157.5 65.5 246 65.5 c 0
 326 65.5 405 137.5 419.5 230 c 0
 431.5 317 386.5 392.5 308 394.5 c 0
 218.5 396.5 140 324 125 230 c 0
198 681 m 1
 276.5 720 l 1
 397 559 l 1
 350 530 l 1
 198 681 l 1
EndSplineSet
Substitution2: "alt a" agrave.alt
EndChar

StartChar: aacute
Encoding: 225 225 214
Width: 553
VWidth: 0
Flags: HMW
LayerCount: 2
Fore
SplineSet
462.5 459.5 m 1
 538.5 460 l 1
 458.5 0.5 l 1
 385.5 0 l 1
 462.5 459.5 l 1
45 230 m 0
 64.5 365.5 175.5 471 305.5 470 c 0
 429 469 471.5 353.5 455.5 230 c 0
 437.5 99 352 -9 229.5 -9.5 c 0
 100 -10 27 100 45 230 c 0
125 230 m 0
 111.5 140.5 157.5 65.5 246 65.5 c 0
 326 65.5 405 137.5 419.5 230 c 0
 431.5 317 386.5 392.5 308 394.5 c 0
 218.5 396.5 140 324 125 230 c 0
471 677.5 m 1
 272 531 l 1
 230.5 561.5 l 1
 402.5 719.5 l 1
 471 677.5 l 1
EndSplineSet
Substitution2: "alt a" aacute.alt
EndChar

StartChar: acircumflex
Encoding: 226 226 215
Width: 553
VWidth: 0
Flags: HMW
LayerCount: 2
Fore
SplineSet
462.5 459.5 m 1
 538.5 460 l 1
 458.5 0 l 1
 385.5 0 l 1
 462.5 459.5 l 1
45 230 m 0
 64.5 365.5 175.5 471 305.5 470 c 0
 429 469 471.5 353.5 455.5 230 c 0
 437.5 99 352 -9 229.5 -9.5 c 0
 100 -10 27 100 45 230 c 0
125 230 m 0
 111.5 140.5 157.5 65.5 246 65.5 c 0
 326 65.5 405 137.5 419.5 230 c 0
 431.5 317 386.5 392.5 308 394.5 c 0
 218.5 396.5 140 324 125 230 c 0
357 624.5 m 1
 233 530.5 l 1
 188.5 571.5 l 1
 367 710 l 1
 501 569 l 1
 447 530.5 l 1
 357 624.5 l 1
EndSplineSet
Substitution2: "alt a" acircumflex.alt
EndChar

StartChar: atilde
Encoding: 227 227 216
Width: 553
VWidth: 0
Flags: HMW
LayerCount: 2
Fore
SplineSet
462.5 459.5 m 1
 538.5 460 l 1
 458.5 0 l 1
 385.5 0 l 1
 462.5 459.5 l 1
45 230 m 0
 64.5 365.5 175.5 471 305.5 470 c 0
 429 469 471.5 353.5 455.5 230 c 0
 437.5 99 352 -9 229.5 -9.5 c 0
 100 -10 27 100 45 230 c 0
125 230 m 0
 111.5 140.5 157.5 65.5 246 65.5 c 0
 326 65.5 405 137.5 419.5 230 c 0
 431.5 317 386.5 392.5 308 394.5 c 0
 218.5 396.5 140 324 125 230 c 0
183.5 568.5 m 1
 204 613 250 648.5 296.5 648.5 c 0
 348.5255 648.5 362 601 409 602.5 c 0
 432.5 603.5 453 625 472.5 649.5 c 1
 512 605.5 l 1
 489 571.5 447.5 532.5 398.5 534.5 c 0
 352 536 331.5 581.5 289.5 580.5 c 0
 254 579.5 239.5 548.5 231 530.5 c 1
 183.5 568.5 l 1
EndSplineSet
Substitution2: "alt a" atilde.alt
EndChar

StartChar: adieresis
Encoding: 228 228 217
Width: 553
VWidth: 0
Flags: HMW
LayerCount: 2
Fore
SplineSet
462.5 459.5 m 1
 538.5 460 l 1
 458.5 0 l 1
 385.5 0 l 1
 462.5 459.5 l 1
45 230 m 0
 64.5 365.5 175.5 471 305.5 470 c 0
 429 469 471.5 353.5 455.5 230 c 0
 437.5 99 352 -9 229.5 -9.5 c 0
 100 -10 27 100 45 230 c 0
125 230 m 0
 111.5 140.5 157.5 65.5 246 65.5 c 0
 326 65.5 405 137.5 419.5 230 c 0
 431.5 317 386.5 392.5 308 394.5 c 0
 218.5 396.5 140 324 125 230 c 0
390.5 586 m 0
 393.5 613 425 641 452.5 639.5 c 0
 481 638 501.5 612 498.5 584 c 0
 495.5 557 463.5 529 436 530.5 c 0
 407.5 532 387.5 558 390.5 586 c 0
196.5 586 m 0
 199.5 613 231 641 258.5 639.5 c 0
 287 638 307 612 304 584 c 0
 301 557 269.5 529 242 530.5 c 0
 213.5 532 193.5 558 196.5 586 c 0
EndSplineSet
Substitution2: "alt a" adieresis.alt
EndChar

StartChar: aring
Encoding: 229 229 218
Width: 553
VWidth: 0
Flags: HMW
LayerCount: 2
Fore
SplineSet
462.5 459.5 m 1
 538.5 460 l 1
 458.5 0 l 1
 385.5 0 l 1
 462.5 459.5 l 1
45 230 m 0
 64.5 365.5 175.5 471 305.5 470 c 0
 429 469 471.5 353.5 455.5 230 c 0
 437.5 99 352 -9 229.5 -9.5 c 0
 100 -10 27 100 45 230 c 0
125 230 m 0
 111.5 140.5 157.5 65.5 246 65.5 c 0
 326 65.5 405 137.5 419.5 230 c 0
 431.5 317 386.5 392.5 308 394.5 c 0
 218.5 396.5 140 324 125 230 c 0
229 630 m 0
 236.5 685 290.5 729.5 343.5 729 c 0
 396.5 728.5 436 683 428.5 628.5 c 0
 421 573.5 366.5 529.5 313.5 530 c 0
 260.5 530.5 221.5 575.5 229 630 c 0
279 629 m 0
 276 602.5 293.9025 577 318 577 c 0
 342.5 577 375.5 602.5 378.5 630 c 0
 381.5 656.5 363.5975 681.5 339.5 681.5 c 0
 314.5 681.5 282 656.5 279 629 c 0
EndSplineSet
Substitution2: "alt a" aring.alt
EndChar

StartChar: germandbls
Encoding: 223 223 219
Width: 553
VWidth: 0
Flags: HMW
LayerCount: 2
Fore
SplineSet
247 65 m 1
 335 73 426.5 134.5 443.5 235 c 0
 461 327 386.5 397.5 286.5 404.5 c 1
 295 459 l 1
 437.5 453.5 543.5 362.5 521.5 224.5 c 0
 499 85 372.5 -3 235 -9.5 c 1
 247 65 l 1
290 425.5 m 1
 298.5 480 l 1
 391.5 485 452 529 466.5 596 c 0
 478 659.5 446 714 366.5 714.5 c 0
 302.5 715 243.5 675 233 606 c 2
 128.5 0 l 1
 49 0 l 1
 152.5 606.5 l 2
 170 711.5 261 789.5 373.5 789.5 c 0
 495.0095 789.5 564.5 712.5 548 605.5 c 0
 527.5 482 429 429 290 425.5 c 1
EndSplineSet
EndChar

StartChar: ae
Encoding: 230 230 220
Width: 800
VWidth: 0
Flags: HMW
LayerCount: 2
Fore
SplineSet
103.5 135 m 0
 95.5 86.5 128.5 62.5 182.5 61.5 c 0
 263.5 60 319 103.5 337.5 179.5 c 1
 375.5 128.5 l 1
 353.5 42.5 271.5 -9.5 176 -9.5 c 0
 78 -9.5 9 38.5 22.5 125.5 c 0
 37 228.5 133 286 238.5 285.5 c 0
 309.5 285.5 355 253.5 379 224.5 c 1
 371.5 178.5 l 1
 331 209 289.5 225 237 224.5 c 0
 167.5 224 113.5 193 103.5 135 c 0
142 352 m 1
 113 414.5 l 1
 157.5 442 217.5 470 291 469.5 c 0
 386.5 468.5 433.5 416.5 422.5 330 c 1
 389 130.5 l 1
 329.5 130.5 l 1
 363 320 l 1
 367.5 365 332 397.5 284.5 399 c 0
 226 401 175 371.5 142 352 c 1
402.5 210.5 m 1
 413.5 277.5 l 1
 766.5 278 l 1
 775 210 l 1
 402.5 210.5 l 1
699.5 250 m 2
 710 325.5 688 398 600 399.5 c 0
 517 401 450.5 339 433.5 260 c 1
 426 230 l 1
 413 141 445 67 537 65.5 c 0
 602.5 64.5 653.5 102.5 692 147.5 c 1
 751 105.5 l 1
 695 39 627.5 -11 520.5 -9.5 c 0
 395.5 -7.5 333 109 355.5 230 c 0
 359.5 247 370.5 263 377 279 c 0
 416.5 382.5 495 470.5 616 469.5 c 0
 736 468.5 795 357.5 780.5 234 c 0
 779.5 226 778 218.5 776 210.5 c 1
 696 230.5 l 1
 699.5 250 l 2
EndSplineSet
EndChar

StartChar: ccedilla
Encoding: 231 231 221
Width: 463
VWidth: 0
Flags: HMW
LayerCount: 2
Fore
SplineSet
120 230 m 0
 106.5 145 151.5 67 241.5 65.5 c 0
 313.5 64.5 377.5 103.5 413.5 148 c 1
 398 48.5 l 1
 357 12.5 296.5 -9.5 234 -9.5 c 0
 100 -9 22 102.5 40.5 230 c 0
 60.5 363 174.5 469 310.5 469.5 c 0
 369.5 469.5 424 449 458.5 410.5 c 1
 442.5 311 l 1
 422.5 361 370 395 303.5 394.5 c 0
 212 394 135.5 320 120 230 c 0
232 58 m 1
 292 58 l 1
 211 -53 l 1
 213.5 -53 215.5 -53 218 -53 c 0
 253.5 -56.5 283 -84.5 278 -128 c 0
 271 -184.5 214 -220.5 160.5 -220.5 c 0
 125 -220.5 102.5 -206.5 77 -181.5 c 1
 115.5 -143.5 l 1
 131.5 -157 143 -167 165.5 -167 c 0
 193 -167 220 -149.5 223 -126.5 c 0
 226 -104 208 -91.5 182 -91 c 0
 166.5 -90 141 -97.5 121 -108 c 1
 232 58 l 1
EndSplineSet
EndChar

StartChar: egrave
Encoding: 232 232 222
Width: 499
VWidth: 0
Flags: HMW
LayerCount: 2
Fore
SplineSet
92 210.5 m 1
 103 277.5 l 1
 400.5 278 l 1
 401.5 344.5 376 398.5 299 399.5 c 0
 216 400.5 149.5 339 132.5 260 c 1
 125 230 l 1
 112 141 145 67 236.5 65.5 c 0
 302 64.5 352.5 102.5 391 147.5 c 1
 450 105.5 l 1
 393.5 39 326.5 -10.5 219.5 -9.5 c 0
 91 -8 28.5 106.5 45 230 c 0
 47.5 247 51.5 263 57 279 c 0
 91.5 386 187 470 305.5 469.5 c 0
 438.5 469 495 361.5 479.5 234 c 0
 478.5 226 477.5 218.5 475.5 210.5 c 1
 92 210.5 l 1
209 691 m 1
 288 730 l 1
 408.5 569 l 1
 361.5 540 l 1
 209 691 l 1
EndSplineSet
EndChar

StartChar: eacute
Encoding: 233 233 223
Width: 499
VWidth: 0
Flags: HMW
LayerCount: 2
Fore
SplineSet
92 210.5 m 1
 103 277.5 l 1
 400.5 278 l 1
 401.5 344.5 376 398.5 299 399.5 c 0
 216 400.5 149.5 339 132.5 260 c 1
 125 230 l 1
 112 141 145 67 236.5 65.5 c 0
 302 64.5 352.5 102.5 391 147.5 c 1
 450 105.5 l 1
 393.5 39 326.5 -10.5 219.5 -9.5 c 0
 91 -8 28.5 106.5 45 230 c 0
 47.5 247 51.5 263 57 279 c 0
 91.5 386 187 470 305.5 469.5 c 0
 438.5 469 495 361.5 479.5 234 c 0
 478.5 226 477.5 218.5 475.5 210.5 c 1
 92 210.5 l 1
502 687.5 m 1
 303 541 l 1
 261.5 571.5 l 1
 433 729.5 l 1
 502 687.5 l 1
EndSplineSet
EndChar

StartChar: ecircumflex
Encoding: 234 234 224
Width: 499
VWidth: 0
Flags: HMW
LayerCount: 2
Fore
SplineSet
92 210.5 m 1
 103 277.5 l 1
 400.5 278 l 1
 401.5 344.5 376 398.5 299 399.5 c 0
 216 400.5 149.5 339 132.5 260 c 1
 125 230 l 1
 112 141 145 67 236.5 65.5 c 0
 302 64.5 352.5 102.5 391 147.5 c 1
 450 105.5 l 1
 393.5 39 326.5 -10.5 219.5 -9.5 c 0
 91 -8 28.5 106.5 45 230 c 0
 47.5 247 51.5 263 57 279 c 0
 91.5 386 187 470 305.5 469.5 c 0
 438.5 469 495 361.5 479.5 234 c 0
 478.5 226 477.5 218.5 475.5 210.5 c 1
 92 210.5 l 1
337.5 624.5 m 1
 213.5 530.5 l 1
 169.5 571.5 l 1
 347.5 710 l 1
 481.5 569 l 1
 427.5 530.5 l 1
 337.5 624.5 l 1
EndSplineSet
EndChar

StartChar: edieresis
Encoding: 235 235 225
Width: 499
VWidth: 0
Flags: HMW
LayerCount: 2
Fore
SplineSet
92 210.5 m 1
 103 277.5 l 1
 400.5 278 l 1
 401.5 344.5 376 398.5 299 399.5 c 0
 216 400.5 149.5 339 132.5 260 c 1
 125 230 l 1
 112 141 145 67 236.5 65.5 c 0
 302 64.5 352.5 102.5 391 147.5 c 1
 450 105.5 l 1
 393.5 39 326.5 -10.5 219.5 -9.5 c 0
 91 -8 28.5 106.5 45 230 c 0
 47.5 247 51.5 263 57 279 c 0
 91.5 386 187 470 305.5 469.5 c 0
 438.5 469 495 361.5 479.5 234 c 0
 478.5 226 477.5 218.5 475.5 210.5 c 1
 92 210.5 l 1
371 586 m 0
 374 613 405.5 641 433 639.5 c 0
 461.5 638 482 612 479 584 c 0
 476 557 444.5 529 417 530.5 c 0
 388.5 532 368 558 371 586 c 0
177 586 m 0
 180 613 211.5 641 239 639.5 c 0
 267.5 638 288 612 285 584 c 0
 282 557 250 529 222.5 530.5 c 0
 194 532 174 558 177 586 c 0
EndSplineSet
EndChar

StartChar: igrave
Encoding: 236 236 226
Width: 252
VWidth: 0
Flags: HMW
LayerCount: 2
Fore
SplineSet
137 459.5 m 1
 218 460 l 1
 137.5 0 l 1
 60.5 0 l 1
 137 459.5 l 1
62.5 701 m 1
 141.5 740 l 1
 262 579 l 1
 214.5 550 l 1
 62.5 701 l 1
EndSplineSet
EndChar

StartChar: dotlessi
Encoding: 305 305 227
Width: 252
VWidth: 0
Flags: HMW
LayerCount: 2
Fore
SplineSet
137 459.5 m 1
 218 460 l 1
 137.5 0 l 1
 60.5 0 l 1
 137 459.5 l 1
EndSplineSet
EndChar

StartChar: kgreenlandic
Encoding: 312 312 228
Width: 426
VWidth: 0
Flags: HMW
LayerCount: 2
Fore
SplineSet
118 459.5 m 1
 198.5 460 l 1
 118.5 0 l 1
 41 0 l 1
 118 459.5 l 1
359.5 459.5 m 1
 462 459.5 l 1
 232 268 l 1
 398.5 0 l 1
 304 0 l 1
 135.5 272.5 l 1
 359.5 459.5 l 1
EndSplineSet
EndChar

StartChar: iacute
Encoding: 237 237 229
Width: 252
VWidth: 0
Flags: HMW
LayerCount: 2
Fore
SplineSet
137 459.5 m 1
 218 460 l 1
 137.5 0 l 1
 60.5 0 l 1
 137 459.5 l 1
374.5 697.5 m 1
 175.5 551 l 1
 134 581.5 l 1
 306 739.5 l 1
 374.5 697.5 l 1
EndSplineSet
EndChar

StartChar: icircumflex
Encoding: 238 238 230
Width: 252
VWidth: 0
Flags: HMW
LayerCount: 2
Fore
SplineSet
137 459.5 m 1
 218 460 l 1
 137.5 0 l 1
 60.5 0 l 1
 137 459.5 l 1
210 634.5 m 1
 86 540.5 l 1
 42 581.5 l 1
 220 720 l 1
 354 579 l 1
 300.5 540.5 l 1
 210 634.5 l 1
EndSplineSet
EndChar

StartChar: idieresis
Encoding: 239 239 231
Width: 252
VWidth: 0
Flags: HMW
LayerCount: 2
Fore
SplineSet
137 459.5 m 1
 218 460 l 1
 137.5 0 l 1
 60.5 0 l 1
 137 459.5 l 1
247 616 m 0
 250 643 281.5 671 309 669.5 c 0
 337.5 668 358 642 355 614 c 0
 352 587 320.5 559 293 560.5 c 0
 264.5 562 244 588 247 616 c 0
53 616 m 0
 56 643 87.5 671 115 669.5 c 0
 143.5 668 164 642 161 614 c 0
 158 587 126.5 559 99 560.5 c 0
 70.5 562 50 588 53 616 c 0
EndSplineSet
EndChar

StartChar: ntilde
Encoding: 241 241 232
Width: 509
VWidth: 0
Flags: HMW
LayerCount: 2
Fore
SplineSet
203 460 m 1
 123.5 0 l 1
 44 0 l 1
 124 460 l 1
 203 460 l 1
380 280 m 2
 387.5 342.5 373 393 307 394.5 c 0
 236.5 396 187.5 341.5 171.5 281 c 1
 135.5 281 l 1
 155.5 380 232 469.5 333.5 469.5 c 0
 433.5 469.5 471.5 390.5 459.5 290 c 1
 409.5 0 l 1
 332 0 l 1
 380 280 l 2
164 568.5 m 1
 183.5 611 228.5 650 277 648.5 c 0
 329 647.5 343 601 389.5 602.5 c 0
 413 603.5 433.5 625 453 649.5 c 1
 492.5 605.5 l 1
 469.5 571.5 428 532.5 379 534.5 c 0
 332.5 536 312 581.5 270 580.5 c 0
 234.5 579.5 220 548.5 211.5 530.5 c 1
 164 568.5 l 1
EndSplineSet
EndChar

StartChar: ograve
Encoding: 242 242 233
Width: 529
VWidth: 0
Flags: HMW
LayerCount: 2
Fore
SplineSet
45 230 m 0
 65 362 179.5 469.5 315 469.5 c 0
 449 469.5 527.5 357.5 509 230 c 0
 489 98 374.5 -9.5 239 -9.5 c 0
 105 -9.5 26.5 102.5 45 230 c 0
125 230 m 0
 111.5 145.5 155.5 66 246 65.5 c 0
 337.5 65 414 140.5 429 230 c 0
 442.5 314.5 398.5 394 308 394.5 c 0
 216.5 395 140 319.5 125 230 c 0
201 701 m 1
 280 740 l 1
 400.5 579 l 1
 353.5 550 l 1
 201 701 l 1
EndSplineSet
EndChar

StartChar: oacute
Encoding: 243 243 234
Width: 529
VWidth: 0
Flags: HMW
LayerCount: 2
Fore
SplineSet
45 230 m 0
 65 362 179.5 469.5 315 469.5 c 0
 449 469.5 527.5 357.5 509 230 c 0
 489 98 374.5 -9.5 239 -9.5 c 0
 105 -9.5 26.5 102.5 45 230 c 0
125 230 m 0
 111.5 145.5 155.5 66 246 65.5 c 0
 337.5 65 414 140.5 429 230 c 0
 442.5 314.5 398.5 394 308 394.5 c 0
 216.5 395 140 319.5 125 230 c 0
513 697.5 m 1
 314.5 551 l 1
 273 581.5 l 1
 444.5 739.5 l 1
 513 697.5 l 1
EndSplineSet
EndChar

StartChar: ocircumflex
Encoding: 244 244 235
Width: 529
VWidth: 0
Flags: HMW
LayerCount: 2
Fore
SplineSet
45 230 m 0
 65 362 179.5 469.5 315 469.5 c 0
 449 469.5 527.5 357.5 509 230 c 0
 489 98 374.5 -9.5 239 -9.5 c 0
 105 -9.5 26.5 102.5 45 230 c 0
125 230 m 0
 111.5 145.5 155.5 66 246 65.5 c 0
 337.5 65 414 140.5 429 230 c 0
 442.5 314.5 398.5 394 308 394.5 c 0
 216.5 395 140 319.5 125 230 c 0
350.5 644.5 m 1
 226.5 550.5 l 1
 182.5 591.5 l 1
 360.5 730 l 1
 494.5 589 l 1
 441 550.5 l 1
 350.5 644.5 l 1
EndSplineSet
EndChar

StartChar: otilde
Encoding: 245 245 236
Width: 529
VWidth: 0
Flags: HMW
LayerCount: 2
Fore
SplineSet
45 230 m 0
 65 362 179.5 469.5 315 469.5 c 0
 449 469.5 527.5 357.5 509 230 c 0
 489 98 374.5 -9.5 239 -9.5 c 0
 105 -9.5 26.5 102.5 45 230 c 0
125 230 m 0
 111.5 145.5 155.5 66 246 65.5 c 0
 337.5 65 414 140.5 429 230 c 0
 442.5 314.5 398.5 394 308 394.5 c 0
 216.5 395 140 319.5 125 230 c 0
173.5 568.5 m 1
 174 613 250 649 286.5 648.5 c 0
 338.5 647.5 352 601 399 602.5 c 0
 422.5 603.5 443 625 462.5 649.5 c 1
 502.5 605.5 l 1
 479.5 571.5 438 532.5 389 534.5 c 0
 342.5 536 321.5 581.5 279.5 580.5 c 0
 244 579.5 229.5 548.5 221 530.5 c 1
 173.5 568.5 l 1
EndSplineSet
EndChar

StartChar: odieresis
Encoding: 246 246 237
Width: 529
VWidth: 0
Flags: HMW
LayerCount: 2
Fore
SplineSet
45 230 m 0
 65 362 179.5 469.5 315 469.5 c 0
 449 469.5 527.5 357.5 509 230 c 0
 489 98 374.5 -9.5 239 -9.5 c 0
 105 -9.5 26.5 102.5 45 230 c 0
125 230 m 0
 111.5 145.5 155.5 66 246 65.5 c 0
 337.5 65 414 140.5 429 230 c 0
 442.5 314.5 398.5 394 308 394.5 c 0
 216.5 395 140 319.5 125 230 c 0
386 616 m 0
 389 643 420.5 671 448 669.5 c 0
 476.5 668 496.5 642 493.5 614 c 0
 490.5 587 459 559 431.5 560.5 c 0
 403 562 383 588 386 616 c 0
192 616 m 0
 195 643 226.5 671 254 669.5 c 0
 282.5 668 302.5 642 299.5 614 c 0
 296.5 587 265 559 237.5 560.5 c 0
 209 562 189 588 192 616 c 0
EndSplineSet
EndChar

StartChar: ugrave
Encoding: 249 249 238
Width: 509
VWidth: 0
Flags: HMW
LayerCount: 2
Fore
SplineSet
330.5 0 m 1
 410 460 l 1
 489.5 460 l 1
 410 0 l 1
 330.5 0 l 1
154 180 m 2
 146.5 117.5 161 67 226.5 65.5 c 0
 297 64 346 118.5 362 179 c 1
 398.5 179 l 1
 378.5 80 301.5 -9.5 200 -9.5 c 0
 100 -9.5 62 69.5 74 170 c 1
 124.5 460 l 1
 201.5 459.5 l 1
 154 180 l 2
229.5 701 m 1
 309 740 l 1
 429.5 579 l 1
 381.5 550 l 1
 229.5 701 l 1
EndSplineSet
EndChar

StartChar: uacute
Encoding: 250 250 239
Width: 509
VWidth: 0
Flags: HMW
LayerCount: 2
Fore
SplineSet
330.5 0 m 1
 410 460 l 1
 489.5 460 l 1
 410 0 l 1
 330.5 0 l 1
154 180 m 2
 146.5 117.5 161 67 226.5 65.5 c 0
 297 64 346 118.5 362 179 c 1
 398.5 179 l 1
 378.5 80 301.5 -9.5 200 -9.5 c 0
 100 -9.5 62 69.5 74 170 c 1
 124.5 460 l 1
 201.5 459.5 l 1
 154 180 l 2
463.5 697.5 m 1
 265 550.5 l 1
 224.5 581.5 l 1
 396 739.5 l 1
 463.5 697.5 l 1
EndSplineSet
EndChar

StartChar: ucircumflex
Encoding: 251 251 240
Width: 509
VWidth: 0
Flags: HMW
LayerCount: 2
Fore
SplineSet
330.5 0 m 1
 410 460 l 1
 489.5 460 l 1
 410 0 l 1
 330.5 0 l 1
154 180 m 2
 146.5 117.5 161 67 226.5 65.5 c 0
 297 64 346 118.5 362 179 c 1
 398.5 179 l 1
 378.5 80 301.5 -9.5 200 -9.5 c 0
 100 -9.5 62 69.5 74 170 c 1
 124.5 460 l 1
 201.5 459.5 l 1
 154 180 l 2
340 644.5 m 1
 216 550.5 l 1
 171.5 591.5 l 1
 350 730 l 1
 484 589 l 1
 430 550.5 l 1
 340 644.5 l 1
EndSplineSet
EndChar

StartChar: udieresis
Encoding: 252 252 241
Width: 509
VWidth: 0
Flags: HMW
LayerCount: 2
Fore
SplineSet
330.5 0 m 1
 410 460 l 1
 489.5 460 l 1
 410 0 l 1
 330.5 0 l 1
154 180 m 2
 146.5 117.5 161 67 226.5 65.5 c 0
 297 64 346 118.5 362 179 c 1
 398.5 179 l 1
 378.5 80 301.5 -9.5 200 -9.5 c 0
 100 -9.5 62 69.5 74 170 c 1
 124.5 460 l 1
 201.5 459.5 l 1
 154 180 l 2
374.5 606 m 0
 377.5 632.5 408 661 435.5 659.5 c 0
 464 658 485.5 632 482.5 604 c 0
 479.5 577 446.5 549 419 550.5 c 0
 390 552 371.5 578.5 374.5 606 c 0
180.5 606 m 0
 183.5 632.5 214 661 241.5 659.5 c 0
 270 658 291 632 288 604 c 0
 285 577 252.5 549 225 550.5 c 0
 196 552 177.5 578.5 180.5 606 c 0
EndSplineSet
EndChar

StartChar: yacute
Encoding: 253 253 242
Width: 426
VWidth: 0
Flags: HMW
LayerCount: 2
Fore
SplineSet
481 459.5 m 1
 72.5 -219.5 l 1
 -18.5 -219.5 l 1
 155.5 67.5 l 1
 52 460 l 1
 143.5 460 l 1
 224 100 l 1
 191.5 104.5 l 1
 390 459.5 l 1
 481 459.5 l 1
432.5 697.5 m 1
 233.5 551 l 1
 192.5 581.5 l 1
 364 739.5 l 1
 432.5 697.5 l 1
EndSplineSet
EndChar

StartChar: thorn
Encoding: 254 254 243
Width: 553
VWidth: 0
Flags: HMW
LayerCount: 2
Fore
SplineSet
82.5 -219.5 m 1
 1.5 -220 l 1
 174 780 l 1
 251.5 779.5 l 1
 82.5 -219.5 l 1
532 230 m 0
 512.5 94.5 402 -11 272 -10 c 0
 148.5 -9 106 106.5 122 230 c 0
 140 361 225.5 469 348 469.5 c 0
 477.5 470 550 360 532 230 c 0
452.5 230 m 0
 466 319.5 420 394.5 331.5 394.5 c 0
 251.5 394.5 172.5 322.5 158 230 c 0
 146 143 191 67.5 269.5 65.5 c 0
 359 63.5 437.5 136 452.5 230 c 0
EndSplineSet
EndChar

StartChar: ydieresis
Encoding: 255 255 244
Width: 426
VWidth: 0
Flags: HMW
LayerCount: 2
Fore
SplineSet
481 459.5 m 1
 72.5 -219.5 l 1
 -18.5 -219.5 l 1
 155.5 67.5 l 1
 52 460 l 1
 143.5 460 l 1
 224 100 l 1
 191.5 104.5 l 1
 390 459.5 l 1
 481 459.5 l 1
329.5 586 m 0
 332.5 613 364 641 391.5 639.5 c 0
 420 638 440 612 437 584 c 0
 434 557 402.5 529 375 530.5 c 0
 346.5 532 326.5 558 329.5 586 c 0
135.5 586 m 0
 138.5 613 170 641 197.5 639.5 c 0
 226 638 246 612 243 584 c 0
 240 557 208.5 529 181 530.5 c 0
 152.5 532 132.5 558 135.5 586 c 0
EndSplineSet
EndChar

StartChar: Amacron
Encoding: 256 256 245
Width: 640
VWidth: 0
Flags: HMW
LayerCount: 2
Fore
SplineSet
151.5 211 m 1
 193 289.5 l 1
 495.5 290 l 1
 511.5 210 l 1
 151.5 211 l 1
388 542 m 1
 225.5 264 l 1
 215 246 l 1
 71 0 l 1
 -25 0 l 1
 418.5 736.5 l 1
 608 0 l 1
 516.5 0 l 1
 458.5 240 l 1
 454.5 260 l 1
 388 542 l 1
259.5 795.5 m 1
 271.5 870 l 1
 613 870 l 1
 600.5 795 l 1
 259.5 795.5 l 1
EndSplineSet
EndChar

StartChar: amacron
Encoding: 257 257 246
Width: 553
VWidth: 0
Flags: HMW
LayerCount: 2
Fore
SplineSet
462.5 459.5 m 1
 538.5 460 l 1
 458.5 0 l 1
 385.5 0 l 1
 462.5 459.5 l 1
45 230 m 0
 64.5 365.5 175.5 471 305.5 470 c 0
 429 469 471.5 353.5 455.5 230 c 0
 437.5 99 352 -9 229.5 -9.5 c 0
 100 -10 27 100 45 230 c 0
125 230 m 0
 111.5 140.5 157.5 65.5 246 65.5 c 0
 326 65.5 405 137.5 419.5 230 c 0
 431.5 317 386.5 392.5 308 394.5 c 0
 218.5 396.5 140 324 125 230 c 0
159 540.5 m 1
 171 615 l 1
 512.5 615 l 1
 499.5 540 l 1
 159 540.5 l 1
EndSplineSet
Substitution2: "alt a" amacron.alt
EndChar

StartChar: breve
Encoding: 728 728 247
Width: 529
VWidth: 0
Flags: HMW
LayerCount: 2
Fore
SplineSet
224.5 850 m 1
 293.5 850 l 1
 292.5 817 306 776 364.5 775.5 c 0
 425 775 449.5 817 462 849.5 c 1
 532.5 849 l 1
 515 776.5 456.5 710.5 359.5 710.5 c 0
 264 710.5 220 776 224.5 850 c 1
EndSplineSet
EndChar

StartChar: Abreve
Encoding: 258 258 248
Width: 640
VWidth: 0
Flags: HMW
LayerCount: 2
Fore
SplineSet
151.5 211 m 1
 193 289.5 l 1
 495.5 290 l 1
 511.5 210 l 1
 151.5 211 l 1
388 542 m 1
 225.5 264 l 1
 215 246 l 1
 71 0 l 1
 -25 0 l 1
 418.5 736.5 l 1
 608 0 l 1
 516.5 0 l 1
 458.5 240 l 1
 454.5 260 l 1
 388 542 l 1
298.5 935 m 1
 367.5 934.5 l 1
 366 901.5 378.5 861 437 860.5 c 0
 497.5 860 522.5 902.5 536 934.5 c 1
 606.5 934 l 1
 587.5 861.5 528.5 795.5 431.5 795.5 c 0
 335.5 795.5 293 861.5 298.5 935 c 1
EndSplineSet
EndChar

StartChar: abreve
Encoding: 259 259 249
Width: 553
VWidth: 0
Flags: HMW
LayerCount: 2
Fore
SplineSet
462.5 459.5 m 1
 538.5 460 l 1
 458.5 0 l 1
 385.5 0 l 1
 462.5 459.5 l 1
45 230 m 0
 64.5 365.5 175.5 471 305.5 470 c 0
 429 469 471.5 353.5 455.5 230 c 0
 437.5 99 352 -9 229.5 -9.5 c 0
 100 -10 27 100 45 230 c 0
125 230 m 0
 111.5 140.5 157.5 65.5 246 65.5 c 0
 326 65.5 405 137.5 419.5 230 c 0
 431.5 317 386.5 392.5 308 394.5 c 0
 218.5 396.5 140 324 125 230 c 0
168 669.5 m 1
 237 669 l 1
 236 636 249.5 595.5 308 595 c 0
 368.5 594.5 393 636.5 405.5 669 c 1
 476 668.5 l 1
 458.5 596 400 530 303 530 c 0
 207.5 530 163.5 595.5 168 669.5 c 1
EndSplineSet
Substitution2: "alt a" abreve.alt
EndChar

StartChar: Aogonek
Encoding: 260 260 250
Width: 640
VWidth: 0
Flags: HMW
LayerCount: 2
Fore
SplineSet
151.5 211 m 1
 193 289.5 l 1
 495.5 290 l 1
 511.5 210 l 1
 151.5 211 l 1
388 542 m 1
 225.5 264 l 1
 215 246 l 1
 71 0 l 1
 -25 0 l 1
 418.5 736.5 l 1
 608 0 l 1
 516.5 0 l 1
 458.5 240 l 1
 454.5 260 l 1
 388 542 l 1
590 -130 m 1
 615 -181.5 l 1
 593 -201 563.5 -219 524.5 -219.5 c 0
 452.5 -220.5 410.5 -180 419.5 -119.5 c 0
 430.5 -53.5 504.5 -8.5 571 24.5 c 1
 609.5 0 l 1
 563 -22.5 508 -56 501 -100 c 0
 498 -129 510 -147.5 537.5 -149.5 c 0
 559.5 -151 575.5 -140.5 590 -130 c 1
EndSplineSet
EndChar

StartChar: aogonek
Encoding: 261 261 251
Width: 553
VWidth: 0
Flags: HMW
LayerCount: 2
Fore
SplineSet
462.5 459.5 m 1
 538.5 460 l 1
 458.5 0.5 l 1
 385.5 0 l 1
 462.5 459.5 l 1
45 230 m 0
 64.5 365.5 175.5 471 305.5 470 c 0
 429 469 471.5 353.5 455.5 230 c 0
 437.5 99 352 -9 229.5 -9.5 c 0
 100 -10 27 100 45 230 c 0
125 230 m 0
 111.5 140.5 157.5 65.5 246 65.5 c 0
 326 65.5 405 137.5 419.5 230 c 0
 431.5 317 386.5 392.5 308 394.5 c 0
 218.5 396.5 140 324 125 230 c 0
440 -130 m 1
 464.5 -181.5 l 1
 442.5 -201 413 -219 374 -219.5 c 0
 302 -220.5 260 -180 269 -119.5 c 0
 280 -53.5 354 -8.5 420.5 24.5 c 1
 459 0 l 1
 412.5 -22.5 358 -56 351 -100 c 0
 348 -129 360 -147.5 387.5 -149.5 c 0
 409.5 -151 425.5 -140.5 440 -130 c 1
EndSplineSet
Substitution2: "alt a" aogonek.alt
EndChar

StartChar: Cacute
Encoding: 262 262 252
Width: 664
VWidth: 0
Flags: HMW
LayerCount: 2
Fore
SplineSet
159.5 350 m 0
 138 208 217 77 361 75.5 c 0
 457.5 74.5 539 120 600 178 c 1
 582.5 66.5 l 1
 517.5 17.5 446.5 -10.5 352.5 -10 c 0
 157 -9 43 161.5 70.5 350 c 0
 101 548 270.5 709 469.5 710 c 0
 558.5 710.5 621.5 685.5 678 632.5 c 1
 660 521 l 1
 617 586 549.5 624.5 461 624.5 c 0
 315 624 184.5 501 159.5 350 c 0
635 917.5 m 1
 436.5 771 l 1
 395 801.5 l 1
 566.5 959.5 l 1
 635 917.5 l 1
EndSplineSet
EndChar

StartChar: cacute
Encoding: 263 263 253
Width: 463
VWidth: 0
Flags: HMW
LayerCount: 2
Fore
SplineSet
120 230 m 0
 106.5 145 151.5 67 241.5 65.5 c 0
 313.5 64.5 377.5 103.5 413.5 148 c 1
 398 48.5 l 1
 357 12.5 296.5 -9.5 234 -9.5 c 0
 100 -9 22 102.5 40.5 230 c 0
 60.5 363 174.5 469 310.5 469.5 c 0
 369.5 469.5 424 449 458.5 410.5 c 1
 442.5 311 l 1
 422.5 361 370 395 303.5 394.5 c 0
 212 394 135.5 320 120 230 c 0
476 677.5 m 1
 277 531 l 1
 235.5 561.5 l 1
 407 719.5 l 1
 476 677.5 l 1
EndSplineSet
EndChar

StartChar: Ccircumflex
Encoding: 264 264 254
Width: 664
VWidth: 0
Flags: HMW
LayerCount: 2
Fore
SplineSet
159.5 350 m 0
 138 208 217 77 361 75.5 c 0
 457.5 74.5 539 120 600 178 c 1
 582.5 66.5 l 1
 517.5 17.5 446.5 -10.5 352.5 -10 c 0
 157 -9 43 161.5 70.5 350 c 0
 101 548 270.5 709 469.5 710 c 0
 558.5 710.5 621.5 685.5 678 632.5 c 1
 660 521 l 1
 617 586 549.5 624.5 461 624.5 c 0
 315 624 184.5 501 159.5 350 c 0
501.5 864.5 m 1
 378 770.5 l 1
 333.5 811.5 l 1
 511.5 950 l 1
 645.5 809 l 1
 592 770.5 l 1
 501.5 864.5 l 1
EndSplineSet
EndChar

StartChar: ccircumflex
Encoding: 265 265 255
Width: 463
VWidth: 0
Flags: HMW
LayerCount: 2
Fore
SplineSet
120 230 m 0
 106.5 145 151.5 67 241.5 65.5 c 0
 313.5 64.5 377.5 103.5 413.5 148 c 1
 398 48.5 l 1
 357 12.5 296.5 -9.5 234 -9.5 c 0
 100 -9 22 102.5 40.5 230 c 0
 60.5 363 174.5 469 310.5 469.5 c 0
 369.5 469.5 424 449 458.5 410.5 c 1
 442.5 311 l 1
 422.5 361 370 395 303.5 394.5 c 0
 212 394 135.5 320 120 230 c 0
342.5 624.5 m 1
 218.5 530.5 l 1
 174 571.5 l 1
 352 710 l 1
 486.5 569 l 1
 432.5 530.5 l 1
 342.5 624.5 l 1
EndSplineSet
EndChar

StartChar: Cdotaccent
Encoding: 266 266 256
Width: 664
VWidth: 0
Flags: HMW
LayerCount: 2
Fore
SplineSet
159.5 350 m 0
 138 208 217 77 361 75.5 c 0
 457.5 74.5 539 120 600 178 c 1
 582.5 66.5 l 1
 517.5 17.5 446.5 -10.5 352.5 -10 c 0
 157 -9 43 161.5 70.5 350 c 0
 101 548 270.5 709 469.5 710 c 0
 558.5 710.5 621.5 685.5 678 632.5 c 1
 660 521 l 1
 617 586 549.5 624.5 461 624.5 c 0
 315 624 184.5 501 159.5 350 c 0
438.5 826 m 0
 441.5 853 473 881 500.5 879.5 c 0
 529 878 549 852 546 824 c 0
 543 797 511.5 769 484 770.5 c 0
 455.5 772 435.5 798 438.5 826 c 0
EndSplineSet
EndChar

StartChar: cdotaccent
Encoding: 267 267 257
Width: 463
VWidth: 0
Flags: HMW
LayerCount: 2
Fore
SplineSet
120 230 m 0
 106.5 145 151.5 67 241.5 65.5 c 0
 313.5 64.5 377.5 103.5 413.5 148 c 1
 398 48.5 l 1
 357 12.5 296.5 -9.5 234 -9.5 c 0
 100 -9 22 102.5 40.5 230 c 0
 60.5 363 174.5 469 310.5 469.5 c 0
 369.5 469.5 424 449 458.5 410.5 c 1
 442.5 311 l 1
 422.5 361 370 395 303.5 394.5 c 0
 212 394 135.5 320 120 230 c 0
279 586 m 0
 282 613 313.5 641 341 639.5 c 0
 369.5 638 389.5 612 386.5 584 c 0
 383.5 557 352 529 324.5 530.5 c 0
 296 532 276 558 279 586 c 0
EndSplineSet
EndChar

StartChar: Ccaron
Encoding: 268 268 258
Width: 664
VWidth: 0
Flags: HMW
LayerCount: 2
Fore
SplineSet
159.5 350 m 0
 138 208 217 77 361 75.5 c 0
 457.5 74.5 539 120 600 178 c 1
 582.5 66.5 l 1
 517.5 17.5 446.5 -10.5 352.5 -10 c 0
 157 -9 43 161.5 70.5 350 c 0
 101 548 270.5 709 469.5 710 c 0
 558.5 710.5 621.5 685.5 678 632.5 c 1
 660 521 l 1
 617 586 549.5 624.5 461 624.5 c 0
 315 624 184.5 501 159.5 350 c 0
494.5 855.5 m 1
 618.5 949.5 l 1
 662.5 908.5 l 1
 484.5 770 l 1
 350.5 911 l 1
 404.5 949.5 l 1
 494.5 855.5 l 1
EndSplineSet
EndChar

StartChar: ccaron
Encoding: 269 269 259
Width: 463
VWidth: 0
Flags: HMW
LayerCount: 2
Fore
SplineSet
120 230 m 0
 106.5 145 151.5 67 241.5 65.5 c 0
 313.5 64.5 377.5 103.5 413.5 148 c 1
 398 48.5 l 1
 357 12.5 296.5 -9.5 234 -9.5 c 0
 100 -9 22 102.5 40.5 230 c 0
 60.5 363 174.5 469 310.5 469.5 c 0
 369.5 469.5 424 449 458.5 410.5 c 1
 442.5 311 l 1
 422.5 361 370 395 303.5 394.5 c 0
 212 394 135.5 320 120 230 c 0
335.5 615.5 m 1
 459 709.5 l 1
 503.5 668.5 l 1
 325.5 530 l 1
 191 671 l 1
 245 709.5 l 1
 335.5 615.5 l 1
EndSplineSet
EndChar

StartChar: Dcaron
Encoding: 270 270 260
Width: 659
VWidth: 0
Flags: HMW
LayerCount: 2
Fore
SplineSet
168.5 699.5 m 1
 254 700 l 1
 133 0 l 1
 51 0 l 1
 168.5 699.5 l 1
257.5 0 m 1
 95 0 l 1
 110 85 l 1
 266 85 l 1
 423.5 88 544.5 195.5 570.5 350 c 0
 594 497 516.5 611.5 362 615 c 1
 200 615 l 1
 215 700 l 1
 370.5 700 l 1
 570.5 696.5 683 542 654.5 350 c 0
 623.5 150 461.5 3 257.5 0 c 1
436.5 855.5 m 1
 560 949.5 l 1
 604.5 908.5 l 1
 426.5 770 l 1
 292.5 911 l 1
 346 949.5 l 1
 436.5 855.5 l 1
EndSplineSet
EndChar

StartChar: dcaron
Encoding: 271 271 261
Width: 553
VWidth: 0
Flags: HMW
LayerCount: 2
Fore
SplineSet
512 779.5 m 1
 593 780 l 1
 458 0 l 1
 380.5 0 l 1
 512 779.5 l 1
45 230 m 0
 64.5 365.5 175.5 471 305.5 470 c 0
 429 469 471.5 353.5 455.5 230 c 0
 437.5 99 352 -9 229.5 -9.5 c 0
 100 -10 27 100 45 230 c 0
125 230 m 0
 111.5 140.5 157.5 65.5 246 65.5 c 0
 326 65.5 405 137.5 419.5 230 c 0
 431.5 317 386.5 392.5 308 394.5 c 0
 218.5 396.5 140 324 125 230 c 0
704 779 m 1
 780 748 l 1
 630.5 501 l 1
 575 522 l 1
 704 779 l 1
EndSplineSet
EndChar

StartChar: Dcroat
Encoding: 272 272 262
Width: 659
VWidth: 0
Flags: HMW
LayerCount: 2
Fore
SplineSet
31 310.5 m 1
 43.5 385 l 1
 336 385 l 1
 323.5 310 l 1
 31 310.5 l 1
168.5 699.5 m 1
 254 700 l 1
 133 0 l 1
 51 0 l 1
 168.5 699.5 l 1
257.5 0 m 1
 95 0 l 1
 110 85 l 1
 266 85 l 1
 423.5 88 544.5 195.5 570.5 350 c 0
 594 497 516.5 611.5 362 615 c 1
 200 615 l 1
 215 700 l 1
 370.5 700 l 1
 570.5 696.5 683 542 654.5 350 c 0
 623.5 150 461.5 3 257.5 0 c 1
EndSplineSet
EndChar

StartChar: dcroat
Encoding: 273 273 263
Width: 553
VWidth: 0
Flags: HMW
LayerCount: 2
Fore
SplineSet
360 590.5 m 1
 372.5 665 l 1
 665.5 665 l 1
 652.5 590 l 1
 360 590.5 l 1
512 779.5 m 1
 593 780 l 1
 458 0 l 1
 380.5 0 l 1
 512 779.5 l 1
45 230 m 0
 64.5 365.5 175.5 471 305.5 470 c 0
 429 469 471.5 353.5 455.5 230 c 0
 437.5 99 352 -9 229.5 -9.5 c 0
 100 -10 27 100 45 230 c 0
125 230 m 0
 111.5 140.5 157.5 65.5 246 65.5 c 0
 326 65.5 405 137.5 419.5 230 c 0
 431.5 317 386.5 392.5 308 394.5 c 0
 218.5 396.5 140 324 125 230 c 0
EndSplineSet
EndChar

StartChar: Emacron
Encoding: 274 274 264
Width: 533
VWidth: 0
Flags: HMW
LayerCount: 2
Fore
SplineSet
96.5 0 m 1
 109.5 80 l 1
 454 80 l 1
 440.5 0 l 1
 96.5 0 l 1
202.5 620.5 m 1
 215.5 700 l 1
 559.5 700 l 1
 546 620 l 1
 202.5 620.5 l 1
154.5 340.5 m 1
 168 420 l 1
 492.5 420 l 1
 479 340 l 1
 154.5 340.5 l 1
168.5 699.5 m 1
 254 700 l 1
 133 0 l 1
 51 0 l 1
 168.5 699.5 l 1
206.5 770.5 m 1
 219 845 l 1
 560 845 l 1
 547.5 770 l 1
 206.5 770.5 l 1
EndSplineSet
EndChar

StartChar: emacron
Encoding: 275 275 265
Width: 499
VWidth: 0
Flags: HMW
LayerCount: 2
Fore
SplineSet
92 210.5 m 1
 103 277.5 l 1
 400.5 278 l 1
 401.5 344.5 376 398.5 299 399.5 c 0
 216 400.5 149.5 339 132.5 260 c 1
 125 230 l 1
 112 141 145 67 236.5 65.5 c 0
 302 64.5 352.5 102.5 391 147.5 c 1
 450 105.5 l 1
 393.5 39 326.5 -10.5 219.5 -9.5 c 0
 91 -8 28.5 106.5 45 230 c 0
 47.5 247 51.5 263 57 279 c 0
 91.5 386 187 470 305.5 469.5 c 0
 438.5 469 495 361.5 479.5 234 c 0
 478.5 226 477.5 218.5 475.5 210.5 c 1
 92 210.5 l 1
149 530.5 m 1
 161.5 605 l 1
 502.5 605 l 1
 490 530 l 1
 149 530.5 l 1
EndSplineSet
EndChar

StartChar: Ebreve
Encoding: 276 276 266
Width: 533
VWidth: 0
Flags: HMW
LayerCount: 2
Fore
SplineSet
96.5 0 m 1
 109.5 80 l 1
 454 80 l 1
 440.5 0 l 1
 96.5 0 l 1
202.5 620.5 m 1
 215.5 700 l 1
 559.5 700 l 1
 546 620 l 1
 202.5 620.5 l 1
154.5 340.5 m 1
 168 420 l 1
 492.5 420 l 1
 479 340 l 1
 154.5 340.5 l 1
168.5 699.5 m 1
 254 700 l 1
 133 0 l 1
 51 0 l 1
 168.5 699.5 l 1
245.5 910 m 1
 314.5 909.5 l 1
 313 876.5 325.5 836 384 835.5 c 0
 444.5 835 469.5 877.5 483 909.5 c 1
 554 909 l 1
 535 836.5 475.5 770.5 378.5 770.5 c 0
 282.5 770.5 240 836.5 245.5 910 c 1
EndSplineSet
EndChar

StartChar: ebreve
Encoding: 277 277 267
Width: 499
VWidth: 0
Flags: HMW
LayerCount: 2
Fore
SplineSet
92 210.5 m 1
 103 277.5 l 1
 400.5 278 l 1
 401.5 344.5 376 398.5 299 399.5 c 0
 216 400.5 149.5 339 132.5 260 c 1
 125 230 l 1
 112 141 145 67 236.5 65.5 c 0
 302 64.5 352.5 102.5 391 147.5 c 1
 450 105.5 l 1
 393.5 39 326.5 -10.5 219.5 -9.5 c 0
 91 -8 28.5 106.5 45 230 c 0
 47.5 247 51.5 263 57 279 c 0
 91.5 386 187 470 305.5 469.5 c 0
 438.5 469 495 361.5 479.5 234 c 0
 478.5 226 477.5 218.5 475.5 210.5 c 1
 92 210.5 l 1
188.5 670 m 1
 257.5 669.5 l 1
 256 636.5 268.5 596 327 595.5 c 0
 387.5 595 412 637.5 425.5 669.5 c 1
 496.5 669 l 1
 477.5 597 418 530.5 321 530.5 c 0
 225 530.5 183 596.5 188.5 670 c 1
EndSplineSet
EndChar

StartChar: Edotaccent
Encoding: 278 278 268
Width: 533
VWidth: 0
Flags: HMW
LayerCount: 2
Fore
SplineSet
96.5 0 m 1
 109.5 80 l 1
 454 80 l 1
 440.5 0 l 1
 96.5 0 l 1
202.5 620.5 m 1
 215.5 700 l 1
 559.5 700 l 1
 546 620 l 1
 202.5 620.5 l 1
154.5 340.5 m 1
 168 420 l 1
 492.5 420 l 1
 479 340 l 1
 154.5 340.5 l 1
168.5 699.5 m 1
 254 700 l 1
 133 0 l 1
 51 0 l 1
 168.5 699.5 l 1
331.5 826 m 0
 334.5 853 366 881 393.5 879.5 c 0
 422 878 442.5 852 439.5 824 c 0
 436.5 797 404.5 769 377 770.5 c 0
 348.5 772 328.5 798 331.5 826 c 0
EndSplineSet
EndChar

StartChar: edotaccent
Encoding: 279 279 269
Width: 499
VWidth: 0
Flags: HMW
LayerCount: 2
Fore
SplineSet
92 210.5 m 1
 103 277.5 l 1
 400.5 278 l 1
 401.5 344.5 376 398.5 299 399.5 c 0
 216 400.5 149.5 339 132.5 260 c 1
 125 230 l 1
 112 141 145 67 236.5 65.5 c 0
 302 64.5 352.5 102.5 391 147.5 c 1
 450 105.5 l 1
 393.5 39 326.5 -10.5 219.5 -9.5 c 0
 91 -8 28.5 106.5 45 230 c 0
 47.5 247 51.5 263 57 279 c 0
 91.5 386 187 470 305.5 469.5 c 0
 438.5 469 495 361.5 479.5 234 c 0
 478.5 226 477.5 218.5 475.5 210.5 c 1
 92 210.5 l 1
274 586 m 0
 277 613 308.5 641 336 639.5 c 0
 364.5 638 385 612 382 584 c 0
 379 557 347 529 319.5 530.5 c 0
 291 532 271 558 274 586 c 0
EndSplineSet
EndChar

StartChar: Eogonek
Encoding: 280 280 270
Width: 533
VWidth: 0
Flags: HMW
LayerCount: 2
Fore
SplineSet
96.5 0 m 1
 109.5 80 l 1
 454 80 l 1
 440.5 0 l 1
 96.5 0 l 1
202.5 620.5 m 1
 215.5 700 l 1
 559.5 700 l 1
 546 620 l 1
 202.5 620.5 l 1
154.5 340.5 m 1
 168 420 l 1
 492.5 420 l 1
 479 340 l 1
 154.5 340.5 l 1
168.5 699.5 m 1
 254 700 l 1
 133 0 l 1
 51 0 l 1
 168.5 699.5 l 1
304 -130 m 1
 328.5 -181.5 l 1
 306.5 -201 277 -219 238 -219.5 c 0
 166 -220.5 124 -180 133 -119.5 c 0
 144 -53.5 218 -8.5 284.5 24.5 c 1
 323 0 l 1
 276.5 -22.5 222 -56 215 -100 c 0
 212 -129 224 -147.5 251.5 -149.5 c 0
 273.5 -151 289.5 -140.5 304 -130 c 1
EndSplineSet
EndChar

StartChar: eogonek
Encoding: 281 281 271
Width: 499
VWidth: 0
Flags: HMW
LayerCount: 2
Fore
SplineSet
92 210.5 m 1
 103 277.5 l 1
 400.5 278 l 1
 401.5 344.5 376 398.5 299 399.5 c 0
 216 400.5 149.5 339 132.5 260 c 1
 125 230 l 1
 112 141 145 67 236.5 65.5 c 0
 302 64.5 352.5 102.5 391 147.5 c 1
 450 105.5 l 1
 393.5 39 326.5 -10.5 219.5 -9.5 c 0
 91 -8 28.5 106.5 45 230 c 0
 47.5 247 51.5 263 57 279 c 0
 91.5 386 187 470 305.5 469.5 c 0
 438.5 469 495 361.5 479.5 234 c 0
 478.5 226 477.5 218.5 475.5 210.5 c 1
 92 210.5 l 1
239.5 -131 m 1
 264.5 -182.5 l 1
 242.5 -202 213 -220 174 -220.5 c 0
 102 -221.5 60 -181 69 -120.5 c 0
 80 -54.5 154 -9.5 220.5 23.5 c 1
 259 -3 l 1
 212 -23.5 157.5 -57.5 150.5 -101 c 0
 147.5 -130 159.5 -148.5 187 -150.5 c 0
 209 -152 225 -141.5 239.5 -131 c 1
EndSplineSet
EndChar

StartChar: Ecaron
Encoding: 282 282 272
Width: 533
VWidth: 0
Flags: HMW
LayerCount: 2
Fore
SplineSet
96.5 0 m 1
 109.5 80 l 1
 454 80 l 1
 440.5 0 l 1
 96.5 0 l 1
202.5 620.5 m 1
 215.5 700 l 1
 559.5 700 l 1
 546 620 l 1
 202.5 620.5 l 1
154.5 340.5 m 1
 168 420 l 1
 492.5 420 l 1
 479 340 l 1
 154.5 340.5 l 1
168.5 699.5 m 1
 254 700 l 1
 133 0 l 1
 51 0 l 1
 168.5 699.5 l 1
388 855.5 m 1
 511.5 949.5 l 1
 556 908.5 l 1
 378 770 l 1
 244 911 l 1
 297.5 949.5 l 1
 388 855.5 l 1
EndSplineSet
EndChar

StartChar: ecaron
Encoding: 283 283 273
Width: 499
VWidth: 0
Flags: HMW
LayerCount: 2
Fore
SplineSet
92 210.5 m 1
 103 277.5 l 1
 400.5 278 l 1
 401.5 344.5 376 398.5 299 399.5 c 0
 216 400.5 149.5 339 132.5 260 c 1
 125 230 l 1
 112 141 145 67 236.5 65.5 c 0
 302 64.5 352.5 102.5 391 147.5 c 1
 450 105.5 l 1
 393.5 39 326.5 -10.5 219.5 -9.5 c 0
 91 -8 28.5 106.5 45 230 c 0
 47.5 247 51.5 263 57 279 c 0
 91.5 386 187 470 305.5 469.5 c 0
 438.5 469 495 361.5 479.5 234 c 0
 478.5 226 477.5 218.5 475.5 210.5 c 1
 92 210.5 l 1
330.5 615.5 m 1
 454 709.5 l 1
 498.5 668.5 l 1
 320.5 530 l 1
 186.5 671 l 1
 240 709.5 l 1
 330.5 615.5 l 1
EndSplineSet
EndChar

StartChar: Gcircumflex
Encoding: 284 284 274
Width: 752
VWidth: 0
Flags: HMW
LayerCount: 2
Fore
SplineSet
411.5 275 m 1
 426 355 l 1
 741.5 354.5 l 1
 708 166 569.5 -10 357.5 -10 c 0
 155.5 -10 42.5 160 70.5 350 c 0
 101.5 549.5 269 709.5 474.5 710 c 0
 593 710.5 685 658.5 735 560 c 1
 668.5 506.5 l 1
 632.5 583 561.5 625 466 624.5 c 0
 313.5 624 185 502.5 159.5 350 c 0
 137.5 206.5 215.5 76 366 75.5 c 0
 502 75 593 169.5 639.5 275 c 1
 411.5 275 l 1
506.5 864.5 m 1
 382.5 770.5 l 1
 338.5 811.5 l 1
 516.5 950 l 1
 650.5 809 l 1
 597 770.5 l 1
 506.5 864.5 l 1
EndSplineSet
EndChar

StartChar: gcircumflex
Encoding: 285 285 275
Width: 553
VWidth: 0
Flags: HMW
LayerCount: 2
Fore
SplineSet
9.5 -30 m 1
 88.5 -30.5 l 1
 83.5 -98 124 -154 207.5 -154.5 c 0
 289.5 -155.5 365 -88 381 10 c 1
 458.5 460 l 1
 538 460 l 1
 461 10 l 2
 438.5 -131 327.5 -229 200.5 -229.5 c 0
 72 -230 -2 -146 9.5 -30 c 1
45 230 m 0
 64.5 365.5 175.5 471 305.5 470 c 0
 429 469 471.5 353.5 455.5 230 c 0
 437.5 99 352 -9 229.5 -9.5 c 0
 100 -10 27 100 45 230 c 0
125 230 m 0
 111.5 140.5 157.5 65.5 246 65.5 c 0
 326 65.5 405 137.5 419.5 230 c 0
 431.5 317 386.5 392.5 308 394.5 c 0
 218.5 396.5 140 324 125 230 c 0
337.5 624.5 m 1
 213.5 530.5 l 1
 169.5 571.5 l 1
 347.5 710 l 1
 481.5 569 l 1
 427.5 530.5 l 1
 337.5 624.5 l 1
EndSplineSet
EndChar

StartChar: Gbreve
Encoding: 286 286 276
Width: 752
VWidth: 0
Flags: HMW
LayerCount: 2
Fore
SplineSet
411.5 275 m 1
 426 355 l 1
 741.5 354.5 l 1
 708 166 569.5 -10 357.5 -10 c 0
 155.5 -10 42.5 160 70.5 350 c 0
 101.5 549.5 269 709.5 474.5 710 c 0
 593 710.5 685 658.5 735 560 c 1
 668.5 506.5 l 1
 632.5 583 561.5 625 466 624.5 c 0
 313.5 624 185 502.5 159.5 350 c 0
 137.5 206.5 215.5 76 366 75.5 c 0
 502 75 593 169.5 639.5 275 c 1
 411.5 275 l 1
357.5 910 m 1
 426.5 909.5 l 1
 425 876.5 437.5 836 496 835.5 c 0
 556.5 835 581.5 877.5 595 909.5 c 1
 665.5 909 l 1
 646.5 836.5 587 770.5 490 770.5 c 0
 394 770.5 352 836.5 357.5 910 c 1
EndSplineSet
EndChar

StartChar: gbreve
Encoding: 287 287 277
Width: 553
VWidth: 0
Flags: HMW
LayerCount: 2
Fore
SplineSet
9.5 -30 m 1
 88.5 -30.5 l 1
 83.5 -98 124 -154 207.5 -154.5 c 0
 289.5 -155.5 365 -88 381 10 c 1
 458.5 460 l 1
 538 460 l 1
 461 10 l 2
 438.5 -131 327.5 -229 200.5 -229.5 c 0
 72 -230 -2 -146 9.5 -30 c 1
45 230 m 0
 64.5 365.5 175.5 471 305.5 470 c 0
 429 469 471.5 353.5 455.5 230 c 0
 437.5 99 352 -9 229.5 -9.5 c 0
 100 -10 27 100 45 230 c 0
125 230 m 0
 111.5 140.5 157.5 65.5 246 65.5 c 0
 326 65.5 405 137.5 419.5 230 c 0
 431.5 317 386.5 392.5 308 394.5 c 0
 218.5 396.5 140 324 125 230 c 0
188.5 670 m 1
 257.5 669.5 l 1
 256 636.5 268.5 596 327 595.5 c 0
 387.5 595 412 637.5 425.5 669.5 c 1
 496.5 669 l 1
 477.5 597 418 530.5 321 530.5 c 0
 225 530.5 183 596.5 188.5 670 c 1
EndSplineSet
EndChar

StartChar: Gdotaccent
Encoding: 288 288 278
Width: 752
VWidth: 0
Flags: HMW
LayerCount: 2
Fore
SplineSet
411.5 275 m 1
 426 355 l 1
 741.5 354.5 l 1
 708 166 569.5 -10 357.5 -10 c 0
 155.5 -10 42.5 160 70.5 350 c 0
 101.5 549.5 269 709.5 474.5 710 c 0
 593 710.5 685 658.5 735 560 c 1
 668.5 506.5 l 1
 632.5 583 561.5 625 466 624.5 c 0
 313.5 624 185 502.5 159.5 350 c 0
 137.5 206.5 215.5 76 366 75.5 c 0
 502 75 593 169.5 639.5 275 c 1
 411.5 275 l 1
443 826 m 0
 446 853 477.5 881 505 879.5 c 0
 533.5 878 554 852 551 824 c 0
 548 797 516.5 769 489 770.5 c 0
 460.5 772 440 798 443 826 c 0
EndSplineSet
EndChar

StartChar: gdotaccent
Encoding: 289 289 279
Width: 553
VWidth: 0
Flags: HMW
LayerCount: 2
Fore
SplineSet
9.5 -30 m 1
 88.5 -30.5 l 1
 83.5 -98 124 -154 207.5 -154.5 c 0
 289.5 -155.5 365 -88 381 10 c 1
 458.5 460 l 1
 538 460 l 1
 461 10 l 2
 438.5 -131 327.5 -229 200.5 -229.5 c 0
 72 -230 -2 -146 9.5 -30 c 1
45 230 m 0
 64.5 365.5 175.5 471 305.5 470 c 0
 429 469 471.5 353.5 455.5 230 c 0
 437.5 99 352 -9 229.5 -9.5 c 0
 100 -10 27 100 45 230 c 0
125 230 m 0
 111.5 140.5 157.5 65.5 246 65.5 c 0
 326 65.5 405 137.5 419.5 230 c 0
 431.5 317 386.5 392.5 308 394.5 c 0
 218.5 396.5 140 324 125 230 c 0
300.5 626 m 0
 303.5 653 335 681 362.5 679.5 c 0
 391 678 411 652 408 624 c 0
 405 597 373.5 569 346 570.5 c 0
 317.5 572 297.5 598 300.5 626 c 0
EndSplineSet
EndChar

StartChar: uni0122
Encoding: 290 290 280
Width: 752
VWidth: 0
Flags: HMW
LayerCount: 2
Fore
SplineSet
411.5 275 m 1
 426 355 l 1
 741.5 354.5 l 1
 708 166 569.5 -10 357.5 -10 c 0
 155.5 -10 42.5 160 70.5 350 c 0
 101.5 549.5 269 709.5 474.5 710 c 0
 593 710.5 685 658.5 735 560 c 1
 668.5 506.5 l 1
 632.5 583 561.5 625 466 624.5 c 0
 313.5 624 185 502.5 159.5 350 c 0
 137.5 206.5 215.5 76 366 75.5 c 0
 502 75 593 169.5 639.5 275 c 1
 411.5 275 l 1
346 -71 m 1
 422.5 -102 l 1
 272.5 -349 l 1
 217.5 -328 l 1
 346 -71 l 1
EndSplineSet
EndChar

StartChar: Hcircumflex
Encoding: 292 292 281
Width: 693
VWidth: 0
Flags: HMW
LayerCount: 2
Fore
SplineSet
154.5 340.5 m 1
 167.5 420 l 1
 635 420 l 1
 621.5 340 l 1
 154.5 340.5 l 1
624.5 699.5 m 1
 710.5 700 l 1
 589 0 l 1
 507 0 l 1
 624.5 699.5 l 1
168.5 699.5 m 1
 254 700 l 1
 133 0 l 1
 51 0 l 1
 168.5 699.5 l 1
470.5 864.5 m 1
 347 770.5 l 1
 302.5 811.5 l 1
 480.5 950 l 1
 614.5 809 l 1
 561 770.5 l 1
 470.5 864.5 l 1
EndSplineSet
EndChar

StartChar: hcircumflex
Encoding: 293 293 282
Width: 509
VWidth: 0
Flags: HMW
LayerCount: 2
Fore
SplineSet
258 780 m 1
 123.5 0 l 1
 44.5 0 l 1
 178.5 780 l 1
 258 780 l 1
380 280 m 2
 387.5 342.5 372.5 393 307 394.5 c 0
 236.5 396 187.5 341.5 171.5 281 c 1
 135.5 281 l 1
 155.5 380 232 469.5 333.5 469.5 c 0
 433.5 469.5 471.5 390.5 459.5 290 c 1
 409.5 0 l 1
 332 0 l 1
 380 280 l 2
253.5 934.5 m 1
 129.5 840.5 l 1
 85.5 881.5 l 1
 263.5 1020 l 1
 397.5 879 l 1
 344 840.5 l 1
 253.5 934.5 l 1
EndSplineSet
EndChar

StartChar: Itilde
Encoding: 296 296 283
Width: 237
VWidth: 0
Flags: HMW
LayerCount: 2
Fore
SplineSet
168.5 699.5 m 1
 254 700 l 1
 133 0 l 1
 51 0 l 1
 168.5 699.5 l 1
69 808.5 m 1
 88.5 851 133.5 890 182 888.5 c 0
 234 887.5 248 841 294.5 842.5 c 0
 318 843.5 338.5 865 358 889.5 c 1
 397.5 845.5 l 1
 374.5 811.5 333.5 772.5 284.5 774.5 c 0
 238 776 217 821.5 175 820.5 c 0
 139.5 819.5 125 788.5 116.5 770.5 c 1
 69 808.5 l 1
EndSplineSet
EndChar

StartChar: itilde
Encoding: 297 297 284
Width: 252
VWidth: 0
Flags: HMW
LayerCount: 2
Fore
SplineSet
137 459.5 m 1
 218 460 l 1
 137.5 0 l 1
 60.5 0 l 1
 137 459.5 l 1
35 568.5 m 1
 54.5 611 99.5 650 148 648.5 c 0
 200 647.5 214 601 260.5 602.5 c 0
 284 603.5 304.5 625 324 649.5 c 1
 363.5 605.5 l 1
 340.5 571.5 299 532.5 250 534.5 c 0
 203.5 536 183 581.5 141 580.5 c 0
 105.5 579.5 91 548.5 82.5 530.5 c 1
 35 568.5 l 1
EndSplineSet
EndChar

StartChar: Imacron
Encoding: 298 298 285
Width: 237
VWidth: 0
Flags: HMW
LayerCount: 2
Fore
SplineSet
168.5 699.5 m 1
 254 700 l 1
 133 0 l 1
 51 0 l 1
 168.5 699.5 l 1
54 770.5 m 1
 66.5 845 l 1
 408 845 l 1
 395 770 l 1
 54 770.5 l 1
EndSplineSet
EndChar

StartChar: imacron
Encoding: 299 299 286
Width: 252
VWidth: 0
Flags: HMW
LayerCount: 2
Fore
SplineSet
137 459.5 m 1
 218 460 l 1
 137.5 0 l 1
 60.5 0 l 1
 137 459.5 l 1
20 530.5 m 1
 32.5 605 l 1
 373.5 605 l 1
 361 530 l 1
 20 530.5 l 1
EndSplineSet
EndChar

StartChar: Ibreve
Encoding: 300 300 287
Width: 237
VWidth: 0
Flags: HMW
LayerCount: 2
Fore
SplineSet
168.5 699.5 m 1
 254 700 l 1
 133 0 l 1
 51 0 l 1
 168.5 699.5 l 1
93.5 910 m 1
 162.5 909.5 l 1
 161 876.5 173.5 836 232 835.5 c 0
 292.5 835 317.5 877.5 331 909.5 c 1
 401.5 909 l 1
 382.5 837 323.5 770.5 226.5 770.5 c 0
 130.5 770.5 88 836.5 93.5 910 c 1
EndSplineSet
EndChar

StartChar: ibreve
Encoding: 301 301 288
Width: 252
VWidth: 0
Flags: HMW
LayerCount: 2
Fore
SplineSet
137 459.5 m 1
 218 460 l 1
 137.5 0 l 1
 60.5 0 l 1
 137 459.5 l 1
59 670 m 1
 128 669.5 l 1
 126.5 636.5 139 596 197.5 595.5 c 0
 258 595 283 637.5 296.5 669.5 c 1
 367 669 l 1
 348 597 289 530.5 192 530.5 c 0
 96 530.5 53.5 596.5 59 670 c 1
EndSplineSet
EndChar

StartChar: Iogonek
Encoding: 302 302 289
Width: 237
VWidth: 0
Flags: HMW
LayerCount: 2
Fore
SplineSet
168.5 699.5 m 1
 254 700 l 1
 133 0 l 1
 51 0 l 1
 168.5 699.5 l 1
114.5 -130 m 1
 139.5 -181.5 l 1
 117.5 -201 88 -219 49 -219.5 c 0
 -23 -220.5 -65 -180 -56 -119.5 c 0
 -45 -53.5 29 -8.5 95.5 24.5 c 1
 134 0 l 1
 87.5 -22.5 32.5 -56 25.5 -100 c 0
 22.5 -129 34.5 -147.5 62 -149.5 c 0
 84 -151 100 -140.5 114.5 -130 c 1
EndSplineSet
EndChar

StartChar: iogonek
Encoding: 303 303 290
Width: 252
VWidth: 0
Flags: HMW
LayerCount: 2
Fore
SplineSet
156 651 m 0
 159 678 190.5 706 218 704.5 c 0
 246.5 703 267 677 264 649 c 0
 261 622 229.5 594 202 595.5 c 0
 173.5 597 153 623 156 651 c 0
137 459.5 m 1
 218 460 l 1
 137.5 0 l 1
 60.5 0 l 1
 137 459.5 l 1
119.5 -130 m 1
 144.5 -181.5 l 1
 122.5 -201 93 -219 54 -219.5 c 0
 -18 -220.5 -60.5 -180 -51.5 -119.5 c 0
 -40.5 -53.5 34 -8.5 100.5 24.5 c 1
 138.5 0 l 1
 92 -22.5 37.5 -56 30.5 -100 c 0
 27.5 -129 39.5 -147.5 67 -149.5 c 0
 89 -151 105 -140.5 119.5 -130 c 1
EndSplineSet
EndChar

StartChar: Idotaccent
Encoding: 304 304 291
Width: 237
VWidth: 0
Flags: HMW
LayerCount: 2
Fore
SplineSet
168.5 699.5 m 1
 254 700 l 1
 133 0 l 1
 51 0 l 1
 168.5 699.5 l 1
178 826 m 0
 181 853 213 881 240.5 879.5 c 0
 269 878 289 852 286 824 c 0
 283 797 251.5 769 224 770.5 c 0
 195.5 772 175 798 178 826 c 0
EndSplineSet
EndChar

StartChar: uni0136
Encoding: 310 310 292
Width: 548
VWidth: 0
Flags: HMW
LayerCount: 2
Fore
SplineSet
168.5 699.5 m 1
 254 700 l 1
 133 0 l 1
 51 0 l 1
 168.5 699.5 l 1
517 699.5 m 1
 624 699.5 l 1
 270.5 370 l 1
 515 0 l 1
 416 0 l 1
 171 372.5 l 1
 517 699.5 l 1
275 -61 m 1
 351.5 -92 l 1
 201.5 -339 l 1
 146.5 -318 l 1
 275 -61 l 1
EndSplineSet
EndChar

StartChar: uni0137
Encoding: 311 311 293
Width: 426
VWidth: 0
Flags: HMW
LayerCount: 2
Fore
SplineSet
172.5 779.5 m 1
 253.5 780 l 1
 118.5 0 l 1
 41 0 l 1
 172.5 779.5 l 1
359.5 459.5 m 1
 462 459.5 l 1
 232 268 l 1
 398.5 0 l 1
 304 0 l 1
 135.5 272.5 l 1
 359.5 459.5 l 1
212 -61 m 1
 288.5 -92 l 1
 138.5 -339 l 1
 83.5 -318 l 1
 212 -61 l 1
EndSplineSet
EndChar

StartChar: Lacute
Encoding: 313 313 294
Width: 436
VWidth: 0
Flags: HMW
LayerCount: 2
Fore
SplineSet
169.5 700 m 1
 254 700 l 1
 147.5 80 l 1
 414.5 80 l 1
 400.5 0 l 1
 49.5 0 l 1
 169.5 700 l 1
509 917.5 m 1
 310 771 l 1
 268.5 801.5 l 1
 440.5 959.5 l 1
 509 917.5 l 1
EndSplineSet
EndChar

StartChar: lacute
Encoding: 314 314 295
Width: 223
VWidth: 0
Flags: HMW
LayerCount: 2
Fore
SplineSet
177.5 779.5 m 1
 258 780 l 1
 123 0 l 1
 46 0 l 1
 177.5 779.5 l 1
380.5 987.5 m 1
 181.5 841 l 1
 140 871.5 l 1
 311.5 1029.5 l 1
 380.5 987.5 l 1
EndSplineSet
EndChar

StartChar: uni013B
Encoding: 315 315 296
Width: 436
VWidth: 0
Flags: HMW
LayerCount: 2
Fore
SplineSet
169.5 700 m 1
 254 700 l 1
 147.5 80 l 1
 414.5 80 l 1
 400.5 0 l 1
 49.5 0 l 1
 169.5 700 l 1
217 -61 m 1
 293 -92 l 1
 143.5 -339 l 1
 88 -318 l 1
 217 -61 l 1
EndSplineSet
EndChar

StartChar: uni013C
Encoding: 316 316 297
Width: 223
VWidth: 0
Flags: HMW
LayerCount: 2
Fore
SplineSet
177.5 779.5 m 1
 258 780 l 1
 123 0 l 1
 46 0 l 1
 177.5 779.5 l 1
76 -61 m 1
 152.5 -92 l 1
 2.5 -339 l 1
 -52.5 -318 l 1
 76 -61 l 1
EndSplineSet
EndChar

StartChar: Lcaron
Encoding: 317 317 298
Width: 436
VWidth: 0
Flags: HMW
LayerCount: 2
Fore
SplineSet
169.5 700 m 1
 254 700 l 1
 147.5 80 l 1
 414.5 80 l 1
 400.5 0 l 1
 49.5 0 l 1
 169.5 700 l 1
410.5 709 m 1
 486.5 678 l 1
 337 431 l 1
 282 452 l 1
 410.5 709 l 1
EndSplineSet
EndChar

StartChar: lcaron
Encoding: 318 318 299
Width: 223
VWidth: 0
Flags: HMW
LayerCount: 2
Fore
SplineSet
177.5 779.5 m 1
 258 780 l 1
 123 0 l 1
 46 0 l 1
 177.5 779.5 l 1
388.5 779 m 1
 464.5 748 l 1
 315 501 l 1
 259.5 522 l 1
 388.5 779 l 1
EndSplineSet
EndChar

StartChar: Ldot
Encoding: 319 319 300
Width: 436
VWidth: 0
Flags: HMW
LayerCount: 2
Fore
SplineSet
169.5 700 m 1
 254 700 l 1
 147.5 80 l 1
 414.5 80 l 1
 400.5 0 l 1
 49.5 0 l 1
 169.5 700 l 1
290.5 416 m 0
 293.5 443 325 471 352.5 469.5 c 0
 381 468 401.5 442 398.5 414 c 0
 395.5 387 364 359 336.5 360.5 c 0
 308 362 287.5 388 290.5 416 c 0
EndSplineSet
EndChar

StartChar: ldot
Encoding: 320 320 301
Width: 359
VWidth: 0
Flags: HMW
LayerCount: 2
Fore
SplineSet
177.5 779.5 m 1
 258 780 l 1
 123 0 l 1
 46 0 l 1
 177.5 779.5 l 1
252 416 m 0
 255 443 286.5 471 314 469.5 c 0
 342.5 468 362.5 442 359.5 414 c 0
 356.5 387 325 359 297.5 360.5 c 0
 269 362 249 388 252 416 c 0
EndSplineSet
EndChar

StartChar: eth
Encoding: 240 240 302
Width: 558
VWidth: 0
Flags: HMW
LayerCount: 2
Fore
SplineSet
443.5 230 m 0
 457 314.5 413 394 322.5 394.5 c 0
 231 395 154.5 319.5 139.5 230 c 0
 126 145.5 171 68 261 67.5 c 0
 352.5 67 428.5 140.5 443.5 230 c 0
330 700 m 1
 504 375 l 2
 524.5 332.5 531 282 523.5 230 c 0
 503 95 390 -9.5 253.5 -9.5 c 0
 119 -9.5 41 100 59.5 230.5 c 0
 77.5 351 178.5 456 297.5 456.5 c 0
 340 456.5 370.5 445.5 397 414.5 c 1
 392 410.5 l 1
 228.5 700 l 1
 330 700 l 1
212 520.5 m 1
 222 584.5 l 1
 514.5 584.5 l 1
 504 520.5 l 1
 212 520.5 l 1
EndSplineSet
EndChar

StartChar: racute
Encoding: 341 341 303
Width: 332
VWidth: 0
Flags: HMW
LayerCount: 2
Fore
SplineSet
203 460 m 1
 123.5 0 l 1
 44 0 l 1
 124 460 l 1
 203 460 l 1
324 372.5 m 1
 305.5 386 291 394.5 268 395 c 0
 207 396 182.5 337.5 171.5 281 c 1
 135 281 l 1
 151.5 373.5 215 468.5 295.5 469.5 c 0
 328 470 353 459 376.5 436.5 c 1
 324 372.5 l 1
415.5 677.5 m 1
 216.5 530.5 l 1
 176.5 561.5 l 1
 348 719.5 l 1
 415.5 677.5 l 1
EndSplineSet
EndChar

StartChar: rcaron
Encoding: 345 345 304
Width: 332
VWidth: 0
Flags: HMW
LayerCount: 2
Fore
SplineSet
203 460 m 1
 123.5 0 l 1
 44 0 l 1
 124 460 l 1
 203 460 l 1
324 372.5 m 1
 305.5 386 291 394.5 268 395 c 0
 207 396 182.5 337.5 171.5 281 c 1
 135 281 l 1
 151.5 373.5 215 468.5 295.5 469.5 c 0
 328 470 353 459 376.5 436.5 c 1
 324 372.5 l 1
275 615.5 m 1
 399 709.5 l 1
 443 668.5 l 1
 265 530 l 1
 131 671 l 1
 185 709.5 l 1
 275 615.5 l 1
EndSplineSet
EndChar

StartChar: Rcaron
Encoding: 344 344 305
Width: 543
VWidth: 0
Flags: HMW
LayerCount: 2
Fore
SplineSet
230.5 345 m 1
 322 345 l 1
 505.5 0 l 1
 406.5 0 l 1
 230.5 345 l 1
168.5 699.5 m 1
 254 700 l 1
 133 0 l 1
 51 0 l 1
 168.5 699.5 l 1
201.5 625 m 1
 215 700 l 1
 351.5 700 l 1
 478.5 697.5 569.5 614 550.5 489.5 c 0
 531 362.5 416.5 282.5 285.5 280 c 1
 142.5 280 l 1
 156 355 l 1
 292.5 355 l 1
 379.5 357.5 451.5 406.5 466.5 490 c 0
 480.5 571 428 622 344.5 624.5 c 1
 201.5 625 l 1
363.5 855.5 m 1
 487.5 949.5 l 1
 531.5 908.5 l 1
 353.5 770 l 1
 219.5 911 l 1
 273.5 949.5 l 1
 363.5 855.5 l 1
EndSplineSet
EndChar

StartChar: uni0213
Encoding: 531 531 306
Width: 332
VWidth: 0
Flags: HMW
LayerCount: 2
Fore
SplineSet
203 460 m 1
 123.5 0 l 1
 44 0 l 1
 124 460 l 1
 203 460 l 1
324 372.5 m 1
 305.5 386 291 394.5 268 395 c 0
 207 396 182.5 337.5 171.5 281 c 1
 135 281 l 1
 151.5 373.5 215 468.5 295.5 469.5 c 0
 328 470 353 459 376.5 436.5 c 1
 324 372.5 l 1
110 530 m 1
 182.5 530.5 l 1
 195.5 563 219.5 604.5 280 604.5 c 0
 339.5 604.5 354 564 353 529.5 c 1
 416 530 l 1
 424.5 602 386.5 668.5 291 669.5 c 0
 192.5 670.5 131.5 602 110 530 c 1
EndSplineSet
EndChar

StartChar: uni0212
Encoding: 530 530 307
Width: 543
VWidth: 0
Flags: HMW
LayerCount: 2
Fore
SplineSet
230.5 345 m 1
 322 345 l 1
 505.5 0 l 1
 406.5 0 l 1
 230.5 345 l 1
168.5 699.5 m 1
 254 700 l 1
 133 0 l 1
 51 0 l 1
 168.5 699.5 l 1
201.5 625 m 1
 215 700 l 1
 351.5 700 l 1
 478.5 697.5 569.5 614 550.5 489.5 c 0
 531 362.5 416.5 282.5 285.5 280 c 1
 142.5 280 l 1
 156 355 l 1
 292.5 355 l 1
 379.5 357.5 451.5 406.5 466.5 490 c 0
 480.5 571 428 622 344.5 624.5 c 1
 201.5 625 l 1
217 770 m 1
 289.5 770.5 l 1
 302.5 803 326.5 844.5 387 844.5 c 0
 446.5 844.5 461 804 460 769.5 c 1
 523 770 l 1
 531.5 842 493.5 908.5 398 909.5 c 0
 299.5 910.5 238.5 842 217 770 c 1
EndSplineSet
EndChar

StartChar: OE
Encoding: 338 338 308
Width: 955
VWidth: 0
Flags: HMW
LayerCount: 2
Fore
SplineSet
576.5 340.5 m 1
 590 420 l 1
 914.5 420 l 1
 901 340 l 1
 576.5 340.5 l 1
585.5 669.5 m 1
 671 670 l 1
 560 30 l 1
 478 30.5 l 1
 585.5 669.5 l 1
875 79.5 m 1
 862 0 l 1
 354.5 0 l 1
 155 3.5 42 158 70.5 350 c 0
 101.5 550 263.5 697 467.5 700 c 1
 981.5 700 l 1
 967 620 l 1
 633 620 l 1
 616.5 620 l 1
 460.5 620 l 1
 302 617 180.5 504.5 154.5 350 c 0
 131 203.5 207.5 83.5 362 80 c 1
 515.5 80 l 1
 538.5 80 l 1
 875 79.5 l 1
EndSplineSet
EndChar

StartChar: oe
Encoding: 339 339 309
Width: 873
VWidth: 0
Flags: HMW
LayerCount: 2
Fore
SplineSet
772.5 250 m 2
 783 325.5 761 398 673 399.5 c 0
 590 401 523 339 506 260 c 1
 498.5 230 l 1
 485.5 141 518 67 610 65.5 c 0
 675.5 64.5 726 102.5 764.5 147.5 c 1
 823.5 105.5 l 1
 768.5 41 698 -10 603 -9.5 c 0
 474.5 -8.5 412 107 428.5 230 c 0
 431 247 435 263 440.5 279 c 0
 475 386 570 470.5 688.5 469.5 c 0
 808.5 468.5 867.5 357.5 853 234 c 0
 852 226 850.5 218.5 848.5 210.5 c 1
 769 230.5 l 1
 772.5 250 l 2
475.5 210.5 m 1
 486 277.5 l 1
 839 278 l 1
 848 210 l 1
 475.5 210.5 l 1
45 230 m 0
 64.5 365.5 175.5 470 305.5 469.5 c 0
 435.5 469 482 356.5 465.5 230 c 0
 446.5 97 358.5 -9 229.5 -9.5 c 0
 100 -10 27 99.5 45 230 c 0
125 230 m 0
 111.5 140.5 157.5 65.5 246 65.5 c 0
 325 65.5 395.5 138.5 409.5 230 c 0
 421 315 386.5 392.5 308 394.5 c 0
 218.5 397 140 324 125 230 c 0
EndSplineSet
EndChar

StartChar: a.alt
Encoding: 65536 -1 310
Width: 470
VWidth: 0
Flags: HMW
LayerCount: 2
Fore
SplineSet
103.5 135 m 0
 96.5 87.5 134.5 62.5 182.5 61.5 c 0
 263 59.5 319.5 104 338.5 179.5 c 1
 346 129 l 1
 325.5 44.5 251 -10 156.5 -9.5 c 0
 72 -9 11.5 45.5 23.5 132.5 c 0
 38.5 230 129 286 238.5 285.5 c 0
 309.5 285 355 253.5 379 224.5 c 1
 371.5 178.5 l 1
 331 209 289.5 225 237 224.5 c 0
 167.5 224 112.5 193.5 103.5 135 c 0
142 352 m 1
 113 414.5 l 1
 158 442 217.5 470 291 469.5 c 0
 385.5 469 457 418 442 330 c 2
 385.5 0 l 1
 306 0 l 1
 364.5 330 l 2
 372 373.5 332.5 398 284 399 c 0
 225 400 175.5 371.5 142 352 c 1
EndSplineSet
EndChar

StartChar: Jcircumflex
Encoding: 308 308 312
Width: 232
VWidth: 0
Flags: HMW
LayerCount: 2
Fore
SplineSet
-112 -104.5 m 1
 -97 -126.5 -74.5 -141 -42 -140 c 0
 -3 -138 32.5 -103 41 -50 c 1
 169.5 700 l 1
 249 700 l 1
 119.5 -60.5 l 2
 103.5 -157 39.5 -220.5 -55.5 -219.5 c 0
 -103.5 -219 -143 -194.5 -164.5 -169 c 1
 -112 -104.5 l 1
239.5 864.5 m 1
 116 770.5 l 1
 71.5 811.5 l 1
 249.5 950 l 1
 383.5 809 l 1
 330 770.5 l 1
 239.5 864.5 l 1
EndSplineSet
EndChar

StartChar: jcircumflex
Encoding: 309 309 313
Width: 242
VWidth: 0
Flags: HMW
LayerCount: 2
Fore
SplineSet
-65 -114.5 m 1
 -53.5 -132 -39.5 -140.5 -22.5 -140.5 c 0
 14 -140 34.5 -99.5 41 -50 c 2
 128.5 460 l 1
 208 460 l 1
 119.5 -60.5 l 2
 105.5 -153 52 -221.5 -36 -219.5 c 0
 -74.5 -219 -99.5 -200.5 -117.5 -178.5 c 1
 -65 -114.5 l 1
198.5 624.5 m 1
 75 530.5 l 1
 30.5 571.5 l 1
 208.5 710 l 1
 342.5 569 l 1
 289 530.5 l 1
 198.5 624.5 l 1
EndSplineSet
EndChar

StartChar: Nacute
Encoding: 323 323 314
Width: 752
VWidth: 0
Flags: HMW
LayerCount: 2
Fore
SplineSet
684 700 m 1
 768 700 l 1
 642 -34 l 1
 223.5 521.5 l 1
 133.5 0 l 1
 49 0 l 1
 175 734 l 1
 594 178.5 l 1
 684 700 l 1
671.5 902.5 m 1
 472.5 756 l 1
 431 786.5 l 1
 603 944.5 l 1
 671.5 902.5 l 1
EndSplineSet
EndChar

StartChar: nacute
Encoding: 324 324 315
Width: 509
VWidth: 0
Flags: HMW
LayerCount: 2
Fore
SplineSet
203 460 m 1
 123.5 0 l 1
 44 0 l 1
 124 460 l 1
 203 460 l 1
380 280 m 2
 387.5 342.5 373 393 307 394.5 c 0
 236.5 396 187.5 341.5 171.5 281 c 1
 145 281 l 1
 164 379.5 232.5 469.5 333.5 469.5 c 0
 433.5 469.5 471.5 390.5 459.5 290 c 1
 409.5 0 l 1
 332 0 l 1
 380 280 l 2
479.5 677.5 m 1
 281 530.5 l 1
 240.5 561.5 l 1
 412 719.5 l 1
 479.5 677.5 l 1
EndSplineSet
EndChar

StartChar: uni0145
Encoding: 325 325 316
Width: 752
VWidth: 0
Flags: HMW
LayerCount: 2
Fore
SplineSet
352 -36 m 1
 428.5 -67 l 1
 278.5 -314 l 1
 223.5 -293 l 1
 352 -36 l 1
684 700 m 1
 768 700 l 1
 642 -34 l 1
 223.5 521.5 l 1
 133.5 0 l 1
 49 0 l 1
 175 734 l 1
 594 178.5 l 1
 684 700 l 1
EndSplineSet
EndChar

StartChar: uni0146
Encoding: 326 326 317
Width: 509
VWidth: 0
Flags: HMW
LayerCount: 2
Fore
SplineSet
203 460 m 1
 123.5 0 l 1
 44 0 l 1
 124 460 l 1
 203 460 l 1
380 280 m 2
 387.5 342.5 373 393 307 394.5 c 0
 236.5 396 187.5 341.5 171.5 281 c 1
 135.5 281 l 1
 155.5 380 232 469.5 333.5 469.5 c 0
 433.5 469.5 471.5 390.5 459.5 290 c 1
 409.5 0 l 1
 332 0 l 1
 380 280 l 2
219 -61 m 1
 295 -92 l 1
 145.5 -339 l 1
 90 -318 l 1
 219 -61 l 1
EndSplineSet
EndChar

StartChar: Ncaron
Encoding: 327 327 318
Width: 752
VWidth: 0
Flags: HMW
LayerCount: 2
Fore
SplineSet
508.5 880.5 m 1
 632.5 974.5 l 1
 676.5 933.5 l 1
 498.5 795 l 1
 364.5 936 l 1
 418.5 974.5 l 1
 508.5 880.5 l 1
684 700 m 1
 768 700 l 1
 642 -34 l 1
 223.5 521.5 l 1
 133.5 0 l 1
 49 0 l 1
 175 734 l 1
 594 178.5 l 1
 684 700 l 1
EndSplineSet
EndChar

StartChar: ncaron
Encoding: 328 328 319
Width: 509
VWidth: 0
Flags: HMW
LayerCount: 2
Fore
SplineSet
203 460 m 1
 123.5 0 l 1
 44 0 l 1
 124 460 l 1
 203 460 l 1
380 280 m 2
 387.5 342.5 373 393 307 394.5 c 0
 236.5 396 187.5 341.5 171.5 281 c 1
 135.5 281 l 1
 155.5 380 232 469.5 333.5 469.5 c 0
 433.5 469.5 471.5 390.5 459.5 290 c 1
 409.5 0 l 1
 332 0 l 1
 380 280 l 2
329.5 615.5 m 1
 453.5 709.5 l 1
 497.5 668.5 l 1
 319.5 530 l 1
 185.5 671 l 1
 239 709.5 l 1
 329.5 615.5 l 1
EndSplineSet
EndChar

StartChar: Omacron
Encoding: 332 332 320
Width: 766
VWidth: 0
Flags: HMW
LayerCount: 2
Fore
SplineSet
159.5 350 m 0
 137.5 209 213 76.5 366 75.5 c 0
 521 74.5 647.5 201 672.5 350 c 0
 694.5 491 619 623.5 466 624.5 c 0
 311 625.5 184.5 499 159.5 350 c 0
70.5 350 m 0
 101 546 270 710.5 474.5 710 c 0
 676 709.5 789 537.5 761.5 350 c 0
 731 154 562 -10.5 357.5 -10 c 0
 156 -9.5 43 162.5 70.5 350 c 0
318 770.5 m 1
 330.5 845 l 1
 672 845 l 1
 659 770 l 1
 318 770.5 l 1
EndSplineSet
EndChar

StartChar: omacron
Encoding: 333 333 321
Width: 529
VWidth: 0
Flags: HMW
LayerCount: 2
Fore
SplineSet
45 230 m 0
 65 362 179.5 469.5 315 469.5 c 0
 449 469.5 527.5 357.5 509 230 c 0
 489 98 374.5 -9.5 239 -9.5 c 0
 105 -9.5 26.5 102.5 45 230 c 0
125 230 m 0
 111.5 145.5 155.5 66 246 65.5 c 0
 337.5 65 414 140.5 429 230 c 0
 442.5 314.5 398.5 394 308 394.5 c 0
 216.5 395 140 319.5 125 230 c 0
159 530.5 m 1
 171 605 l 1
 512.5 605 l 1
 499.5 530 l 1
 159 530.5 l 1
EndSplineSet
EndChar

StartChar: Obreve
Encoding: 334 334 322
Width: 766
VWidth: 0
Flags: HMW
LayerCount: 2
Fore
SplineSet
159.5 350 m 0
 137.5 209 213 76.5 366 75.5 c 0
 521 74.5 647.5 201 672.5 350 c 0
 694.5 491 619 623.5 466 624.5 c 0
 311 625.5 184.5 499 159.5 350 c 0
70.5 350 m 0
 101 546 270 710.5 474.5 710 c 0
 676 709.5 789 537.5 761.5 350 c 0
 731 154 562 -10.5 357.5 -10 c 0
 156 -9.5 43 162.5 70.5 350 c 0
357.5 910 m 1
 426.5 909.5 l 1
 425 876.5 437.5 836 496 835.5 c 0
 556.5 835 581.5 877.5 595 909.5 c 1
 665.5 909 l 1
 646.5 837 587 770.5 490 770.5 c 0
 394 770.5 352 836.5 357.5 910 c 1
EndSplineSet
EndChar

StartChar: obreve
Encoding: 335 335 323
Width: 529
VWidth: 0
Flags: HMW
LayerCount: 2
Fore
SplineSet
45 230 m 0
 65 362 179.5 469.5 315 469.5 c 0
 449 469.5 527.5 357.5 509 230 c 0
 489 98 374.5 -9.5 239 -9.5 c 0
 105 -9.5 26.5 102.5 45 230 c 0
125 230 m 0
 111.5 145.5 155.5 66 246 65.5 c 0
 337.5 65 414 140.5 429 230 c 0
 442.5 314.5 398.5 394 308 394.5 c 0
 216.5 395 140 319.5 125 230 c 0
198 670 m 1
 267 669.5 l 1
 265.5 636.5 278 596 336.5 595.5 c 0
 397 595 422 637.5 435.5 669.5 c 1
 506 669 l 1
 487 597 428 530.5 331 530.5 c 0
 235 530.5 192.5 596.5 198 670 c 1
EndSplineSet
EndChar

StartChar: Racute
Encoding: 340 340 324
Width: 543
VWidth: 0
Flags: HMW
LayerCount: 2
Fore
SplineSet
230.5 345 m 1
 322 345 l 1
 505.5 0 l 1
 406.5 0 l 1
 230.5 345 l 1
168.5 699.5 m 1
 254 700 l 1
 133 0 l 1
 51 0 l 1
 168.5 699.5 l 1
201.5 625 m 1
 215 700 l 1
 351.5 700 l 1
 478.5 697.5 569.5 614 550.5 489.5 c 0
 531 362.5 416.5 282.5 285.5 280 c 1
 142.5 280 l 1
 156 355 l 1
 292.5 355 l 1
 379.5 357.5 451.5 406.5 466.5 490 c 0
 480.5 571 428 622 344.5 624.5 c 1
 201.5 625 l 1
523.5 917.5 m 1
 324.5 771 l 1
 283 801.5 l 1
 455 959.5 l 1
 523.5 917.5 l 1
EndSplineSet
EndChar

StartChar: uni0156
Encoding: 342 342 325
Width: 543
VWidth: 0
Flags: HMW
LayerCount: 2
Fore
SplineSet
230.5 345 m 1
 322 345 l 1
 505.5 0 l 1
 406.5 0 l 1
 230.5 345 l 1
168.5 699.5 m 1
 254 700 l 1
 133 0 l 1
 51 0 l 1
 168.5 699.5 l 1
201.5 625 m 1
 215 700 l 1
 351.5 700 l 1
 478.5 697.5 569.5 614 550.5 489.5 c 0
 531 362.5 416.5 282.5 285.5 280 c 1
 142.5 280 l 1
 156 355 l 1
 292.5 355 l 1
 379.5 357.5 451.5 406.5 466.5 490 c 0
 480.5 571 428 622 344.5 624.5 c 1
 201.5 625 l 1
270 -61 m 1
 346.5 -92 l 1
 197 -339 l 1
 141.5 -318 l 1
 270 -61 l 1
EndSplineSet
EndChar

StartChar: uni0157
Encoding: 343 343 326
Width: 332
VWidth: 0
Flags: HMW
LayerCount: 2
Fore
SplineSet
203 460 m 1
 123.5 0 l 1
 44 0 l 1
 124 460 l 1
 203 460 l 1
324 372.5 m 1
 305.5 386 291 394.5 268 395 c 0
 207 396 182.5 337.5 171.5 281 c 1
 135 281 l 1
 151.5 373.5 215 468.5 295.5 469.5 c 0
 328 470 353 459 376.5 436.5 c 1
 324 372.5 l 1
76 -61 m 1
 152.5 -92 l 1
 2.5 -339 l 1
 -52.5 -318 l 1
 76 -61 l 1
EndSplineSet
EndChar

StartChar: Scedilla
Encoding: 350 350 327
Width: 531
VWidth: 0
Flags: HMW
LayerCount: 2
Fore
SplineSet
119 226 m 1
 144 142.5 180.5 71 268 70.5 c 0
 342.5 70 394.5 116 406.5 183 c 0
 421.5 268.5 348.5 308 276.5 338 c 0
 201 370 120.5 418 135.5 530.5 c 0
 152 635.5 244.5 709.5 361 709.5 c 0
 465 709.5 521 642 548.5 559 c 1
 475 514.5 l 1
 453.5 572 416 628 344 628.5 c 0
 279.5 629 232 587.5 222.5 529 c 0
 210 458 285.5 425.5 354.5 396 c 0
 432.5 361.5 509 300.5 494.5 189.5 c 0
 477.5 74 379 -9.5 255.5 -9.5 c 0
 141 -9.5 71 76 42.5 184 c 1
 119 226 l 1
272.5 58 m 1
 333 58 l 1
 251.5 -53 l 1
 254 -53 256 -53 258.5 -53 c 0
 294 -56.5 323.5 -84.5 318.5 -128 c 0
 311.5 -184.5 254.5 -220.5 201 -220.5 c 0
 165.5 -220.5 143 -206.5 117.5 -181.5 c 1
 156 -143.5 l 1
 172 -157 184 -167 206.5 -167 c 0
 234 -167 260.5 -149.5 263.5 -126.5 c 0
 266.5 -104 249 -91.5 223 -91 c 0
 207.5 -90 181.5 -97.5 161.5 -108 c 1
 272.5 58 l 1
EndSplineSet
EndChar

StartChar: scedilla
Encoding: 351 351 328
Width: 391
VWidth: 0
Flags: HMW
LayerCount: 2
Fore
SplineSet
84.5 162.5 m 1
 107 113 142.5 67.5 190.5 66.5 c 0
 229.5 65.5 268.5 85.5 275 122.5 c 0
 283.5 170 235.5 192.5 191.5 212 c 0
 132 239.5 72.5 268.5 83.5 347.5 c 0
 95 427.5 173 470.5 247.5 470.5 c 0
 316.5 470.5 370 434 396.5 380 c 1
 329 340.5 l 1
 309.5 370.5 278 397 241 397.5 c 0
 205.5 398 166.5 384 161 349.5 c 0
 153 304.5 215.5 289 256 271 c 0
 316.5 243.5 367.5 201.5 358 130.5 c 0
 346 39.5 269.5 -9 183 -8.5 c 0
 99.5 -8 43 51 17.5 125 c 1
 84.5 162.5 l 1
199 59 m 1
 261.5 59 l 1
 179 -52 l 1
 181 -52 183 -52 185 -52 c 0
 221 -55.5 251.5 -83 247 -127 c 0
 240.5 -184 181 -220 127.5 -219.5 c 0
 92.5 -219 71 -205.5 46 -180.5 c 1
 82.5 -142.5 l 1
 98.5 -156 110.5 -166 133 -166 c 0
 160.5 -166 187 -148.5 190 -125.5 c 0
 193 -103 175 -90.5 149 -90 c 0
 134 -89 110 -96.5 90 -107 c 1
 199 59 l 1
EndSplineSet
EndChar

StartChar: Zcaron
Encoding: 381 381 329
Width: 528
VWidth: 0
Flags: HMW
LayerCount: 2
Fore
SplineSet
111.5 620 m 1
 126 700 l 1
 604 699.5 l 1
 141 80.5 l 1
 478 80 l 1
 463.5 0 l 1
 -15 0 l 1
 448.5 619.5 l 1
 111.5 620 l 1
388 855.5 m 1
 511.5 949.5 l 1
 556 908.5 l 1
 378 770 l 1
 244 911 l 1
 297.5 949.5 l 1
 388 855.5 l 1
EndSplineSet
EndChar

StartChar: zcaron
Encoding: 382 382 330
Width: 446
VWidth: 0
Flags: HMW
LayerCount: 2
Fore
SplineSet
313 615.5 m 1
 437 709.5 l 1
 481 668.5 l 1
 303 530 l 1
 169 671 l 1
 222.5 709.5 l 1
 313 615.5 l 1
327.5 384.5 m 1
 81 385 l 1
 94.5 460 l 1
 486 459.5 l 1
 143 75.5 l 1
 399.5 75 l 1
 386 0 l 1
 -15 0 l 1
 327.5 384.5 l 1
EndSplineSet
EndChar

StartChar: Ydieresis
Encoding: 376 376 331
Width: 544
VWidth: 0
Flags: HMW
LayerCount: 2
Fore
SplineSet
235.5 826 m 0
 238.5 852.5 269 881 296.5 879.5 c 0
 325 878 346 852 343 824 c 0
 340 797 307.5 769 280 770.5 c 0
 251 772 232.5 798.5 235.5 826 c 0
429.5 826 m 0
 432.5 852.5 463 881 490.5 879.5 c 0
 519 878 540.5 852 537.5 824 c 0
 534.5 797 501.5 769 474 770.5 c 0
 445 772 426.5 798.5 429.5 826 c 0
538 699.5 m 1
 634.5 699.5 l 1
 338 299.5 l 1
 286.5 0 l 1
 202.5 0 l 1
 256 304 l 1
 98 700 l 1
 189 700 l 1
 307.5 377.5 l 1
 538 699.5 l 1
EndSplineSet
EndChar

StartChar: Scaron
Encoding: 352 352 332
Width: 531
VWidth: 0
Flags: HMW
LayerCount: 2
Fore
SplineSet
119 226 m 1
 144 142.5 180.5 71 268 70.5 c 0
 342.5 70 394.5 116 406.5 183 c 0
 421.5 268.5 348.5 307.5 276.5 338 c 0
 202 370.5 121.5 430 136 535.5 c 0
 152 639.5 251.5 710 361 709.5 c 0
 464 709 527 637 548.5 559 c 1
 474.5 514 l 1
 454 570.5 425.5 627.5 354 628.5 c 0
 288.5 629 232.5 588.5 222.5 529 c 0
 209.5 458.5 285.5 425.5 354.5 396 c 0
 432.5 361.5 508.5 300.5 494 189.5 c 0
 477 73 385 -10 255.5 -9.5 c 0
 141 -9 71 76 42.5 184 c 1
 119 226 l 1
386 855.5 m 1
 509.5 949.5 l 1
 554 908.5 l 1
 376 770 l 1
 242 911 l 1
 295.5 949.5 l 1
 386 855.5 l 1
EndSplineSet
EndChar

StartChar: scaron
Encoding: 353 353 333
Width: 391
VWidth: 0
Flags: HMW
LayerCount: 2
Fore
SplineSet
87.5 160.5 m 1
 95 107.5 128.5 66 185.5 65.5 c 0
 229.5 65 268 84.5 275 123.5 c 0
 284 172.5 236 195 192 215 c 0
 134 242 73.5 277 84 349.5 c 0
 95 423.5 174.5 469 247.5 469.5 c 0
 316.5 470 377.5 435 396.5 379 c 1
 329 339.5 l 1
 309 369 277.5 393.5 240.5 393.5 c 0
 205 393.5 166.5 378 161.5 343.5 c 0
 155 304 216 284 255.5 266 c 0
 314 238.5 366.5 194.5 358 129.5 c 0
 346.5 36.5 265.5 -10.5 173 -9.5 c 0
 89.5 -9 26.5 47 17.5 123.5 c 1
 87.5 160.5 l 1
272 615.5 m 1
 396 709.5 l 1
 440.5 668.5 l 1
 262 530 l 1
 128 671 l 1
 182 709.5 l 1
 272 615.5 l 1
EndSplineSet
EndChar

StartChar: Lslash
Encoding: 321 321 334
Width: 436
VWidth: 0
Flags: HMW
LayerCount: 2
Fore
SplineSet
36.5 340.5 m 1
 25.5 396 l 1
 316 564.5 l 1
 327.5 509 l 1
 36.5 340.5 l 1
169.5 700 m 1
 254 700 l 1
 147.5 80 l 1
 414.5 80 l 1
 400.5 0 l 1
 49.5 0 l 1
 169.5 700 l 1
EndSplineSet
EndChar

StartChar: lslash
Encoding: 322 322 335
Width: 223
VWidth: 0
Flags: HMW
LayerCount: 2
Fore
SplineSet
36.5 340.5 m 1
 25.5 396 l 1
 293.5 544.5 l 1
 304.5 489 l 1
 36.5 340.5 l 1
177.5 779.5 m 1
 258 780 l 1
 123 0 l 1
 46 0 l 1
 177.5 779.5 l 1
EndSplineSet
EndChar

StartChar: uni0218
Encoding: 536 536 336
Width: 531
VWidth: 0
Flags: HMW
LayerCount: 2
Fore
SplineSet
119 226 m 1
 144 142.5 180.5 71 268 70.5 c 0
 342.5 70 394.5 116 406.5 183 c 0
 421.5 268.5 348.5 307.5 276.5 338 c 0
 202 370.5 121.5 430 136 535.5 c 0
 152 639.5 251.5 710 361 709.5 c 0
 464 709 527 637 548.5 559 c 1
 474.5 514 l 1
 454 570.5 425.5 627.5 354 628.5 c 0
 288.5 629 232.5 588.5 222.5 529 c 0
 209.5 458.5 285.5 425.5 354.5 396 c 0
 432.5 361.5 509 300.5 494.5 189.5 c 0
 477.5 73 385 -10 255.5 -9.5 c 0
 141 -9 71 76 42.5 184 c 1
 119 226 l 1
244.5 -71 m 1
 320.5 -102 l 1
 171 -349 l 1
 115.5 -328 l 1
 244.5 -71 l 1
EndSplineSet
EndChar

StartChar: uni0219
Encoding: 537 537 337
Width: 391
VWidth: 0
Flags: HMW
LayerCount: 2
Fore
SplineSet
87.5 160.5 m 1
 95 107.5 128 66 185 65.5 c 0
 229 65 268 84.5 275 123.5 c 0
 284 172.5 236 195 192 215 c 0
 134 242 73.5 277 84 349.5 c 0
 95 423.5 174.5 469 247.5 469.5 c 0
 316.5 470 377.5 435 396.5 379 c 1
 329 339.5 l 1
 309 369 277.5 393.5 240.5 393.5 c 0
 205 393.5 166.5 378 161.5 343.5 c 0
 155 304 216 284 255.5 266 c 0
 314 238.5 366.5 194.5 358 129.5 c 0
 346.5 36.5 265.5 -10.5 173 -9.5 c 0
 89.5 -9 26.5 47 17.5 123.5 c 1
 87.5 160.5 l 1
162 -71 m 1
 238 -102 l 1
 88.5 -349 l 1
 33 -328 l 1
 162 -71 l 1
EndSplineSet
EndChar

StartChar: pi
Encoding: 960 960 338
Width: 524
VWidth: 0
Flags: HMW
LayerCount: 2
Fore
SplineSet
132 429.5 m 1
 213 430 l 1
 137.5 0 l 1
 60.5 0 l 1
 132 429.5 l 1
80 460 m 1
 538 460 l 1
 524.5 385 l 1
 66.5 385 l 1
 80 460 l 1
376 430 m 1
 455.5 430 l 1
 404.5 141 l 1
 399 88.5 411 78.5 444.5 71 c 1
 431.5 -8.5 l 1
 348 -4 311.5 26 323 121 c 1
 376 430 l 1
EndSplineSet
EndChar

StartChar: trademark
Encoding: 8482 8482 339
Width: 645
VWidth: 0
Flags: HMW
LayerCount: 2
Fore
SplineSet
116.5 660.5 m 1
 123 699.5 l 1
 340 699.5 l 1
 334 660.5 l 1
 246 660 l 1
 193 350.5 l 1
 150.5 350.5 l 1
 202.5 660 l 1
 116.5 660.5 l 1
620 602 m 1
 671 722.5 l 1
 646 350 l 1
 604.5 350.5 l 1
 620 602 l 1
396 716.5 m 1
 403.5 598.5 l 1
 334 350.5 l 1
 292 351 l 1
 396 716.5 l 1
672 722 m 1
 653.5 629 l 1
 475 381 l 1
 381.5 635 l 1
 396 717 l 1
 487 465.5 l 1
 672 722 l 1
EndSplineSet
EndChar

StartChar: uni2219
Encoding: 8729 8729 340
Width: 291
VWidth: 0
Flags: HMW
LayerCount: 2
Fore
SplineSet
135.5 416 m 0
 138.5 443 170 471 197.5 469.5 c 0
 226 468 246 442 243 414 c 0
 240 387 208.5 359 181 360.5 c 0
 152.5 362 132.5 388 135.5 416 c 0
EndSplineSet
EndChar

StartChar: agrave.alt
Encoding: 65537 -1 341
Width: 470
VWidth: 0
Flags: HMW
LayerCount: 2
Fore
SplineSet
103.5 135 m 0
 95.5 86.5 128.5 62.5 182.5 61.5 c 0
 263.5 60 319.5 103.5 338.5 179.5 c 1
 346 129 l 1
 325.5 44.5 251 -10 156.5 -9.5 c 0
 69.5 -9 10.5 43.5 22.5 125.5 c 0
 37 228.5 133 286 238.5 285.5 c 0
 309.5 285.5 355 253.5 379 224.5 c 1
 371.5 178.5 l 1
 331 209 289.5 225 237 224.5 c 0
 167.5 224 113.5 193 103.5 135 c 0
142 352 m 1
 113 414.5 l 1
 158 442 217.5 470 291 469.5 c 0
 385.5 469 453.5 419 442 330 c 1
 385.5 0 l 1
 306 0 l 1
 364.5 330 l 1
 365 375 332.5 398 284 399 c 0
 225 400 175.5 371.5 142 352 c 1
173.5 681 m 1
 252.5 720 l 1
 373 559 l 1
 325.5 530 l 1
 173.5 681 l 1
EndSplineSet
EndChar

StartChar: aacute.alt
Encoding: 65538 -1 342
Width: 470
VWidth: 0
Flags: HMW
LayerCount: 2
Fore
SplineSet
103.5 135 m 0
 95.5 86.5 128.5 62.5 182.5 61.5 c 0
 263.5 60 319.5 103.5 338.5 179.5 c 1
 346 129 l 1
 325.5 44.5 251 -10 156.5 -9.5 c 0
 69.5 -9 10.5 43.5 22.5 125.5 c 0
 37 228.5 133 286 238.5 285.5 c 0
 309.5 285.5 355 253.5 379 224.5 c 1
 371.5 178.5 l 1
 331 209 289.5 225 237 224.5 c 0
 167.5 224 113.5 193 103.5 135 c 0
142 352 m 1
 113 414.5 l 1
 158 442 217.5 470 291 469.5 c 0
 385.5 469 453.5 419 442 330 c 1
 385.5 0 l 1
 306 0 l 1
 364.5 330 l 1
 365 375 332.5 398 284 399 c 0
 225 400 175.5 371.5 142 352 c 1
485.5 677.5 m 1
 286.5 531 l 1
 245 561.5 l 1
 417 719.5 l 1
 485.5 677.5 l 1
EndSplineSet
EndChar

StartChar: acircumflex.alt
Encoding: 65539 -1 343
Width: 470
VWidth: 0
Flags: HMW
LayerCount: 2
Fore
SplineSet
103.5 135 m 0
 95.5 86.5 128.5 62.5 182.5 61.5 c 0
 263.5 60 319.5 103.5 338.5 179.5 c 1
 346 129 l 1
 325.5 44.5 251 -10 156.5 -9.5 c 0
 69.5 -9 10.5 43.5 22.5 125.5 c 0
 37 228.5 133 286 238.5 285.5 c 0
 309.5 285.5 355 253.5 379 224.5 c 1
 371.5 178.5 l 1
 331 209 289.5 225 237 224.5 c 0
 167.5 224 113.5 193 103.5 135 c 0
142 352 m 1
 113 414.5 l 1
 158 442 217.5 470 291 469.5 c 0
 385.5 469 453.5 419 442 330 c 1
 385.5 0 l 1
 306 0 l 1
 364.5 330 l 1
 365 375 332.5 398 284 399 c 0
 225 400 175.5 371.5 142 352 c 1
323 624.5 m 1
 199 530.5 l 1
 154.5 571.5 l 1
 333 710 l 1
 467 569 l 1
 413 530.5 l 1
 323 624.5 l 1
EndSplineSet
EndChar

StartChar: atilde.alt
Encoding: 65540 -1 344
Width: 470
VWidth: 0
Flags: HMW
LayerCount: 2
Fore
SplineSet
103.5 135 m 0
 95.5 86.5 128.5 62.5 182.5 61.5 c 0
 263.5 60 319.5 103.5 338.5 179.5 c 1
 346 129 l 1
 325.5 44.5 251 -10 156.5 -9.5 c 0
 69.5 -9 10.5 43.5 22.5 125.5 c 0
 37 228.5 133 286 238.5 285.5 c 0
 309.5 285.5 355 253.5 379 224.5 c 1
 371.5 178.5 l 1
 331 209 289.5 225 237 224.5 c 0
 167.5 224 113.5 193 103.5 135 c 0
142 352 m 1
 113 414.5 l 1
 158 442 217.5 470 291 469.5 c 0
 385.5 469 453.5 419 442 330 c 1
 385.5 0 l 1
 306 0 l 1
 364.5 330 l 1
 365 375 332.5 398 284 399 c 0
 225 400 175.5 371.5 142 352 c 1
149.5 568.5 m 1
 169 611 214 650 262.5 648.5 c 0
 314.5 647.5 328.5 601 375 602.5 c 0
 398.5 603.5 419 625 438.5 649.5 c 1
 478 605.5 l 1
 455 571.5 413.5 532.5 364.5 534.5 c 0
 318 536 297.5 581.5 255.5 580.5 c 0
 220 579.5 205.5 548.5 197 530.5 c 1
 149.5 568.5 l 1
EndSplineSet
EndChar

StartChar: adieresis.alt
Encoding: 65541 -1 345
Width: 470
VWidth: 0
Flags: HMW
LayerCount: 2
Fore
SplineSet
103.5 135 m 0
 95.5 86.5 128.5 62.5 182.5 61.5 c 0
 263.5 60 319.5 103.5 338.5 179.5 c 1
 346 129 l 1
 325.5 44.5 251 -10 156.5 -9.5 c 0
 69.5 -9 10.5 43.5 22.5 125.5 c 0
 37 228.5 133 286 238.5 285.5 c 0
 309.5 285.5 355 253.5 379 224.5 c 1
 371.5 178.5 l 1
 331 209 289.5 225 237 224.5 c 0
 167.5 224 113.5 193 103.5 135 c 0
142 352 m 1
 113 414.5 l 1
 158 442 217.5 470 291 469.5 c 0
 385.5 469 453.5 419 442 330 c 1
 385.5 0 l 1
 306 0 l 1
 364.5 330 l 1
 365 375 332.5 398 284 399 c 0
 225 400 175.5 371.5 142 352 c 1
356.5 586 m 0
 359.5 613 391 641 418.5 639.5 c 0
 447 638 467.5 612 464.5 584 c 0
 461.5 557 429.5 529 402 530.5 c 0
 373.5 532 353.5 558 356.5 586 c 0
162.5 586 m 0
 165.5 613 197 641 224.5 639.5 c 0
 253 638 273 612 270 584 c 0
 267 557 235.5 529 208 530.5 c 0
 179.5 532 159.5 558 162.5 586 c 0
EndSplineSet
EndChar

StartChar: aring.alt
Encoding: 65542 -1 346
Width: 470
VWidth: 0
Flags: HMW
LayerCount: 2
Fore
SplineSet
103.5 135 m 0
 95.5 86.5 128.5 62.5 182.5 61.5 c 0
 263.5 60 319.5 103.5 338.5 179.5 c 1
 346 129 l 1
 325.5 44.5 251 -10 156.5 -9.5 c 0
 69.5 -9 10.5 43.5 22.5 125.5 c 0
 37 228.5 133 286 238.5 285.5 c 0
 309.5 285.5 355 253.5 379 224.5 c 1
 371.5 178.5 l 1
 331 209 289.5 225 237 224.5 c 0
 167.5 224 113.5 193 103.5 135 c 0
142 352 m 1
 113 414.5 l 1
 158 442 217.5 470 291 469.5 c 0
 385.5 469 453.5 419 442 330 c 1
 385.5 0 l 1
 306 0 l 1
 364.5 330 l 1
 365 375 332.5 398 284 399 c 0
 225 400 175.5 371.5 142 352 c 1
221.5 631 m 0
 229 686 283 730 336 729.5 c 0
 389 729 428.5 683.5 421 629 c 0
 413.5 574 359 530 306 530.5 c 0
 253 531 214 576.5 221.5 631 c 0
271.5 629.5 m 0
 268.5 603 286 579 310 577.5 c 0
 334.5 575.5 368 603 371 630.5 c 0
 374 657 356 681 332 682.5 c 0
 307.5 684.5 274.5 657 271.5 629.5 c 0
EndSplineSet
EndChar

StartChar: amacron.alt
Encoding: 65543 -1 347
Width: 470
VWidth: 0
Flags: HMW
LayerCount: 2
Fore
SplineSet
103.5 135 m 0
 95.5 86.5 128.5 62.5 182.5 61.5 c 0
 263.5 60 319.5 103.5 338.5 179.5 c 1
 346 129 l 1
 325.5 44.5 251 -10 156.5 -9.5 c 0
 69.5 -9 10.5 43.5 22.5 125.5 c 0
 37 228.5 133 286 238.5 285.5 c 0
 309.5 285.5 355 253.5 379 224.5 c 1
 371.5 178.5 l 1
 331 209 289.5 225 237 224.5 c 0
 167.5 224 113.5 193 103.5 135 c 0
142 352 m 1
 113 414.5 l 1
 158 442 217.5 470 291 469.5 c 0
 385.5 469 453.5 419 442 330 c 1
 385.5 0 l 1
 306 0 l 1
 364.5 330 l 1
 365 375 332.5 398 284 399 c 0
 225 400 175.5 371.5 142 352 c 1
138 550.5 m 1
 150.5 625 l 1
 491.5 625 l 1
 479 550 l 1
 138 550.5 l 1
EndSplineSet
EndChar

StartChar: abreve.alt
Encoding: 65544 -1 348
Width: 470
VWidth: 0
Flags: HMW
LayerCount: 2
Fore
SplineSet
103.5 135 m 0
 95.5 86.5 128.5 62.5 182.5 61.5 c 0
 263.5 60 319.5 103.5 338.5 179.5 c 1
 346 129 l 1
 325.5 44.5 251 -10 156.5 -9.5 c 0
 69.5 -9 10.5 43.5 22.5 125.5 c 0
 37 228.5 133 286 238.5 285.5 c 0
 309.5 285.5 355 253.5 379 224.5 c 1
 371.5 178.5 l 1
 331 209 289.5 225 237 224.5 c 0
 167.5 224 113.5 193 103.5 135 c 0
142 352 m 1
 113 414.5 l 1
 158 442 217.5 470 291 469.5 c 0
 385.5 469 453.5 419 442 330 c 1
 385.5 0 l 1
 306 0 l 1
 364.5 330 l 1
 365 375 332.5 398 284 399 c 0
 225 400 175.5 371.5 142 352 c 1
173.5 670 m 1
 242.5 669.5 l 1
 241 636.5 253.5 596 312 595.5 c 0
 372.5 595 397.5 637.5 411 669.5 c 1
 482 669 l 1
 463 597 403.5 530.5 306.5 530.5 c 0
 210.5 530.5 168 596.5 173.5 670 c 1
EndSplineSet
EndChar

StartChar: aogonek.alt
Encoding: 65545 -1 349
Width: 470
VWidth: 0
Flags: HMW
LayerCount: 2
Fore
SplineSet
103.5 135 m 0
 96.5 87.5 134.5 62.5 182.5 61.5 c 0
 263 59.5 319.5 104 338.5 179.5 c 1
 346 129 l 1
 325.5 44.5 251 -10 156.5 -9.5 c 0
 72 -9 11.5 45.5 23.5 132.5 c 0
 38.5 230 129 286 238.5 285.5 c 0
 309.5 285 355 253.5 379 224.5 c 1
 371.5 178.5 l 1
 331 209 289.5 225 237 224.5 c 0
 167.5 224 112.5 193.5 103.5 135 c 0
142 352 m 1
 113 414.5 l 1
 158 442 217.5 470 291 469.5 c 0
 385.5 469 453.5 419 442 330 c 1
 385.5 0 l 1
 306 0 l 1
 364.5 330 l 1
 365 375 332.5 398 284 399 c 0
 225 400 175.5 371.5 142 352 c 1
367 -130 m 1
 392 -181.5 l 1
 370 -201 340.5 -219 301.5 -219.5 c 0
 229.5 -220.5 187 -180 196 -119.5 c 0
 207 -53.5 281.5 -8.5 348 24.5 c 1
 386 0 l 1
 339.5 -22.5 285 -56 278 -100 c 0
 275 -129 287 -147.5 314.5 -149.5 c 0
 336.5 -151 352.5 -140.5 367 -130 c 1
EndSplineSet
EndChar

StartChar: dagger
Encoding: 8224 8224 350
Width: 553
VWidth: 0
Flags: HMW
LayerCount: 2
Fore
SplineSet
153 540 m 1
 533 540 l 1
 520.5 465 l 1
 140.5 465 l 1
 153 540 l 1
327 700 m 1
 407.5 700 l 1
 275 -150 l 1
 198 -149.5 l 1
 327 700 l 1
EndSplineSet
EndChar

StartChar: daggerdbl
Encoding: 8225 8225 351
Width: 553
VWidth: 0
Flags: HMW
LayerCount: 2
Fore
SplineSet
88 120 m 1
 468.5 120 l 1
 456 45 l 1
 76 45 l 1
 88 120 l 1
153 540 m 1
 533 540 l 1
 520.5 465 l 1
 140.5 465 l 1
 153 540 l 1
327 700 m 1
 407.5 700 l 1
 275 -150 l 1
 198 -149.5 l 1
 327 700 l 1
EndSplineSet
EndChar

StartChar: ellipsis
Encoding: 8230 8230 352
Width: 873
VWidth: 0
Flags: HMW
LayerCount: 2
Fore
SplineSet
71.5 41 m 0
 74.5 68 106 96 133.5 94.5 c 0
 162 93 182 67 179 39 c 0
 176 12 144.5 -16 117 -14.5 c 0
 88.5 -13 68.5 13 71.5 41 c 0
362.5 41 m 0
 365.5 68 397 96 424.5 94.5 c 0
 453 93 473.5 67 470.5 39 c 0
 467.5 12 435.5 -16 408 -14.5 c 0
 379.5 -13 359.5 13 362.5 41 c 0
653.5 41 m 0
 656.5 68 688 96 715.5 94.5 c 0
 744 93 764.5 67 761.5 39 c 0
 758.5 12 727 -16 699.5 -14.5 c 0
 671 -13 650.5 13 653.5 41 c 0
EndSplineSet
EndChar

StartChar: uniFF10
Encoding: 65296 65296 353
Width: 562
VWidth: 0
Flags: HMW
LayerCount: 2
Fore
SplineSet
145 350 m 0
 131 228.5 140.5 72 263.5 70.5 c 0
 386.5 69 463.5 213.5 483 350 c 0
 497 471.5 488 628 365 629.5 c 0
 242 631 164.5 486.5 145 350 c 0
61 350 m 0
 86.5 531.5 203 710 372.5 709.5 c 0
 544 709 587.5 517.5 567 350 c 0
 541.5 168.5 425 -10 255.5 -9.5 c 0
 84 -9 40.5 182.5 61 350 c 0
EndSplineSet
EndChar

StartChar: uniFF11
Encoding: 65297 65297 354
Width: 562
VWidth: 0
Flags: HMW
LayerCount: 2
Fore
SplineSet
178.5 561.5 m 1
 195 651 l 1
 440 710.5 l 1
 317.5 0 l 1
 233.5 0 l 1
 337.5 606.5 l 1
 178.5 561.5 l 1
EndSplineSet
EndChar

StartChar: uniFF12
Encoding: 65298 65298 355
Width: 562
VWidth: 0
Flags: HMW
LayerCount: 2
Fore
SplineSet
-2 0 m 1
 376 353 l 2
 424 398 465.5 446.5 476.5 506 c 0
 487 566.5 453.5 629 376.5 630.5 c 0
 281.5 632.5 217 553.5 198 460.5 c 1
 115 461 l 1
 140.5 598.5 237.5 711.5 384.5 710.5 c 0
 521 710 576.5 599 559.5 499 c 0
 547 424 497.5 360.5 439 307 c 2
 183 80.5 l 1
 492.5 80 l 1
 479 0 l 1
 -2 0 l 1
EndSplineSet
EndChar

StartChar: uniFF13
Encoding: 65299 65299 356
Width: 562
VWidth: 0
Flags: HMW
LayerCount: 2
Fore
SplineSet
293.5 345.5 m 1
 302 400 l 1
 384.5 406 446 450 460.5 521 c 0
 470 579.5 446.5 631.5 380 632.5 c 0
 313.5 633.5 262.5 583.5 246.5 526.5 c 1
 166 527 l 1
 188 630.5 271.5 710 386 709.5 c 0
 497.5 709 562 620.5 546.5 523.5 c 0
 527.5 414.5 418 350 293.5 345.5 c 1
265.5 -9.5 m 0
 139 -9.5 67.5 75.5 78 185 c 1
 162 184.5 l 1
 157.5 119.5 197 71 273 70.5 c 0
 350 70 411.5 122.5 424 195 c 0
 439.5 281 372 320 290 325 c 1
 298.5 379.5 l 1
 423 375.5 528.5 318.5 508 184.5 c 0
 490 69 386.5 -9.5 265.5 -9.5 c 0
EndSplineSet
EndChar

StartChar: uniFF14
Encoding: 65300 65300 357
Width: 562
VWidth: 0
Flags: HMW
LayerCount: 2
Fore
SplineSet
11.5 140.5 m 1
 93 214.5 l 1
 386 215 l 1
 402.5 215 l 1
 546 215 l 1
 533 140 l 1
 11.5 140.5 l 1
103.5 141 m 1
 11.5 140.5 l 1
 485 699 l 1
 520.5 699.5 l 1
 401 0 l 1
 317 0 l 1
 347.5 176 l 1
 349.5 187 l 1
 404 505.5 l 1
 103.5 141 l 1
EndSplineSet
EndChar

StartChar: uniFF15
Encoding: 65301 65301 358
Width: 562
VWidth: 0
Flags: HMW
LayerCount: 2
Fore
SplineSet
529.5 230 m 0
 508.5 84.5 391 -9.5 252.5 -9.5 c 0
 138 -9.5 70.5 52.5 32.5 138 c 1
 109.5 185.5 l 1
 134 124.5 187 71 260.5 70.5 c 0
 357.5 70 427 139.5 442.5 230 c 0
 456 315.5 409.5 387 320.5 389.5 c 0
 252.5 391.5 199.5 368 134 328.5 c 1
 191 393 l 1
 238 438.5 301.5 466 363 465.5 c 0
 487.5 465 546 351 529.5 230 c 0
340.5 625 m 1
 251 415.5 l 1
 128 323 l 1
 285.5 699.5 l 1
 608 700 l 1
 595.5 625.5 l 1
 340.5 625 l 1
EndSplineSet
EndChar

StartChar: uniFF16
Encoding: 65302 65302 359
Width: 562
VWidth: 0
Flags: HMW
LayerCount: 2
Fore
SplineSet
141.5 230 m 0
 128 145.5 173 68 263 67.5 c 0
 354.5 67 430.5 140.5 445.5 230 c 0
 459 314.5 415 394 324.5 394.5 c 0
 233 395 156.5 319.5 141.5 230 c 0
412.5 699.5 m 1
 521 699.5 l 1
 258 411.5 l 1
 251 418.5 l 1
 282 445.5 316.5 457 360 456.5 c 0
 478 455 541 343.5 525.5 229.5 c 0
 505.5 94 391.5 -9.5 255.5 -9.5 c 0
 120.5 -9.5 43.5 99.5 62 230 c 0
 70.5 285.5 95 336 128 375 c 2
 412.5 699.5 l 1
EndSplineSet
EndChar

StartChar: uniFF17
Encoding: 65303 65303 360
Width: 562
VWidth: 0
Flags: HMW
LayerCount: 2
Fore
SplineSet
134 620 m 1
 148 700 l 1
 626.5 699.5 l 1
 180 0 l 1
 90.5 0 l 1
 484.5 619.5 l 1
 134 620 l 1
EndSplineSet
EndChar

StartChar: uniFF18
Encoding: 65304 65304 361
Width: 562
VWidth: 0
Flags: HMW
LayerCount: 2
Fore
SplineSet
157 531.5 m 0
 172.5 629.5 266 710 372.5 709.5 c 0
 477 709 547 626.5 533 530.5 c 0
 517.5 425.5 428 355.5 318 355.5 c 0
 209.5 355.5 141.5 428.5 157 531.5 c 0
234.5 521 m 0
 225.5 462.5 261.5 411.5 321.5 410.5 c 0
 382.5 409.5 441.5 460 452 521 c 0
 461.5 579.5 429 633.5 365.5 634.5 c 0
 301 635.5 245 583 234.5 521 c 0
74.5 190.5 m 0
 92 311 201.5 390 318 389.5 c 0
 432 389.5 516 308 499 189.5 c 0
 481.5 80 376 -10 255.5 -9.5 c 0
 138 -9 58.5 84 74.5 190.5 c 0
155.5 200 m 0
 144 125 190.5 66.5 262.5 65.5 c 0
 335.5 64.5 409 122 421.5 200 c 0
 432 268.5 385.5 333.5 314.5 334.5 c 0
 242 335.5 168 271.5 155.5 200 c 0
EndSplineSet
EndChar

StartChar: uniFF19
Encoding: 65305 65305 362
Width: 562
VWidth: 0
Flags: HMW
LayerCount: 2
Fore
SplineSet
486.5 470 m 0
 500 554.5 455.5 632 365.5 632.5 c 0
 274 633 197.5 559.5 182.5 470 c 0
 169 385.5 213 306 303.5 305.5 c 0
 395 305 471.5 380.5 486.5 470 c 0
215.5 0 m 1
 107 0 l 1
 370 288.5 l 1
 377.5 281.5 l 1
 346.5 254.5 312 243 268.5 243.5 c 0
 150.5 245 87 356.5 102.5 470.5 c 0
 122.5 606 236.5 709.5 372.5 709.5 c 0
 507.5 709.5 585 600.5 566.5 470 c 0
 558 414.5 533 364 500 325 c 2
 215.5 0 l 1
EndSplineSet
EndChar

StartChar: caron
Encoding: 711 711 363
Width: 465
VWidth: 0
Flags: HMW
LayerCount: 2
Fore
SplineSet
315 655.5 m 1
 438.5 749.5 l 1
 483 708.5 l 1
 305 570 l 1
 171 711 l 1
 224.5 749.5 l 1
 315 655.5 l 1
EndSplineSet
EndChar

StartChar: napostrophe
Encoding: 329 329 364
Width: 616
VWidth: 0
Flags: HMW
LayerCount: 2
Fore
SplineSet
310 460 m 1
 230.5 0 l 1
 151 0 l 1
 230.5 460 l 1
 310 460 l 1
486.5 280 m 2
 494 342.5 480 393 414 394.5 c 0
 343.5 396 294.5 341.5 278.5 281 c 1
 242 281 l 1
 262 380 339 469.5 440.5 469.5 c 0
 540.5 469.5 578.5 390.5 566.5 290 c 1
 516 0 l 1
 439 0 l 1
 486.5 280 l 2
217 699.5 m 1
 313.5 699.5 l 1
 175.5 471 l 1
 120.5 471 l 1
 217 699.5 l 1
EndSplineSet
EndChar

StartChar: IJ
Encoding: 306 306 365
Width: 475
VWidth: 0
Flags: HMW
LayerCount: 2
Fore
SplineSet
130.5 -104.5 m 1
 145.5 -126.5 168 -141 200.5 -140 c 0
 239.5 -138 275 -103 283.5 -50 c 1
 412.5 700 l 1
 491.5 700 l 1
 362 -60.5 l 2
 346 -157 282.5 -220.5 187.5 -219.5 c 0
 139.5 -219 99.5 -194.5 78 -169 c 1
 130.5 -104.5 l 1
168.5 699.5 m 1
 254 700 l 1
 133 0 l 1
 51 0 l 1
 168.5 699.5 l 1
EndSplineSet
EndChar

StartChar: ij
Encoding: 307 307 366
Width: 494
VWidth: 0
Flags: HMW
LayerCount: 2
Fore
SplineSet
398.5 651 m 0
 401.5 678 433.5 706 461 704.5 c 0
 489.5 703 509.5 677 506.5 649 c 0
 503.5 622 472 594 444.5 595.5 c 0
 416 597 395.5 623 398.5 651 c 0
187 -114.5 m 1
 198.5 -126 216 -140 230 -140.5 c 0
 266 -142.5 287.5 -98 293 -50 c 2
 381 460 l 1
 460.5 460 l 1
 371.5 -60.5 l 2
 357.5 -153 304 -221.5 216 -219.5 c 0
 177.5 -219 153 -200.5 134.5 -178.5 c 1
 187 -114.5 l 1
156 651 m 0
 159 678 190.5 706 218 704.5 c 0
 246.5 703 267 677 264 649 c 0
 261 622 229.5 594 202 595.5 c 0
 173.5 597 153 623 156 651 c 0
137 459.5 m 1
 218 460 l 1
 137.5 0 l 1
 60.5 0 l 1
 137 459.5 l 1
EndSplineSet
EndChar

StartChar: uni0237
Encoding: 567 567 367
Width: 242
VWidth: 0
Flags: HMW
LayerCount: 2
Fore
SplineSet
-65 -114.5 m 1
 -53.5 -132 -39.5 -140.5 -22.5 -140.5 c 0
 14 -140 34.5 -99.5 41 -50 c 2
 128.5 460 l 1
 208 460 l 1
 119.5 -60.5 l 2
 105.5 -153 52 -221.5 -36 -219.5 c 0
 -74.5 -219 -99.5 -200.5 -117.5 -178.5 c 1
 -65 -114.5 l 1
EndSplineSet
EndChar

StartChar: Sacute
Encoding: 346 346 368
Width: 531
VWidth: 0
Flags: HMW
LayerCount: 2
Fore
SplineSet
119 226 m 1
 144 142.5 180.5 71 268 70.5 c 0
 342.5 70 394.5 116 406.5 183 c 0
 421.5 268.5 348.5 307.5 276.5 338 c 0
 202 370.5 121.5 430 136 535.5 c 0
 152 639.5 251.5 710 361 709.5 c 0
 464 709 527 637 548.5 559 c 1
 474.5 514 l 1
 454 570.5 425.5 627.5 354 628.5 c 0
 288.5 629 232.5 588.5 222.5 529 c 0
 209.5 458.5 285.5 425.5 354.5 396 c 0
 432.5 361.5 509 300.5 494.5 189.5 c 0
 477.5 73 385 -10 255.5 -9.5 c 0
 141 -9 71 76 42.5 184 c 1
 119 226 l 1
575 917.5 m 1
 376 771 l 1
 334.5 801.5 l 1
 506.5 959.5 l 1
 575 917.5 l 1
EndSplineSet
EndChar

StartChar: sacute
Encoding: 347 347 369
Width: 391
VWidth: 0
Flags: HMW
LayerCount: 2
Fore
SplineSet
87.5 160.5 m 1
 95 107.5 128 66 185 65.5 c 0
 229 65 268 84.5 275 123.5 c 0
 284 172.5 236 195 192 215 c 0
 134 242 73.5 277 84 349.5 c 0
 95 423.5 174.5 469 247.5 469.5 c 0
 316.5 470 377.5 435 396.5 379 c 1
 329 339.5 l 1
 309 369 277.5 393.5 240.5 393.5 c 0
 205 393.5 166.5 378 161.5 343.5 c 0
 155 304 216 284 255.5 266 c 0
 314 238.5 366.5 194.5 358 129.5 c 0
 346.5 36.5 265.5 -10.5 173 -9.5 c 0
 89.5 -9 26.5 47 17.5 123.5 c 1
 87.5 160.5 l 1
461.5 677.5 m 1
 262.5 531 l 1
 221 561.5 l 1
 392.5 719.5 l 1
 461.5 677.5 l 1
EndSplineSet
EndChar

StartChar: Scircumflex
Encoding: 348 348 370
Width: 531
VWidth: 0
Flags: HMW
LayerCount: 2
Fore
SplineSet
119 226 m 1
 144 142.5 180.5 71 268 70.5 c 0
 342.5 70 394.5 116 406.5 183 c 0
 421.5 268.5 348.5 307.5 276.5 338 c 0
 202 370.5 121.5 430 136 535.5 c 0
 152 639.5 251.5 710 361 709.5 c 0
 464 709 527 637 548.5 559 c 1
 474.5 514 l 1
 454 570.5 425.5 627.5 354 628.5 c 0
 288.5 629 232.5 588.5 222.5 529 c 0
 209.5 458.5 285.5 425.5 354.5 396 c 0
 432.5 361.5 508.5 300.5 494 189.5 c 0
 477 73 385 -10 255.5 -9.5 c 0
 141 -9 71 76 42.5 184 c 1
 119 226 l 1
393 864.5 m 1
 269 770.5 l 1
 225 811.5 l 1
 403 950 l 1
 537 809 l 1
 483.5 770.5 l 1
 393 864.5 l 1
EndSplineSet
EndChar

StartChar: scircumflex
Encoding: 349 349 371
Width: 391
VWidth: 0
Flags: HMW
LayerCount: 2
Fore
SplineSet
87.5 160.5 m 1
 95 107.5 128.5 66 185.5 65.5 c 0
 229.5 65 268 84.5 275 123.5 c 0
 284 172.5 236 195 192 215 c 0
 134 242 73.5 277 84 349.5 c 0
 95 423.5 174.5 469 247.5 469.5 c 0
 316.5 470 377.5 435 396.5 379 c 1
 329 339.5 l 1
 309 369 277.5 393.5 240.5 393.5 c 0
 205 393.5 166.5 378 161.5 343.5 c 0
 155 304 216 284 255.5 266 c 0
 314 238.5 366.5 194.5 358 129.5 c 0
 346.5 36.5 265.5 -10.5 173 -9.5 c 0
 89.5 -9 26.5 47 17.5 123.5 c 1
 87.5 160.5 l 1
279 624.5 m 1
 155.5 530.5 l 1
 111 571.5 l 1
 289 710 l 1
 423 569 l 1
 369.5 530.5 l 1
 279 624.5 l 1
EndSplineSet
EndChar

StartChar: uni1E9E
Encoding: 7838 7838 372
Width: 694
VWidth: 0
Flags: HMW
LayerCount: 2
Fore
SplineSet
414 -9.5 m 0
 287.5 -9.5 216 75.5 226.5 185 c 1
 310.5 184.5 l 1
 306 119.5 345.5 71 421.5 70.5 c 0
 498.5 70 560 122.5 572.5 195 c 0
 588 281 520.5 320 438.5 325 c 1
 447 379.5 l 1
 571.5 375.5 677 318.5 656.5 184.5 c 0
 638.5 69 535 -9.5 414 -9.5 c 0
442 345.5 m 1
 450.5 400 l 1
 532 406 596 450 609 521 c 0
 622.5 592.5 552.5 632.5 470 632.5 c 0
 333.493 632.5 224.5 541.5 200 386 c 2
 133.5 0 l 1
 49 0 l 1
 115.5 386 l 2
 146.5 588 291 710 476.5 710 c 0
 598 710 715 651.5 696.5 533.5 c 0
 678 417.5 568.5 350.5 442 345.5 c 1
EndSplineSet
EndChar

StartChar: Zacute
Encoding: 377 377 373
Width: 528
VWidth: 0
Flags: HW
LayerCount: 2
Fore
SplineSet
111.5 620 m 1
 126 700 l 1
 604 699.5 l 1
 141 80.5 l 1
 478 80 l 1
 463.5 0 l 1
 -15 0 l 1
 448.5 619.5 l 1
 111.5 620 l 1
557.5 917.5 m 1
 358.5 771 l 1
 317 801.5 l 1
 489 959.5 l 1
 557.5 917.5 l 1
EndSplineSet
EndChar

StartChar: zacute
Encoding: 378 378 374
Width: 446
VWidth: 0
Flags: HW
LayerCount: 2
Fore
SplineSet
327.5 384.5 m 1
 81 385 l 1
 94.5 460 l 1
 486 459.5 l 1
 143 75.5 l 1
 399.5 75 l 1
 386 0 l 1
 -15 0 l 1
 327.5 384.5 l 1
486 697.5 m 1
 287 551 l 1
 245.5 581.5 l 1
 417.5 739.5 l 1
 486 697.5 l 1
EndSplineSet
EndChar

StartChar: Zdotaccent
Encoding: 379 379 375
Width: 528
VWidth: 0
Flags: HW
LayerCount: 2
Fore
SplineSet
111.5 620 m 1
 126 700 l 1
 604 699.5 l 1
 141 80.5 l 1
 478 80 l 1
 463.5 0 l 1
 -15 0 l 1
 448.5 619.5 l 1
 111.5 620 l 1
331.5 826 m 0
 334.5 853 366 881 393.5 879.5 c 0
 422 878 442.5 852 439.5 824 c 0
 436.5 797 404.5 769 377 770.5 c 0
 348.5 772 328.5 798 331.5 826 c 0
EndSplineSet
EndChar

StartChar: zdotaccent
Encoding: 380 380 376
Width: 446
VWidth: 0
Flags: HW
LayerCount: 2
Fore
SplineSet
327.5 384.5 m 1
 81 385 l 1
 94.5 460 l 1
 486 459.5 l 1
 143 75.5 l 1
 399.5 75 l 1
 386 0 l 1
 -15 0 l 1
 327.5 384.5 l 1
261.5 616 m 0
 264.5 643 296.5 671 324 669.5 c 0
 352.5 668 372.5 642 369.5 614 c 0
 366.5 587 335 559 307.5 560.5 c 0
 279 562 258.5 588 261.5 616 c 0
EndSplineSet
EndChar

StartChar: Tcaron
Encoding: 356 356 377
Width: 451
VWidth: 0
Flags: HW
LayerCount: 2
Fore
SplineSet
87 620 m 1
 101.5 700 l 1
 535 700 l 1
 521 620 l 1
 346.5 620 l 1
 240 0 l 1
 156 0 l 1
 262.5 620 l 1
 87 620 l 1
341.75 855.5 m 1
 465.75 949.5 l 1
 509.75 908.5 l 1
 331.75 770 l 1
 197.75 911 l 1
 251.25 949.5 l 1
 341.75 855.5 l 1
EndSplineSet
EndChar

StartChar: tcaron
Encoding: 357 357 378
Width: 339
VWidth: 0
Flags: HW
LayerCount: 2
Fore
SplineSet
56 460 m 1
 280.5 460 l 1
 267 385 l 1
 42 385 l 1
 56 460 l 1
155 619.5 m 1
 235.5 620 l 1
 128 0 l 1
 51 0 l 1
 155 619.5 l 1
395.5 809 m 1
 471.5 778 l 1
 322 531 l 1
 267 552 l 1
 395.5 809 l 1
EndSplineSet
EndChar

StartChar: Uring
Encoding: 366 366 379
Width: 607
VWidth: 0
Flags: HW
LayerCount: 2
Fore
SplineSet
165 700 m 1
 249 700 l 1
 167.5 230 l 2
 156 144.5 189 71.5 286 70.5 c 0
 384 69.5 447 140.5 463.5 230 c 1
 544.5 700 l 1
 628.5 700 l 1
 548 230 l 2
 525 97.5 421.5 -9.5 278 -9.5 c 0
 137 -9.5 67 101 84.5 230 c 1
 165 700 l 1
325.5 871 m 0
 333 926 387 970 440 969.5 c 0
 493 969 532.5 923.5 525 869 c 0
 517.5 814 463 770 410 770.5 c 0
 357 771 318 816.5 325.5 871 c 0
375.5 869.5 m 0
 372.5 843 390.5 819 414.5 817.5 c 0
 439 815.5 472 843 475 870.5 c 0
 478 897 460 921 436 922.5 c 0
 411.5 924.5 378.5 897 375.5 869.5 c 0
EndSplineSet
EndChar

StartChar: uring
Encoding: 367 367 380
Width: 509
VWidth: 0
Flags: HW
LayerCount: 2
Fore
SplineSet
330.5 0 m 1
 410 460 l 1
 489.5 460 l 1
 410 0 l 1
 330.5 0 l 1
154 180 m 2
 146.5 117.5 160.5 67 226.5 65.5 c 0
 297 64 346 118.5 362 179 c 1
 388.5 179 l 1
 369.5 80.5 301 -9.5 200 -9.5 c 0
 100 -9.5 62 69.5 74 170 c 1
 124.5 460 l 1
 201.5 459.5 l 1
 154 180 l 2
235.25 631 m 0
 242.75 686 297.25 730 350.25 729.5 c 0
 403.25 729 442.25 683.5 434.75 629 c 0
 427.25 574 373.25 530 320.25 530.5 c 0
 267.25 531 227.75 576.5 235.25 631 c 0
285.25 629.5 m 0
 282.25 603 300.25 579 324.25 577.5 c 0
 348.75 575.5 381.75 603 384.75 630.5 c 0
 387.75 657 369.75 681 345.75 682.5 c 0
 321.25 684.5 288.25 657 285.25 629.5 c 0
EndSplineSet
EndChar

StartChar: uni0400
Encoding: 1024 1024 381
Width: 533
VWidth: 0
Flags: HW
LayerCount: 2
Fore
SplineSet
97 0 m 1
 109.5 80 l 1
 454.5 80 l 1
 441.5 0 l 1
 97 0 l 1
202.5 620.5 m 1
 215 700 l 1
 560.5 700 l 1
 547 620.5 l 1
 202.5 620.5 l 1
155 340.5 m 1
 167.5 420 l 1
 493 420 l 1
 480 340.5 l 1
 155 340.5 l 1
167.5 699.5 m 1
 255 700 l 1
 133 0 l 1
 51 0 l 1
 167.5 699.5 l 1
233.41796875 920.5 m 1
 311.41796875 959.5 l 1
 434.91796875 798.5 l 1
 387.91796875 770 l 1
 233.41796875 920.5 l 1
EndSplineSet
EndChar

StartChar: uni0401
Encoding: 1025 1025 382
Width: 533
VWidth: 0
Flags: HW
LayerCount: 2
Fore
SplineSet
97 0 m 1
 109.5 80 l 1
 454.5 80 l 1
 441.5 0 l 1
 97 0 l 1
202.5 620.5 m 1
 215 700 l 1
 560.5 700 l 1
 547 620.5 l 1
 202.5 620.5 l 1
155 340.5 m 1
 167.5 420 l 1
 493 420 l 1
 480 340.5 l 1
 155 340.5 l 1
167.5 699.5 m 1
 255 700 l 1
 133 0 l 1
 51 0 l 1
 167.5 699.5 l 1
440.149902344 825.601074219 m 0
 442.649902344 852.601074219 474.149902344 880.601074219 501.649902344 879.101074219 c 0
 530.149902344 877.601074219 550.649902344 851.601074219 548.149902344 823.601074219 c 0
 545.649902344 796.601074219 514.149902344 768.601074219 486.649902344 770.101074219 c 0
 458.149902344 771.601074219 437.649902344 797.601074219 440.149902344 825.601074219 c 0
246.149902344 825.601074219 m 0
 248.649902344 852.601074219 280.149902344 880.601074219 307.649902344 879.101074219 c 0
 336.149902344 877.601074219 356.649902344 851.601074219 354.149902344 823.601074219 c 0
 351.649902344 796.601074219 320.149902344 768.601074219 292.649902344 770.101074219 c 0
 264.149902344 771.601074219 243.649902344 797.601074219 246.149902344 825.601074219 c 0
EndSplineSet
EndChar

StartChar: uni0403
Encoding: 1027 1027 383
Width: 422
VWidth: 0
Flags: HW
LayerCount: 2
Fore
SplineSet
167 699.5 m 1
 506.5 700 l 1
 492 620 l 1
 240.5 620 l 1
 133 0 l 1
 51 0 l 1
 167 699.5 l 1
534.16796875 917 m 1
 337.16796875 770 l 1
 295.66796875 800.5 l 1
 464.66796875 958.5 l 1
 534.16796875 917 l 1
EndSplineSet
EndChar

StartChar: uni040C
Encoding: 1036 1036 384
Width: 548
VWidth: 0
Flags: HW
LayerCount: 2
Fore
SplineSet
167.5 699.5 m 1
 255 700 l 1
 133 0 l 1
 51 0 l 1
 167.5 699.5 l 1
516 699.5 m 1
 625.5 699.5 l 1
 270.5 368.5 l 1
 514.5 0 l 1
 416.5 0 l 1
 171 373.5 l 1
 516 699.5 l 1
593.75 916.5 m 1
 395.75 770.5 l 1
 352.75 802.5 l 1
 523.75 959.5 l 1
 593.75 916.5 l 1
EndSplineSet
EndChar

StartChar: uni040D
Encoding: 1037 1037 385
Width: 752
VWidth: 0
Flags: HW
LayerCount: 2
Fore
SplineSet
746 602 m 1
 39.5 -41 l 1
 71.5 98 l 1
 777.5 741.5 l 1
 746 602 l 1
254.5 700 m 1
 146 71.5 l 1
 39.5 -41 l 1
 169 700 l 1
 254.5 700 l 1
777.5 741.5 m 1
 648 0 l 1
 563 0 l 1
 671 628.5 l 1
 777.5 741.5 l 1
342 896.5 m 1
 420.5 935.5 l 1
 542 773.5 l 1
 495.5 745 l 1
 342 896.5 l 1
EndSplineSet
EndChar

StartChar: uni040E
Encoding: 1038 1038 386
Width: 548
VWidth: 0
Flags: HW
LayerCount: 2
Fore
SplineSet
644.5 700 m 1
 204.5 0 l 1
 106 0 l 1
 233 211 l 1
 93 700 l 1
 191 700 l 1
 312 230 l 1
 262 235 l 1
 546 700 l 1
 644.5 700 l 1
244.33203125 909.5 m 1
 313.33203125 909.5 l 1
 312.33203125 876.5 325.83203125 835.5 384.33203125 835 c 0
 444.83203125 834.5 469.33203125 876.5 481.83203125 909 c 1
 552.33203125 908.5 l 1
 534.83203125 836 476.33203125 770 379.33203125 770 c 0
 283.83203125 770 239.83203125 835.5 244.33203125 909.5 c 1
EndSplineSet
EndChar

StartChar: uni0410
Encoding: 1040 1040 387
Width: 640
VWidth: 0
Flags: HW
LayerCount: 2
Fore
SplineSet
151.5 211 m 1
 192.5 289.5 l 1
 495.5 290 l 1
 512.5 209.5 l 1
 151.5 211 l 1
389 542 m 1
 226.5 264 l 1
 216 246 l 1
 72.5 0 l 1
 -26 0 l 1
 418.5 738 l 1
 608 0 l 1
 516.5 0 l 1
 458.5 240 l 1
 454.5 260 l 1
 389 542 l 1
EndSplineSet
EndChar

StartChar: uni0411
Encoding: 1041 1041 388
Width: 531
VWidth: 0
Flags: HW
LayerCount: 2
Fore
SplineSet
152 340 m 1
 167 420 l 1
 302 420 l 1
 429 417.5 521.5 334.5 503 209.5 c 0
 484 82.5 370.5 2.5 239.5 0 c 1
 94 0 l 1
 108.5 80 l 1
 244 80 l 2
 330.5 82 403 126.5 418.5 210 c 0
 433 291 380 337 297 339.5 c 1
 152 340 l 1
167 699.5 m 1
 535.5 700 l 1
 521.5 620 l 1
 240.5 620 l 1
 133 0 l 1
 51 0 l 1
 167 699.5 l 1
EndSplineSet
EndChar

StartChar: uni0412
Encoding: 1042 1042 389
Width: 541
VWidth: 0
Flags: HW
LayerCount: 2
Fore
SplineSet
178.5 370.5 m 1
 185.5 416.5 l 1
 292.5 417 l 1
 360 419.5 421 455 433 520 c 0
 444 582.5 400.5 622 336 624.5 c 1
 241 625 l 1
 147 75 l 1
 243 75.5 l 1
 330.5 78 403 126.5 418.5 210 c 0
 433 291 380.5 339.5 297 342.5 c 1
 173.5 343.5 l 1
 181 389.5 l 1
 297.5 390 l 1
 420.5 388.5 520 330.5 502 204.5 c 0
 483.5 71.5 370.5 2.5 239.5 0 c 1
 49 0 l 1
 169 700 l 1
 340 700 l 1
 454 698 535.5 639 518 524.5 c 0
 501.5 422.5 405.5 372 292 370.5 c 2
 178.5 370.5 l 1
EndSplineSet
EndChar

StartChar: uni0413
Encoding: 1043 1043 390
Width: 422
VWidth: 0
Flags: HW
LayerCount: 2
Fore
SplineSet
167 699.5 m 1
 506.5 700 l 1
 492 620 l 1
 240.5 620 l 1
 133 0 l 1
 51 0 l 1
 167 699.5 l 1
EndSplineSet
EndChar

StartChar: uni0414
Encoding: 1044 1044 391
Width: 771
VWidth: 0
Flags: HW
LayerCount: 2
Fore
SplineSet
451.5 542.5 m 1
 174.5 30.5 l 1
 81.5 30.5 l 1
 482 738 l 1
 637 30 l 1
 552.5 30 l 1
 451.5 542.5 l 1
630 0 m 1
 86.5 0 l 1
 67 -109.5 l 1
 -8 -109.5 l 1
 24.5 80 l 1
 716.5 80 l 1
 683 -109.5 l 1
 609.5 -109.5 l 1
 630 0 l 1
EndSplineSet
EndChar

StartChar: uni0415
Encoding: 1045 1045 392
Width: 533
VWidth: 0
Flags: HW
LayerCount: 2
Fore
SplineSet
97 0 m 1
 109.5 80 l 1
 454.5 80 l 1
 441.5 0 l 1
 97 0 l 1
202.5 620.5 m 1
 215 700 l 1
 560.5 700 l 1
 547 620.5 l 1
 202.5 620.5 l 1
155 340.5 m 1
 167.5 420 l 1
 493 420 l 1
 480 340.5 l 1
 155 340.5 l 1
167.5 699.5 m 1
 255 700 l 1
 133 0 l 1
 51 0 l 1
 167.5 699.5 l 1
EndSplineSet
EndChar

StartChar: uni0416
Encoding: 1046 1046 393
Width: 868
VWidth: 0
Flags: HW
LayerCount: 2
Fore
SplineSet
211.5 700 m 1
 449.5 366.5 l 1
 83 0 l 1
 -26.5 0 l 1
 350.5 375.5 l 1
 114 700 l 1
 211.5 700 l 1
487.5 699.5 m 1
 575 700 l 1
 453.5 0 l 1
 371.5 0 l 1
 487.5 699.5 l 1
836 699.5 m 1
 946 699.5 l 1
 591 368.5 l 1
 834.5 0 l 1
 736.5 0 l 1
 501 374 l 1
 836 699.5 l 1
EndSplineSet
EndChar

StartChar: uni0417
Encoding: 1047 1047 394
Width: 588
VWidth: 0
Flags: HW
LayerCount: 2
Fore
SplineSet
306.5 345.5 m 1
 314 399.5 l 1
 409.5 404.5 486 446.5 502 521 c 0
 514.5 586.5 472 632 394 632.5 c 0
 313 633.5 251 588 231 526.5 c 1
 149.5 527 l 1
 173 636 269 710 397 709.5 c 0
 519.5 709 605 628 588.5 523.5 c 0
 569 409.5 443.5 349 306.5 345.5 c 1
279.5 -9.5 m 0
 135.5 -9.5 50.5 67.5 61 185 c 1
 145 184.5 l 1
 145 113 190.5 70.5 284 70.5 c 0
 380.5 70.5 450.5 116 465.5 195 c 0
 483.5 287 396 322 303 325.5 c 1
 311.5 380.5 l 1
 447 378 571 324.5 550 184.5 c 0
 531 62.5 419 -9.5 279.5 -9.5 c 0
EndSplineSet
EndChar

StartChar: uni0418
Encoding: 1048 1048 395
Width: 752
VWidth: 0
Flags: HW
LayerCount: 2
Fore
SplineSet
746 602 m 1
 39.5 -41 l 1
 71.5 98 l 1
 777.5 741.5 l 1
 746 602 l 1
254.5 700 m 1
 146 71.5 l 1
 39.5 -41 l 1
 169 700 l 1
 254.5 700 l 1
777.5 741.5 m 1
 648 0 l 1
 563 0 l 1
 671 628.5 l 1
 777.5 741.5 l 1
EndSplineSet
EndChar

StartChar: uni0419
Encoding: 1049 1049 396
Width: 752
VWidth: 0
Flags: HW
LayerCount: 2
Fore
SplineSet
746 602 m 1
 39.5 -41 l 1
 71.5 98 l 1
 777.5 741.5 l 1
 746 602 l 1
254.5 700 m 1
 146 71.5 l 1
 39.5 -41 l 1
 169 700 l 1
 254.5 700 l 1
777.5 741.5 m 1
 648 0 l 1
 563 0 l 1
 671 628.5 l 1
 777.5 741.5 l 1
356.903808594 906 m 1
 425.903808594 906 l 1
 424.903808594 873 438.403808594 832 496.903808594 831.5 c 0
 557.403808594 831 581.903808594 873 594.403808594 905.5 c 1
 664.903808594 905 l 1
 647.403808594 832.5 588.903808594 766.5 491.903808594 766.5 c 0
 396.403808594 766.5 352.403808594 832 356.903808594 906 c 1
EndSplineSet
EndChar

StartChar: uni041A
Encoding: 1050 1050 397
Width: 548
VWidth: 0
Flags: HW
LayerCount: 2
Fore
SplineSet
167.5 699.5 m 1
 255 700 l 1
 133 0 l 1
 51 0 l 1
 167.5 699.5 l 1
516 699.5 m 1
 625.5 699.5 l 1
 270.5 368.5 l 1
 514.5 0 l 1
 416.5 0 l 1
 171 373.5 l 1
 516 699.5 l 1
EndSplineSet
EndChar

StartChar: uni041B
Encoding: 1051 1051 398
Width: 638
VWidth: 0
Flags: HW
LayerCount: 2
Fore
SplineSet
655 700 m 1
 534.5 0 l 1
 449.5 0 l 1
 556 620 l 1
 258 620 l 1
 193.5 239.5 l 2
 172 115 105 11 -17.5 1 c 1
 -6.5 72.5 l 1
 66 86.5 101 167.5 115.5 260 c 2
 191 700 l 1
 655 700 l 1
EndSplineSet
EndChar

StartChar: uni041C
Encoding: 1052 1052 399
Width: 786
VWidth: 0
Flags: HW
LayerCount: 2
Fore
SplineSet
227 471.5 m 1
 95.5 0 l 1
 9 0 l 1
 219 736.5 l 1
 403 230.5 l 1
 766.5 741 l 1
 720.5 0 l 1
 636 0 l 1
 666 466 l 1
 378 63 l 1
 227 471.5 l 1
EndSplineSet
EndChar

StartChar: uni041D
Encoding: 1053 1053 400
Width: 693
VWidth: 0
Flags: HW
LayerCount: 2
Fore
SplineSet
155 340.5 m 1
 167.5 420 l 1
 636 420 l 1
 622.5 340.5 l 1
 155 340.5 l 1
623.5 699.5 m 1
 711 700 l 1
 589.5 0 l 1
 507 0 l 1
 623.5 699.5 l 1
167.5 699.5 m 1
 255 700 l 1
 133 0 l 1
 51 0 l 1
 167.5 699.5 l 1
EndSplineSet
EndChar

StartChar: uni041E
Encoding: 1054 1054 401
Width: 766
VWidth: 0
Flags: HW
LayerCount: 2
Fore
SplineSet
160 350 m 0
 137.5 209.5 211.5 76.5 364.5 75.5 c 0
 519.5 74.5 646.5 201 672 350 c 0
 694.5 490.5 620.5 623.5 467.5 624.5 c 0
 312.5 625.5 185.5 499 160 350 c 0
70 350 m 0
 100 546 268 710.5 472.5 710 c 0
 673.5 709.5 789 538 762 350 c 0
 732 154 563.5 -10.5 359 -10 c 0
 158 -9.5 43 162 70 350 c 0
EndSplineSet
EndChar

StartChar: uni041F
Encoding: 1055 1055 402
Width: 693
VWidth: 0
Flags: HW
LayerCount: 2
Fore
SplineSet
614 620.5 m 1
 240.5 620 l 1
 134 0 l 1
 48.5 0 l 1
 169 700 l 1
 710 700 l 1
 589.5 0 l 1
 507 0 l 1
 614 620.5 l 1
EndSplineSet
EndChar

StartChar: uni0420
Encoding: 1056 1056 403
Width: 531
VWidth: 0
Flags: HW
LayerCount: 2
Fore
SplineSet
167.5 699.5 m 1
 255 700 l 1
 133 0 l 1
 51 0 l 1
 167.5 699.5 l 1
200 620 m 1
 214.5 700 l 1
 350 700 l 1
 477 697.5 569.5 614.5 551 489.5 c 0
 532 362.5 418 282.5 287 280 c 1
 142 280 l 1
 156.5 360 l 1
 292 360 l 2
 378.5 362 451 406.5 466.5 490 c 0
 481 571 428 617 345 619.5 c 1
 200 620 l 1
EndSplineSet
EndChar

StartChar: uni0421
Encoding: 1057 1057 404
Width: 664
VWidth: 0
Flags: HW
LayerCount: 2
Fore
SplineSet
160 350 m 0
 138 209 215.5 77 359.5 75.5 c 0
 456 74.5 538 120.5 599.5 178 c 1
 583 66.5 l 1
 518.5 17.5 447.5 -10.5 354 -10 c 0
 158.5 -9 43 161 70 350 c 0
 99.5 548.5 269 709 468 710 c 0
 557.5 710.5 621 685.5 678 632.5 c 1
 661 521 l 1
 618.5 586 551 624.5 462.5 624.5 c 0
 316.5 624 185.5 500.5 160 350 c 0
EndSplineSet
EndChar

